SplineFontDB: 3.2
FontName: Tp6Captcha-Zh2
FullName: Tp6Captcha Zh2
FamilyName: Tp6Captcha
Weight: Bold
Copyright: Copyright 2019-2020 tp6-captcha. All rights reserved.\n
Version: 1.2
ItalicAngle: 0
UnderlinePosition: 0
UnderlineWidth: 0
Ascent: 896
Descent: 128
InvalidEm: 0
sfntRevision: 0x00020000
LayerCount: 2
Layer: 0 1 "+gMxmbwAA" 1
Layer: 1 1 "+Uk1mbwAA" 0
XUID: [1021 389 -1013409464 981]
StyleMap: 0x0040
FSType: 8
OS2Version: 1
OS2_WeightWidthSlopeOnly: 0
OS2_UseTypoMetrics: 0
CreationTime: 1578929716
ModificationTime: 1584776451
PfmFamily: 17
TTFWeight: 400
TTFWidth: 5
LineGap: 92
VLineGap: 0
Panose: 2 0 5 3 0 0 0 0 0 0
OS2TypoAscent: 901
OS2TypoAOffset: 0
OS2TypoDescent: -123
OS2TypoDOffset: 0
OS2TypoLinegap: 92
OS2WinAscent: 901
OS2WinAOffset: 0
OS2WinDescent: 123
OS2WinDOffset: 0
HheadAscent: 901
HheadAOffset: 0
HheadDescent: -123
HheadDOffset: 0
OS2SubXSize: 649
OS2SubYSize: 717
OS2SubXOff: 0
OS2SubYOff: 143
OS2SupXSize: 649
OS2SupYSize: 717
OS2SupXOff: 0
OS2SupYOff: 492
OS2StrikeYSize: 50
OS2StrikeYPos: 264
OS2Vendor: 'PfEd'
OS2CodePages: 00000001.00000000
OS2UnicodeRanges: 00000000.00000000.00000000.00000000
Lookup: 4 0 1 "'liga' +aAdRxn7EVAgA +Z+VifgAA 0" { "'liga' +aAdRxn7EVAgA +Z+VifgAA 0+Zv9O44ho"  } [' RQD' ('DFLT' <'dflt' > ) 'liga' ('DFLT' <'dflt' > ) ]
MarkAttachClasses: 1
DEI: 91125
ShortTable: maxp 16
  1
  0
  99
  157
  8
  0
  0
  2
  0
  10
  10
  0
  255
  0
  0
  0
EndShort
LangName: 1033
Encoding: UnicodeFull
Compacted: 1
UnicodeInterp: none
NameList: AGL For New Fonts
DisplaySize: -48
AntiAlias: 1
FitToEm: 0
WinInfo: 0 38 14
BeginPrivate: 0
EndPrivate
BeginChars: 1114113 98

StartChar: cid9913
Encoding: 20026 20026 0
Width: 1024
Flags: W
HStem: -89 152<597.848 738.798> 489 151<71 358 528 782>
VStem: 379 151<640 873> 775 158<116.355 485.944> 782 160<320.772 489>
LayerCount: 2
Fore
SplineSet
590 163 m 1,0,1
 583 182 583 182 571 205.5 c 128,-1,2
 559 229 559 229 544.5 255 c 128,-1,3
 530 281 530 281 515 306 c 128,-1,4
 500 331 500 331 484 353 c 1,5,-1
 610 411 l 1,6,7
 625 391 625 391 642 366.5 c 128,-1,8
 659 342 659 342 674.5 318 c 128,-1,9
 690 294 690 294 703 271 c 128,-1,10
 716 248 716 248 724 228 c 1,11,-1
 590 163 l 1,0,1
944 640 m 1,12,13
 943 626 943 626 943 613 c 2,14,-1
 942 571 l 2,15,16
 937 426 937 426 932.5 323 c 128,-1,17
 928 220 928 220 920 151 c 128,-1,18
 912 82 912 82 902 41.5 c 128,-1,19
 892 1 892 1 877 -18 c 0,20,21
 852 -51 852 -51 826 -64 c 128,-1,22
 800 -77 800 -77 765 -83 c 0,23,24
 734 -88 734 -88 690 -89 c 128,-1,25
 646 -90 646 -90 600 -89 c 1,26,27
 599 -73 599 -73 594.5 -52.5 c 128,-1,28
 590 -32 590 -32 583.5 -11 c 128,-1,29
 577 10 577 10 567 30.5 c 128,-1,30
 557 51 557 51 547 68 c 1,31,32
 593 64 593 64 632 63 c 2,33,-1
 692 62 l 2,34,35
 706 62 706 62 716 66 c 128,-1,36
 726 70 726 70 735.5 80 c 128,-1,37
 745 90 745 90 753 118 c 128,-1,38
 761 146 761 146 766 196 c 128,-1,39
 771 246 771 246 775 318.5 c 128,-1,40
 779 391 779 391 782 489 c 1,41,-1
 514 489 l 1,42,43
 503 416 503 416 480 340 c 128,-1,44
 457 264 457 264 416 190.5 c 128,-1,45
 375 117 375 117 314 49 c 128,-1,46
 253 -19 253 -19 166 -76 c 1,47,48
 157 -64 157 -64 142.5 -48 c 128,-1,49
 128 -32 128 -32 111 -16.5 c 128,-1,50
 94 -1 94 -1 77 12.5 c 128,-1,51
 60 26 60 26 47 35 c 1,52,53
 121 80 121 80 174 134 c 128,-1,54
 227 188 227 188 264 247 c 128,-1,55
 301 306 301 306 323.5 367.5 c 128,-1,56
 346 429 346 429 358 489 c 1,57,-1
 71 489 l 1,58,-1
 71 640 l 1,59,-1
 377 640 l 1,60,61
 379 664 379 664 379 684 c 2,62,-1
 379 873 l 1,63,-1
 530 873 l 1,64,-1
 530 683 l 1,65,-1
 528 640 l 1,66,-1
 944 640 l 1,12,13
255 852 m 1,67,68
 268 835 268 835 282.5 815 c 128,-1,69
 297 795 297 795 310.5 774.5 c 128,-1,70
 324 754 324 754 334.5 734 c 128,-1,71
 345 714 345 714 352 697 c 1,72,-1
 212 640 l 1,73,74
 207 655 207 655 197 675 c 128,-1,75
 187 695 187 695 175 716.5 c 128,-1,76
 163 738 163 738 149.5 759.5 c 128,-1,77
 136 781 136 781 124 800 c 1,78,-1
 255 852 l 1,67,68
EndSplineSet
EndChar

StartChar: cid9917
Encoding: 20029 20029 1
Width: 1024
Flags: W
HStem: -90 139<284.141 338.17 732 791.922> 498 135<226 339 676 793> 687 142<42 983>
VStem: 88 138<-96 300 407 498> 339 147<50.0312 203 353 498> 538 138<-96 296 401 498> 793 149<49.3231 205 331 498>
LayerCount: 2
Fore
SplineSet
983 829 m 1,0,-1
 983 687 l 1,1,-1
 42 687 l 1,2,-1
 42 829 l 1,3,-1
 983 829 l 1,0,-1
942 63 m 2,4,5
 942 13 942 13 932 -17.5 c 128,-1,6
 922 -48 922 -48 892 -65.5 c 128,-1,7
 862 -83 862 -83 823 -86.5 c 128,-1,8
 784 -90 784 -90 732 -90 c 1,9,-1
 727 -56 l 2,10,11
 724 -38 724 -38 719 -19 c 128,-1,12
 714 0 714 0 707.5 18.5 c 128,-1,13
 701 37 701 37 695 51 c 1,14,15
 718 49 718 49 742 49 c 2,16,-1
 776 49 l 2,17,18
 792 49 792 49 793 66 c 2,19,-1
 793 205 l 1,20,-1
 728 175 l 1,21,22
 720 200 720 200 706 231.5 c 128,-1,23
 692 263 692 263 676 296 c 1,24,-1
 676 -96 l 1,25,-1
 538 -96 l 1,26,-1
 538 633 l 1,27,-1
 942 633 l 1,28,-1
 942 63 l 2,4,5
739 427 m 1,29,30
 752 404 752 404 766 380 c 2,31,-1
 793 331 l 1,32,-1
 793 498 l 1,33,-1
 676 498 l 1,34,-1
 676 401 l 1,35,-1
 739 427 l 1,29,30
486 62 m 2,36,37
 486 13 486 13 477 -18 c 128,-1,38
 468 -49 468 -49 438.5 -66.5 c 128,-1,39
 409 -84 409 -84 372.5 -88.5 c 128,-1,40
 336 -93 336 -93 287 -93 c 1,41,42
 286 -78 286 -78 282.5 -59 c 128,-1,43
 279 -40 279 -40 273.5 -20.5 c 128,-1,44
 268 -1 268 -1 262 18 c 128,-1,45
 256 37 256 37 249 51 c 1,46,47
 269 49 269 49 293 49 c 2,48,-1
 324 49 l 2,49,50
 339 49 339 49 339 66 c 2,51,-1
 339 203 l 1,52,-1
 280 176 l 1,53,54
 272 202 272 202 258 234 c 128,-1,55
 244 266 244 266 226 300 c 1,56,-1
 226 -96 l 1,57,-1
 88 -96 l 1,58,-1
 88 633 l 1,59,-1
 486 633 l 1,60,-1
 486 62 l 2,36,37
294 433 m 1,61,62
 305 415 305 415 316 394 c 2,63,-1
 339 353 l 1,64,-1
 339 498 l 1,65,-1
 226 498 l 1,66,-1
 226 407 l 1,67,-1
 294 433 l 1,61,62
EndSplineSet
EndChar

StartChar: cid9927
Encoding: 20035 20035 2
Width: 1024
Flags: W
HStem: -76 152<557.296 743.422> 676 145<76 213 368 612>
VStem: 213 155<369.222 676> 777 168<127.556 318>
LayerCount: 2
Fore
SplineSet
947 462 m 1,0,1
 946 449 946 449 946 437 c 2,2,-1
 945 397 l 2,3,4
 941 301 941 301 936.5 231.5 c 128,-1,5
 932 162 932 162 924 113.5 c 128,-1,6
 916 65 916 65 906 34 c 128,-1,7
 896 3 896 3 881 -13 c 0,8,9
 854 -44 854 -44 822.5 -55.5 c 128,-1,10
 791 -67 791 -67 750 -72 c 0,11,12
 717 -76 717 -76 665.5 -76.5 c 128,-1,13
 614 -77 614 -77 560 -76 c 1,14,15
 559 -59 559 -59 554 -37.5 c 128,-1,16
 549 -16 549 -16 540 5 c 128,-1,17
 531 26 531 26 520.5 46.5 c 128,-1,18
 510 67 510 67 498 83 c 1,19,-1
 554 80 l 1,20,-1
 606 77 l 2,21,22
 631 76 631 76 651 76 c 2,23,-1
 685 76 l 2,24,25
 702 76 702 76 713.5 78.5 c 128,-1,26
 725 81 725 81 736 89 c 0,27,28
 767 114 767 114 777 318 c 1,29,-1
 507 318 l 1,30,31
 533 391 533 391 560.5 485.5 c 128,-1,32
 588 580 588 580 612 676 c 1,33,-1
 368 676 l 1,34,-1
 368 634 l 2,35,36
 368 587 368 587 365 528 c 128,-1,37
 362 469 362 469 354 404 c 128,-1,38
 346 339 346 339 330.5 270.5 c 128,-1,39
 315 202 315 202 288.5 136 c 128,-1,40
 262 70 262 70 223.5 9.5 c 128,-1,41
 185 -51 185 -51 132 -101 c 1,42,43
 123 -88 123 -88 108.5 -70 c 128,-1,44
 94 -52 94 -52 77.5 -34 c 128,-1,45
 61 -16 61 -16 44.5 -0.5 c 128,-1,46
 28 15 28 15 14 26 c 1,47,48
 60 67 60 67 93 117.5 c 128,-1,49
 126 168 126 168 148 222 c 128,-1,50
 170 276 170 276 183 333 c 128,-1,51
 196 390 196 390 202.5 444 c 128,-1,52
 209 498 209 498 211 547 c 128,-1,53
 213 596 213 596 213 636 c 2,54,-1
 213 676 l 1,55,-1
 76 676 l 1,56,-1
 76 821 l 1,57,-1
 808 821 l 1,58,59
 790 734 790 734 767.5 640.5 c 128,-1,60
 745 547 745 547 724 462 c 1,61,-1
 947 462 l 1,0,1
EndSplineSet
EndChar

StartChar: cid10043
Encoding: 20113 20113 3
Width: 1024
Flags: W
HStem: 376 154<44 301 501.053 980> 663 153<164 874>
LayerCount: 2
Fore
SplineSet
514 376 m 1,0,1
 473 308 473 308 426.5 245 c 128,-1,2
 380 182 380 182 333 127 c 1,3,-1
 681 144 l 1,4,-1
 641 206 l 2,5,6
 621 236 621 236 601 263 c 1,7,-1
 739 335 l 1,8,9
 771 293 771 293 804 246 c 128,-1,10
 837 199 837 199 867.5 152.5 c 128,-1,11
 898 106 898 106 924.5 62 c 128,-1,12
 951 18 951 18 971 -17 c 1,13,-1
 824 -106 l 1,14,-1
 800 -56 l 2,15,16
 787 -29 787 -29 769 0 c 1,17,18
 646 -8 646 -8 556 -14 c 2,19,-1
 291 -35 l 2,20,21
 247 -39 247 -39 217 -43 c 128,-1,22
 187 -47 187 -47 168.5 -51.5 c 128,-1,23
 150 -56 150 -56 134 -61 c 1,24,25
 131 -49 131 -49 124.5 -28 c 128,-1,26
 118 -7 118 -7 109.5 16.5 c 128,-1,27
 101 40 101 40 92 63 c 2,28,-1
 76 104 l 1,29,30
 101 111 101 111 119 126.5 c 128,-1,31
 137 142 137 142 163 170 c 0,32,33
 172 180 172 180 187.5 199.5 c 128,-1,34
 203 219 203 219 221.5 246 c 128,-1,35
 240 273 240 273 260.5 306 c 128,-1,36
 281 339 281 339 301 376 c 1,37,-1
 44 376 l 1,38,-1
 44 530 l 1,39,-1
 980 530 l 1,40,-1
 980 376 l 1,41,-1
 514 376 l 1,0,1
874 663 m 1,42,-1
 164 663 l 1,43,-1
 164 816 l 1,44,-1
 874 816 l 1,45,-1
 874 663 l 1,42,-1
EndSplineSet
EndChar

StartChar: uni4EBA
Encoding: 20154 20154 4
Width: 1024
Flags: W
VStem: 409 172<550.336 876>
LayerCount: 2
Fore
SplineSet
583 876 m 1,0,1
 582 840 582 840 581 797 c 128,-1,2
 580 754 580 754 574 705 c 1,3,4
 578 668 578 668 587 615.5 c 128,-1,5
 596 563 596 563 615 502.5 c 128,-1,6
 634 442 634 442 664.5 376.5 c 128,-1,7
 695 311 695 311 741.5 249.5 c 128,-1,8
 788 188 788 188 854 133.5 c 128,-1,9
 920 79 920 79 1009 40 c 1,10,11
 974 13 974 13 944.5 -22 c 128,-1,12
 915 -57 915 -57 899 -89 c 1,13,14
 818 -50 818 -50 755.5 1.5 c 128,-1,15
 693 53 693 53 645.5 112 c 128,-1,16
 598 171 598 171 564 235 c 128,-1,17
 530 299 530 299 507 361 c 1,18,19
 485 298 485 298 453.5 236 c 128,-1,20
 422 174 422 174 378 115 c 128,-1,21
 334 56 334 56 276.5 2.5 c 128,-1,22
 219 -51 219 -51 145 -96 c 1,23,24
 125 -66 125 -66 91.5 -33 c 128,-1,25
 58 0 58 0 20 26 c 1,26,27
 122 83 122 83 191 155 c 128,-1,28
 260 227 260 227 303 306.5 c 128,-1,29
 346 386 346 386 367.5 467.5 c 128,-1,30
 389 549 389 549 398.5 624 c 128,-1,31
 408 699 408 699 409 765 c 2,32,-1
 411 876 l 1,33,-1
 583 876 l 1,0,1
EndSplineSet
EndChar

StartChar: cid10244
Encoding: 20240 20240 5
Width: 1024
Flags: W
HStem: -98 152<802.212 857.696>
VStem: 160 150<-95 409> 516 154<633.781 863> 522 154<632 738.063> 536 152<346.005 477> 879 129<72.0576 166.04>
LayerCount: 2
Fore
SplineSet
969 438 m 1,0,1
 927 360 927 360 874 291.5 c 128,-1,2
 821 223 821 223 758 164 c 1,3,4
 776 112 776 112 796.5 83 c 128,-1,5
 817 54 817 54 839 54 c 0,6,7
 855 54 855 54 864 98 c 128,-1,8
 873 142 873 142 879 241 c 1,9,10
 905 215 905 215 941 191.5 c 128,-1,11
 977 168 977 168 1008 157 c 1,12,13
 1000 78 1000 78 985.5 29 c 128,-1,14
 971 -20 971 -20 949.5 -49 c 128,-1,15
 928 -78 928 -78 898 -88 c 128,-1,16
 868 -98 868 -98 827 -98 c 0,17,18
 766 -98 766 -98 718.5 -55 c 128,-1,19
 671 -12 671 -12 635 63 c 1,20,21
 529 -12 529 -12 414 -61 c 1,22,23
 407 -49 407 -49 395 -31 c 128,-1,24
 383 -13 383 -13 369 5.5 c 128,-1,25
 355 24 355 24 341.5 40.5 c 128,-1,26
 328 57 328 57 316 69 c 1,27,28
 390 96 390 96 457 130.5 c 128,-1,29
 524 165 524 165 584 210 c 1,30,31
 568 270 568 270 556 337 c 128,-1,32
 544 404 544 404 536 477 c 1,33,-1
 346 459 l 1,34,-1
 334 599 l 1,35,-1
 522 617 l 1,36,37
 518 678 518 678 516 740 c 128,-1,38
 514 802 514 802 514 863 c 1,39,-1
 671 863 l 1,40,41
 669 805 669 805 670.5 747 c 128,-1,42
 672 689 672 689 676 632 c 1,43,-1
 967 659 l 1,44,-1
 978 521 l 1,45,-1
 688 493 l 1,46,47
 693 449 693 449 699.5 407.5 c 128,-1,48
 706 366 706 366 714 328 c 1,49,50
 747 365 747 365 775 405 c 128,-1,51
 803 445 803 445 824 489 c 1,52,-1
 969 438 l 1,0,1
399 831 m 1,53,54
 381 783 381 783 358.5 735 c 128,-1,55
 336 687 336 687 310 639 c 1,56,-1
 310 -95 l 1,57,-1
 160 -95 l 1,58,-1
 160 409 l 1,59,60
 145 390 145 390 129 373 c 2,61,-1
 98 339 l 1,62,63
 93 352 93 352 83 373 c 2,64,-1
 61 416 l 2,65,66
 49 439 49 439 37 459 c 128,-1,67
 25 479 25 479 15 493 c 1,68,69
 51 527 51 527 85.5 570.5 c 128,-1,70
 120 614 120 614 151 664 c 128,-1,71
 182 714 182 714 209 767.5 c 128,-1,72
 236 821 236 821 256 877 c 1,73,-1
 399 831 l 1,53,54
844 654 m 1,74,75
 832 667 832 667 814 685 c 128,-1,76
 796 703 796 703 775 723 c 2,77,-1
 693 796 l 1,78,-1
 792 877 l 1,79,-1
 873 810 l 1,80,-1
 914 776 l 2,81,82
 955 741 955 741 947 745 c 1,83,-1
 844 654 l 1,74,75
EndSplineSet
EndChar

StartChar: cid10329
Encoding: 20301 20301 6
Width: 1024
Flags: W
HStem: -57 143<334 695.25 826 980> 566 145<368 600 647 949>
VStem: 148 151<-96 394> 690 136<86 167.331>
LayerCount: 2
Fore
SplineSet
980 86 m 1,0,-1
 980 -57 l 1,1,-1
 334 -57 l 1,2,-1
 334 86 l 1,3,-1
 690 86 l 1,4,5
 702 135 702 135 714 193.5 c 128,-1,6
 726 252 726 252 736 313.5 c 128,-1,7
 746 375 746 375 754 436 c 128,-1,8
 762 497 762 497 766 552 c 1,9,-1
 922 528 l 1,10,11
 913 471 913 471 901.5 412 c 128,-1,12
 890 353 890 353 877.5 296 c 128,-1,13
 865 239 865 239 852.5 185.5 c 128,-1,14
 840 132 840 132 826 86 c 1,15,-1
 980 86 l 1,0,-1
389 827 m 1,16,17
 371 777 371 777 348.5 727 c 128,-1,18
 326 677 326 677 299 628 c 1,19,-1
 299 -96 l 1,20,-1
 148 -96 l 1,21,-1
 148 394 l 1,22,-1
 127 368 l 2,23,24
 116 355 116 355 104 343 c 1,25,26
 99 356 99 356 90 377.5 c 128,-1,27
 81 399 81 399 70 422 c 2,28,-1
 47 465 l 2,29,30
 36 485 36 485 27 500 c 1,31,32
 60 534 60 534 92 575.5 c 128,-1,33
 124 617 124 617 152.5 665.5 c 128,-1,34
 181 714 181 714 205.5 766 c 128,-1,35
 230 818 230 818 249 871 c 1,36,-1
 389 827 l 1,16,17
479 103 m 1,37,38
 476 143 476 143 471 194.5 c 128,-1,39
 466 246 466 246 458.5 301 c 128,-1,40
 451 356 451 356 442 412.5 c 128,-1,41
 433 469 433 469 424 520 c 1,42,-1
 558 551 l 1,43,-1
 580 447 l 2,44,45
 590 392 590 392 599 338 c 128,-1,46
 608 284 608 284 615 234 c 128,-1,47
 622 184 622 184 626 145 c 1,48,-1
 479 103 l 1,37,38
600 711 m 1,49,50
 593 744 593 744 581 784 c 2,51,-1
 556 860 l 1,52,-1
 698 895 l 1,53,54
 712 858 712 858 727 815 c 128,-1,55
 742 772 742 772 751 739 c 1,56,-1
 647 711 l 1,57,-1
 949 711 l 1,58,-1
 949 566 l 1,59,-1
 368 566 l 1,60,-1
 368 711 l 1,61,-1
 600 711 l 1,49,50
EndSplineSet
EndChar

StartChar: cid10350
Encoding: 20313 20313 7
Width: 1024
Flags: W
HStem: -99 142<343.389 429.671> 223 139<113 431 590 925> 435 133<344 431 590 677>
VStem: 431 159<42.8101 223 362 435>
LayerCount: 2
Fore
SplineSet
617 823 m 1,0,1
 612 818 612 818 608 812 c 128,-1,2
 604 806 604 806 599 801 c 1,3,4
 655 753 655 753 709.5 715.5 c 128,-1,5
 764 678 764 678 816.5 650 c 128,-1,6
 869 622 869 622 920 601 c 128,-1,7
 971 580 971 580 1020 564 c 1,8,9
 992 539 992 539 964 503 c 128,-1,10
 936 467 936 467 921 432 c 1,11,-1
 846 468 l 2,12,13
 808 486 808 486 769 509 c 1,14,-1
 769 435 l 1,15,-1
 590 435 l 1,16,-1
 590 362 l 1,17,-1
 925 362 l 1,18,-1
 925 223 l 1,19,-1
 590 223 l 1,20,-1
 590 57 l 2,21,22
 590 5 590 5 576.5 -25 c 128,-1,23
 563 -55 563 -55 527.5 -72.5 c 128,-1,24
 492 -90 492 -90 448 -94.5 c 128,-1,25
 404 -99 404 -99 349 -99 c 1,26,27
 346 -84 346 -84 339.5 -64.5 c 128,-1,28
 333 -45 333 -45 324.5 -25.5 c 128,-1,29
 316 -6 316 -6 307 12 c 128,-1,30
 298 30 298 30 290 44 c 1,31,-1
 325 43 l 1,32,-1
 409 42 l 2,33,34
 432 43 432 43 431 60 c 2,35,-1
 431 223 l 1,36,-1
 113 223 l 1,37,-1
 113 362 l 1,38,-1
 431 362 l 1,39,-1
 431 435 l 1,40,-1
 243 435 l 1,41,-1
 243 501 l 1,42,43
 209 481 209 481 174.5 462 c 128,-1,44
 140 443 140 443 108 427 c 1,45,46
 91 457 91 457 63.5 492 c 128,-1,47
 36 527 36 527 7 555 c 1,48,49
 75 581 75 581 144.5 615.5 c 128,-1,50
 214 650 214 650 279.5 692 c 128,-1,51
 345 734 345 734 403 783.5 c 128,-1,52
 461 833 461 833 504 887 c 1,53,-1
 617 823 l 1,0,1
677 568 m 1,54,55
 637 596 637 596 595.5 629.5 c 128,-1,56
 554 663 554 663 509 705 c 1,57,58
 470 668 470 668 429 633.5 c 128,-1,59
 388 599 388 599 344 568 c 1,60,-1
 677 568 l 1,54,55
758 206 m 1,61,62
 784 184 784 184 813.5 159 c 128,-1,63
 843 134 843 134 871.5 108 c 128,-1,64
 900 82 900 82 925 57 c 128,-1,65
 950 32 950 32 968 10 c 1,66,-1
 833 -72 l 1,67,68
 818 -50 818 -50 794.5 -24.5 c 128,-1,69
 771 1 771 1 744 28.5 c 128,-1,70
 717 56 717 56 688 83 c 2,71,-1
 632 133 l 1,72,-1
 758 206 l 1,61,62
374 153 m 1,73,74
 352 123 352 123 324.5 91.5 c 128,-1,75
 297 60 297 60 267.5 31 c 128,-1,76
 238 2 238 2 207.5 -24.5 c 128,-1,77
 177 -51 177 -51 150 -71 c 1,78,79
 141 -61 141 -61 126 -47 c 2,80,-1
 96 -19 l 2,81,82
 80 -5 80 -5 64.5 7.5 c 128,-1,83
 49 20 49 20 37 30 c 1,84,85
 92 63 92 63 146 110 c 128,-1,86
 200 157 200 157 236 205 c 1,87,-1
 374 153 l 1,73,74
EndSplineSet
EndChar

StartChar: cid11221
Encoding: 20809 20809 8
Width: 1024
Flags: W
HStem: -77 142<724.61 843.296> 368 144<50 286 719 974>
VStem: 286 157<241.155 368> 432 158<512 880> 566 153<71.6417 368>
LayerCount: 2
Fore
SplineSet
827 65 m 2,0,1
 837 65 837 65 843.5 68.5 c 128,-1,2
 850 72 850 72 854 83 c 128,-1,3
 858 94 858 94 860 114 c 128,-1,4
 862 134 862 134 864 167 c 1,5,6
 875 158 875 158 892 149 c 128,-1,7
 909 140 909 140 928 132.5 c 128,-1,8
 947 125 947 125 966.5 119 c 128,-1,9
 986 113 986 113 1001 109 c 1,10,11
 995 55 995 55 983.5 19 c 128,-1,12
 972 -17 972 -17 953.5 -38 c 128,-1,13
 935 -59 935 -59 907.5 -68 c 128,-1,14
 880 -77 880 -77 842 -77 c 2,15,-1
 730 -77 l 2,16,17
 680 -77 680 -77 648 -67.5 c 128,-1,18
 616 -58 616 -58 598 -36.5 c 128,-1,19
 580 -15 580 -15 573 19.5 c 128,-1,20
 566 54 566 54 566 106 c 2,21,-1
 566 368 l 1,22,-1
 443 368 l 1,23,24
 436 292 436 292 419.5 223.5 c 128,-1,25
 403 155 403 155 367.5 95 c 128,-1,26
 332 35 332 35 270.5 -14 c 128,-1,27
 209 -63 209 -63 112 -100 c 1,28,29
 106 -85 106 -85 95 -67.5 c 128,-1,30
 84 -50 84 -50 71.5 -32 c 128,-1,31
 59 -14 59 -14 46 1.5 c 128,-1,32
 33 17 33 17 19 29 c 1,33,34
 101 56 101 56 151 91.5 c 128,-1,35
 201 127 201 127 229.5 170 c 128,-1,36
 258 213 258 213 269.5 262.5 c 128,-1,37
 281 312 281 312 286 368 c 1,38,-1
 50 368 l 1,39,-1
 50 512 l 1,40,-1
 432 512 l 1,41,-1
 432 880 l 1,42,-1
 590 880 l 1,43,-1
 590 512 l 1,44,-1
 974 512 l 1,45,-1
 974 368 l 1,46,-1
 719 368 l 1,47,-1
 719 109 l 2,48,49
 719 94 719 94 720 85 c 128,-1,50
 721 76 721 76 724.5 71.5 c 128,-1,51
 728 67 728 67 735 66 c 128,-1,52
 742 65 742 65 754 65 c 2,53,-1
 827 65 l 2,0,1
256 538 m 1,54,55
 247 561 247 561 230.5 587.5 c 128,-1,56
 214 614 214 614 194 643.5 c 128,-1,57
 174 673 174 673 152 701.5 c 128,-1,58
 130 730 130 730 110 755 c 1,59,-1
 228 825 l 1,60,61
 250 801 250 801 272.5 774.5 c 128,-1,62
 295 748 295 748 316.5 720 c 128,-1,63
 338 692 338 692 356 666 c 128,-1,64
 374 640 374 640 385 617 c 1,65,-1
 256 538 l 1,54,55
945 760 m 1,66,67
 902 698 902 698 857 639.5 c 128,-1,68
 812 581 812 581 773 540 c 1,69,-1
 641 594 l 1,70,71
 659 616 659 616 679.5 643.5 c 128,-1,72
 700 671 700 671 719.5 700 c 128,-1,73
 739 729 739 729 756.5 758.5 c 128,-1,74
 774 788 774 788 786 816 c 1,75,-1
 945 760 l 1,66,67
EndSplineSet
EndChar

StartChar: cid11327
Encoding: 20872 20872 9
Width: 1024
Flags: W
HStem: -95 146<630.72 785.748> 683 146<225 794>
VStem: 72 153<-97 683> 794 157<58.2209 683>
LayerCount: 2
Fore
SplineSet
951 79 m 2,0,1
 951 16 951 16 934.5 -17.5 c 128,-1,2
 918 -51 918 -51 878 -69 c 0,3,4
 836 -87 836 -87 777.5 -91 c 128,-1,5
 719 -95 719 -95 636 -95 c 1,6,7
 633 -79 633 -79 626.5 -59 c 128,-1,8
 620 -39 620 -39 611.5 -18.5 c 128,-1,9
 603 2 603 2 594 21 c 128,-1,10
 585 40 585 40 575 54 c 1,11,12
 601 52 601 52 629 51 c 128,-1,13
 657 50 657 50 684 50 c 2,14,-1
 760 51 l 2,15,16
 778 51 778 51 786 58 c 128,-1,17
 794 65 794 65 794 81 c 2,18,-1
 794 683 l 1,19,-1
 225 683 l 1,20,-1
 225 -97 l 1,21,-1
 72 -97 l 1,22,-1
 72 829 l 1,23,-1
 951 829 l 1,24,-1
 951 79 l 2,0,1
668 57 m 1,25,26
 644 95 644 95 609.5 139 c 128,-1,27
 575 183 575 183 534 231 c 1,28,29
 491 173 491 173 446 123 c 128,-1,30
 401 73 401 73 355 31 c 1,31,-1
 328 53 l 2,32,33
 312 65 312 65 293 78 c 2,34,-1
 257 101 l 1,35,-1
 225 121 l 1,36,37
 281 164 281 164 334 219.5 c 128,-1,38
 387 275 387 275 436 340 c 1,39,40
 388 390 388 390 339.5 437.5 c 128,-1,41
 291 485 291 485 243 527 c 1,42,-1
 346 612 l 1,43,44
 389 576 389 576 431 539 c 2,45,-1
 516 460 l 1,46,47
 546 509 546 509 571 558.5 c 128,-1,48
 596 608 596 608 617 660 c 1,49,-1
 761 617 l 1,50,51
 731 549 731 549 694.5 483.5 c 128,-1,52
 658 418 658 418 620 355 c 1,53,54
 669 303 669 303 710 255 c 128,-1,55
 751 207 751 207 780 165 c 1,56,-1
 668 57 l 1,25,26
EndSplineSet
EndChar

StartChar: cid11381
Encoding: 20908 20908 10
Width: 1024
Flags: W
HStem: 660 127<487 643>
LayerCount: 2
Fore
SplineSet
869 737 m 1,0,1
 832 658 832 658 779.5 594 c 128,-1,2
 727 530 727 530 659 478 c 1,3,4
 734 451 734 451 819 433.5 c 128,-1,5
 904 416 904 416 999 406 c 1,6,7
 987 393 987 393 973 374 c 128,-1,8
 959 355 959 355 946 335 c 128,-1,9
 933 315 933 315 921.5 295.5 c 128,-1,10
 910 276 910 276 903 260 c 1,11,12
 790 277 790 277 693 308.5 c 128,-1,13
 596 340 596 340 513 386 c 1,14,15
 483 370 483 370 451 356 c 128,-1,16
 419 342 419 342 385 330 c 1,17,18
 429 322 429 322 484 309 c 2,19,-1
 595 285 l 2,20,21
 649 272 649 272 699.5 258.5 c 128,-1,22
 750 245 750 245 785 234 c 1,23,-1
 723 100 l 1,24,25
 689 112 689 112 639.5 127 c 128,-1,26
 590 142 590 142 534.5 157.5 c 128,-1,27
 479 173 479 173 423 187.5 c 128,-1,28
 367 202 367 202 319 213 c 1,29,-1
 377 327 l 1,30,31
 314 303 314 303 247 285.5 c 128,-1,32
 180 268 180 268 110 255 c 1,33,34
 105 270 105 270 96.5 289 c 128,-1,35
 88 308 88 308 78.5 327 c 128,-1,36
 69 346 69 346 58 364 c 128,-1,37
 47 382 47 382 37 395 c 1,38,39
 128 408 128 408 213 430 c 128,-1,40
 298 452 298 452 374 482 c 1,41,42
 352 500 352 500 332 520 c 128,-1,43
 312 540 312 540 294 561 c 1,44,45
 263 532 263 532 229.5 505 c 128,-1,46
 196 478 196 478 158 453 c 1,47,48
 150 466 150 466 138 482.5 c 128,-1,49
 126 499 126 499 112.5 515 c 128,-1,50
 99 531 99 531 85.5 545.5 c 128,-1,51
 72 560 72 560 59 569 c 1,52,53
 170 636 170 636 246.5 718.5 c 128,-1,54
 323 801 323 801 366 881 c 1,55,-1
 525 848 l 1,56,-1
 507 817 l 1,57,-1
 487 787 l 1,58,-1
 742 787 l 1,59,-1
 767 794 l 1,60,-1
 869 737 l 1,0,1
381 649 m 1,61,62
 408 621 408 621 439.5 596 c 128,-1,63
 471 571 471 571 507 549 c 1,64,65
 547 574 547 574 581 601.5 c 128,-1,66
 615 629 615 629 643 660 c 1,67,-1
 391 660 l 1,68,-1
 381 649 l 1,61,62
242 153 m 1,69,70
 305 145 305 145 383.5 131.5 c 128,-1,71
 462 118 462 118 541 101 c 128,-1,72
 620 84 620 84 692 65.5 c 128,-1,73
 764 47 764 47 815 31 c 1,74,-1
 749 -109 l 1,75,76
 701 -92 701 -92 631.5 -71.5 c 128,-1,77
 562 -51 562 -51 484.5 -31.5 c 128,-1,78
 407 -12 407 -12 327.5 5 c 128,-1,79
 248 22 248 22 180 33 c 1,80,-1
 242 153 l 1,69,70
EndSplineSet
EndChar

StartChar: cid11520
Encoding: 20986 20986 11
Width: 1024
Flags: W
HStem: -43 148<244 424 591 772> 407 386<133 292 732 899> 407 144<292 424 591 732>
VStem: 76 168<105 358> 133 159<551 792> 424 167<105 407 551 874> 732 167<551 793> 772 168<-97 -43 105 359>
LayerCount: 2
Fore
SplineSet
940 359 m 1,0,-1
 940 -97 l 1,1,-1
 772 -97 l 1,2,-1
 772 -43 l 1,3,-1
 76 -43 l 1,4,-1
 76 358 l 1,5,-1
 244 358 l 1,6,-1
 244 105 l 1,7,-1
 424 105 l 1,8,-1
 424 407 l 1,9,-1
 133 407 l 1,10,-1
 133 792 l 1,11,-1
 292 792 l 1,12,-1
 292 551 l 1,13,-1
 424 551 l 1,14,-1
 424 874 l 1,15,-1
 591 874 l 1,16,-1
 591 551 l 1,17,-1
 732 551 l 1,18,-1
 732 793 l 1,19,-1
 899 793 l 1,20,-1
 899 407 l 1,21,-1
 591 407 l 1,22,-1
 591 105 l 1,23,-1
 772 105 l 1,24,-1
 772 359 l 1,25,-1
 940 359 l 1,0,-1
EndSplineSet
EndChar

StartChar: cid11561
Encoding: 21015 21015 12
Width: 1024
Flags: W
HStem: -92 141<723.068 823.842> 470 136<291 411> 691 143<42 163 307.312 587>
VStem: 617 147<173 772> 829 150<53.1582 862>
LayerCount: 2
Fore
SplineSet
979 862 m 1,0,-1
 979 71 l 2,1,2
 979 14 979 14 966 -17 c 128,-1,3
 953 -48 953 -48 920.5 -65.5 c 128,-1,4
 888 -83 888 -83 840.5 -88 c 128,-1,5
 793 -93 793 -93 727 -92 c 1,6,7
 725 -77 725 -77 720.5 -58.5 c 128,-1,8
 716 -40 716 -40 709.5 -20.5 c 128,-1,9
 703 -1 703 -1 695.5 17.5 c 128,-1,10
 688 36 688 36 681 50 c 1,11,-1
 719 49 l 1,12,-1
 805 48 l 2,13,14
 819 48 819 48 824 53 c 128,-1,15
 829 58 829 58 829 71 c 2,16,-1
 829 862 l 1,17,-1
 979 862 l 1,0,-1
764 173 m 1,18,-1
 617 173 l 1,19,-1
 617 772 l 1,20,-1
 764 772 l 1,21,-1
 764 173 l 1,18,-1
42 834 m 1,22,-1
 587 834 l 1,23,-1
 587 691 l 1,24,-1
 312 691 l 1,25,26
 303 646 303 646 291 606 c 1,27,-1
 456 606 l 1,28,-1
 481 610 l 1,29,-1
 574 584 l 1,30,31
 557 448 557 448 521 338.5 c 128,-1,32
 485 229 485 229 431.5 144.5 c 128,-1,33
 378 60 378 60 304.5 -2.5 c 128,-1,34
 231 -65 231 -65 139 -108 c 1,35,36
 132 -94 132 -94 121.5 -76 c 128,-1,37
 111 -58 111 -58 99 -41 c 128,-1,38
 87 -24 87 -24 74 -8 c 128,-1,39
 61 8 61 8 50 19 c 1,40,41
 118 45 118 45 173 85.5 c 128,-1,42
 228 126 228 126 273 180 c 1,43,44
 250 204 250 204 223 230 c 2,45,-1
 172 279 l 1,46,-1
 258 392 l 1,47,-1
 305 353 l 2,48,49
 332 330 332 330 355 310 c 1,50,51
 372 346 372 346 385.5 386.5 c 128,-1,52
 399 427 399 427 411 470 c 1,53,-1
 246 470 l 1,54,55
 221 410 221 410 192 357.5 c 128,-1,56
 163 305 163 305 128 264 c 1,57,58
 120 274 120 274 105.5 288.5 c 128,-1,59
 91 303 91 303 75 318 c 128,-1,60
 59 333 59 333 44 346 c 128,-1,61
 29 359 29 359 16 369 c 1,62,63
 68 425 68 425 104.5 509.5 c 128,-1,64
 141 594 141 594 163 691 c 1,65,-1
 42 691 l 1,66,-1
 42 834 l 1,22,-1
EndSplineSet
EndChar

StartChar: cid11606
Encoding: 21046 21046 13
Width: 1024
Flags: W
HStem: -97 146<724.184 818.842> -16 377<69 201 432 561.434> 229 132<201 257 398 459> 418 134<33 114 145 257 398 609> 611 134<215 257 398 569>
VStem: 69 132<-16 229> 257 141<-96 100 101.048 229 361 418 552 611 745 867> 459 133<101.199 229> 639 138<210 796> 824 143<53.6427 854>
LayerCount: 2
Fore
SplineSet
967 854 m 1,0,-1
 967 70 l 2,1,2
 967 14 967 14 955 -18.5 c 128,-1,3
 943 -51 943 -51 912 -69 c 128,-1,4
 881 -87 881 -87 835.5 -92 c 128,-1,5
 790 -97 790 -97 728 -97 c 1,6,7
 726 -82 726 -82 721.5 -62.5 c 128,-1,8
 717 -43 717 -43 711 -23 c 128,-1,9
 705 -3 705 -3 698 16.5 c 128,-1,10
 691 36 691 36 684 51 c 1,11,12
 721 49 721 49 755 49 c 2,13,-1
 802 49 l 2,14,15
 814 49 814 49 819 53.5 c 128,-1,16
 824 58 824 58 824 71 c 2,17,-1
 824 854 l 1,18,-1
 967 854 l 1,0,-1
777 210 m 1,19,-1
 639 210 l 1,20,-1
 639 796 l 1,21,-1
 777 796 l 1,22,-1
 777 210 l 1,19,-1
398 552 m 1,23,-1
 609 552 l 1,24,-1
 609 418 l 1,25,-1
 398 418 l 1,26,-1
 398 361 l 1,27,-1
 592 361 l 1,28,-1
 592 110 l 2,29,30
 592 69 592 69 584.5 42 c 128,-1,31
 577 15 577 15 552 -0.5 c 128,-1,32
 527 -16 527 -16 497.5 -20 c 128,-1,33
 468 -24 468 -24 432 -23 c 1,34,35
 431 -10 431 -10 427.5 6.5 c 128,-1,36
 424 23 424 23 419.5 39 c 128,-1,37
 415 55 415 55 409.5 71 c 128,-1,38
 404 87 404 87 398 100 c 1,39,-1
 398 -96 l 1,40,-1
 257 -96 l 1,41,-1
 257 229 l 1,42,-1
 201 229 l 1,43,-1
 201 -16 l 1,44,-1
 69 -16 l 1,45,-1
 69 361 l 1,46,-1
 257 361 l 1,47,-1
 257 418 l 1,48,-1
 33 418 l 1,49,-1
 33 552 l 1,50,-1
 114 552 l 1,51,52
 89 563 89 563 60 575 c 128,-1,53
 31 587 31 587 10 594 c 1,54,55
 40 643 40 643 63.5 714.5 c 128,-1,56
 87 786 87 786 99 859 c 1,57,-1
 236 831 l 1,58,-1
 226 788 l 2,59,60
 221 766 221 766 215 745 c 1,61,-1
 257 745 l 1,62,-1
 257 867 l 1,63,-1
 398 867 l 1,64,-1
 398 745 l 1,65,-1
 569 745 l 1,66,-1
 569 611 l 1,67,-1
 398 611 l 1,68,-1
 398 552 l 1,23,-1
398 229 m 1,69,-1
 398 102 l 1,70,71
 412 101 412 101 427 101 c 2,72,-1
 447 101 l 2,73,74
 458 101 458 101 459 113 c 2,75,-1
 459 229 l 1,76,-1
 398 229 l 1,69,-1
257 552 m 1,77,-1
 257 611 l 1,78,-1
 171 611 l 1,79,80
 165 595 165 595 159 581 c 2,81,-1
 145 552 l 1,82,-1
 257 552 l 1,77,-1
EndSplineSet
EndChar

StartChar: cid11647
Encoding: 21073 21073 14
Width: 1024
Flags: W
HStem: -90 132<733.875 840.327> 456 125<246 477>
VStem: 650 127<176 561 584 757> 846 128<46.6429 856>
LayerCount: 2
Fore
SplineSet
974 856 m 1,0,-1
 974 63 l 2,1,2
 974 11 974 11 962.5 -18 c 128,-1,3
 951 -47 951 -47 921.5 -64 c 128,-1,4
 892 -81 892 -81 846 -85.5 c 128,-1,5
 800 -90 800 -90 738 -90 c 1,6,7
 736 -77 736 -77 732 -59.5 c 128,-1,8
 728 -42 728 -42 722.5 -23.5 c 128,-1,9
 717 -5 717 -5 710 12.5 c 128,-1,10
 703 30 703 30 696 44 c 1,11,12
 737 42 737 42 773 42 c 2,13,-1
 823 42 l 2,14,15
 835 42 835 42 840.5 46.5 c 128,-1,16
 846 51 846 51 846 65 c 2,17,-1
 846 856 l 1,18,-1
 974 856 l 1,0,-1
650 176 m 1,19,-1
 650 561 l 1,20,-1
 579 460 l 1,21,22
 567 478 567 478 549.5 499 c 128,-1,23
 532 520 532 520 512 543 c 1,24,-1
 512 456 l 1,25,-1
 179 456 l 1,26,-1
 179 508 l 1,27,28
 128 456 128 456 76 414 c 1,29,30
 72 426 72 426 64.5 445 c 128,-1,31
 57 464 57 464 48 484.5 c 128,-1,32
 39 505 39 505 29 524.5 c 128,-1,33
 19 544 19 544 12 556 c 1,34,35
 52 585 52 585 93 622.5 c 128,-1,36
 134 660 134 660 172.5 703 c 128,-1,37
 211 746 211 746 244.5 793.5 c 128,-1,38
 278 841 278 841 303 889 c 1,39,-1
 425 842 l 1,40,-1
 410 813 l 1,41,42
 442 786 442 786 476 756.5 c 128,-1,43
 510 727 510 727 542 697 c 128,-1,44
 574 667 574 667 602.5 638 c 128,-1,45
 631 609 631 609 650 584 c 1,46,-1
 650 757 l 1,47,-1
 777 757 l 1,48,-1
 777 176 l 1,49,-1
 650 176 l 1,19,-1
477 581 m 1,50,51
 445 614 445 614 411 646.5 c 128,-1,52
 377 679 377 679 344 709 c 1,53,54
 320 676 320 676 296 643.5 c 128,-1,55
 272 611 272 611 246 581 c 1,56,-1
 477 581 l 1,50,51
186 394 m 1,57,58
 197 364 197 364 208.5 332.5 c 128,-1,59
 220 301 220 301 230 269 c 2,60,-1
 249 207 l 2,61,62
 257 176 257 176 262 152 c 1,63,-1
 142 106 l 1,64,65
 137 132 137 132 129.5 163 c 128,-1,66
 122 194 122 194 112.5 227 c 128,-1,67
 103 260 103 260 93 293 c 128,-1,68
 83 326 83 326 73 355 c 1,69,-1
 186 394 l 1,57,58
621 137 m 1,70,-1
 627 9 l 1,71,-1
 349 -41 l 2,72,73
 281 -53 281 -53 218 -63 c 2,74,-1
 100 -84 l 1,75,-1
 69 63 l 1,76,77
 130 69 130 69 212 81 c 2,78,-1
 383 103 l 1,79,-1
 399 143 l 2,80,81
 407 163 407 163 416 186 c 1,82,-1
 305 158 l 1,83,84
 303 183 303 183 299 214 c 128,-1,85
 295 245 295 245 289 278 c 2,86,-1
 263 406 l 1,87,-1
 379 433 l 1,88,89
 393 381 393 381 405.5 321.5 c 128,-1,90
 418 262 418 262 425 213 c 1,91,92
 444 268 444 268 460 325.5 c 128,-1,93
 476 383 476 383 487 433 c 1,94,-1
 623 406 l 1,95,96
 599 334 599 334 571 259.5 c 128,-1,97
 543 185 543 185 516 122 c 1,98,-1
 621 137 l 1,70,-1
EndSplineSet
EndChar

StartChar: cid12292
Encoding: 21457 21457 15
Width: 1024
Flags: W
HStem: -98 132<859 929.516> 312 144<521 711> 526 142<291 367 579 792 799 976>
VStem: 408 171<668 791.392>
LayerCount: 2
Fore
SplineSet
928 414 m 1,0,1
 898 320 898 320 851.5 246 c 128,-1,2
 805 172 805 172 743 114 c 1,3,4
 859 61 859 61 1011 38 c 1,5,6
 999 26 999 26 986 9 c 128,-1,7
 973 -8 973 -8 960 -26.5 c 128,-1,8
 947 -45 947 -45 936 -64 c 128,-1,9
 925 -83 925 -83 918 -98 c 1,10,11
 738 -63 738 -63 611 16 c 1,12,13
 546 -22 546 -22 473.5 -50 c 128,-1,14
 401 -78 401 -78 319 -98 c 1,15,16
 313 -83 313 -83 304 -65 c 128,-1,17
 295 -47 295 -47 284.5 -29 c 128,-1,18
 274 -11 274 -11 262.5 5.5 c 128,-1,19
 251 22 251 22 241 34 c 1,20,21
 309 47 309 47 370.5 67.5 c 128,-1,22
 432 88 432 88 487 117 c 1,23,24
 463 141 463 141 442.5 167.5 c 128,-1,25
 422 194 422 194 402 223 c 1,26,27
 349 148 349 148 280.5 88 c 128,-1,28
 212 28 212 28 122 -19 c 1,29,30
 115 -7 115 -7 102 10 c 128,-1,31
 89 27 89 27 73.5 43.5 c 128,-1,32
 58 60 58 60 42.5 76 c 128,-1,33
 27 92 27 92 13 102 c 1,34,35
 148 170 148 170 232.5 276.5 c 128,-1,36
 317 383 317 383 367 526 c 1,37,-1
 238 526 l 2,38,39
 201 526 201 526 169 519.5 c 128,-1,40
 137 513 137 513 131 500 c 1,41,42
 128 511 128 511 122 528 c 2,43,-1
 96 601 l 2,44,45
 89 618 89 618 83 632 c 1,46,47
 110 642 110 642 130 676 c 0,48,49
 135 684 135 684 144.5 702 c 128,-1,50
 154 720 154 720 164 744.5 c 128,-1,51
 174 769 174 769 185 798 c 128,-1,52
 196 827 196 827 204 858 c 1,53,-1
 359 835 l 1,54,55
 347 793 347 793 329 750 c 128,-1,56
 311 707 311 707 291 668 c 1,57,-1
 408 668 l 1,58,59
 419 720 419 720 427.5 773 c 128,-1,60
 436 826 436 826 443 885 c 1,61,-1
 610 857 l 1,62,63
 604 807 604 807 596.5 760.5 c 128,-1,64
 589 714 589 714 579 668 c 1,65,-1
 792 668 l 1,66,67
 783 681 783 681 769.5 699 c 128,-1,68
 756 717 756 717 740 736 c 2,69,-1
 681 810 l 1,70,-1
 797 879 l 1,71,72
 810 864 810 864 827 845 c 2,73,-1
 860 808 l 2,74,75
 876 790 876 790 890.5 772.5 c 128,-1,76
 905 755 905 755 915 741 c 1,77,-1
 799 668 l 1,78,-1
 977 668 l 1,79,-1
 976 526 l 1,80,-1
 544 526 l 1,81,82
 539 508 539 508 534 490 c 2,83,-1
 521 456 l 1,84,-1
 796 456 l 1,85,-1
 823 462 l 1,86,-1
 928 414 l 1,0,1
504 312 m 1,87,88
 548 245 548 245 609 197 c 1,89,90
 668 247 668 247 711 312 c 1,91,-1
 504 312 l 1,87,88
EndSplineSet
EndChar

StartChar: cid12351
Encoding: 21495 21495 16
Width: 1024
Flags: W
HStem: -92 134<469.376 655.959> 143 135<381 684> 333 134<48 230 398 971> 515 128<317 696> 715 129<317 696>
VStem: 169 148<643 715>
LayerCount: 2
Fore
SplineSet
398 333 m 1,0,-1
 381 278 l 1,1,-1
 862 278 l 1,2,3
 862 267 862 267 861 255 c 2,4,-1
 859 236 l 2,5,6
 857 225 857 225 855 217 c 0,7,8
 842 103 842 103 823.5 42 c 128,-1,9
 805 -19 805 -19 777 -46 c 0,10,11
 750 -71 750 -71 720.5 -80 c 128,-1,12
 691 -89 691 -89 651 -91 c 0,13,14
 619 -93 619 -93 571.5 -93.5 c 128,-1,15
 524 -94 524 -94 472 -92 c 1,16,17
 471 -76 471 -76 466.5 -57.5 c 128,-1,18
 462 -39 462 -39 455.5 -20.5 c 128,-1,19
 449 -2 449 -2 439.5 16 c 128,-1,20
 430 34 430 34 420 49 c 1,21,22
 445 47 445 47 471 46 c 2,23,-1
 521 43 l 2,24,25
 545 42 545 42 564 42 c 2,26,-1
 596 42 l 2,27,28
 612 42 612 42 623.5 43.5 c 128,-1,29
 635 45 635 45 646 52 c 0,30,31
 669 70 669 70 684 143 c 1,32,-1
 164 143 l 1,33,34
 179 181 179 181 196.5 231 c 128,-1,35
 214 281 214 281 230 333 c 1,36,-1
 48 333 l 1,37,-1
 48 467 l 1,38,-1
 971 467 l 1,39,-1
 971 333 l 1,40,-1
 398 333 l 1,0,-1
855 515 m 1,41,-1
 169 515 l 1,42,-1
 169 844 l 1,43,-1
 855 844 l 1,44,-1
 855 515 l 1,41,-1
696 715 m 1,45,-1
 317 715 l 1,46,-1
 317 643 l 1,47,-1
 696 643 l 1,48,-1
 696 715 l 1,45,-1
EndSplineSet
EndChar

StartChar: cid12376
Encoding: 21514 21514 17
Width: 1024
Flags: W
HStem: -23 137<692.965 780.842> 245 141<246 435 593 786> 472 139<325 435 593 697> 701 140<325 697>
VStem: 97 149<-26 245> 169 156<611 701> 435 158<-97 245 386 472> 697 166<611 701> 786 153<116.095 245>
LayerCount: 2
Fore
SplineSet
939 125 m 2,0,1
 939 75 939 75 926.5 45 c 128,-1,2
 914 15 914 15 878.5 -0.5 c 128,-1,3
 843 -16 843 -16 798.5 -19.5 c 128,-1,4
 754 -23 754 -23 697 -23 c 1,5,6
 692 9 692 9 680 47.5 c 128,-1,7
 668 86 668 86 653 115 c 1,8,9
 667 114 667 114 685 114 c 2,10,-1
 765 113 l 2,11,12
 776 113 776 113 781 116 c 128,-1,13
 786 119 786 119 786 128 c 2,14,-1
 786 245 l 1,15,-1
 593 245 l 1,16,-1
 593 -97 l 1,17,-1
 435 -97 l 1,18,-1
 435 245 l 1,19,-1
 246 245 l 1,20,-1
 246 -26 l 1,21,-1
 97 -26 l 1,22,-1
 97 386 l 1,23,-1
 435 386 l 1,24,-1
 435 472 l 1,25,-1
 169 472 l 1,26,-1
 169 841 l 1,27,-1
 863 841 l 1,28,-1
 863 472 l 1,29,-1
 593 472 l 1,30,-1
 593 386 l 1,31,-1
 939 386 l 1,32,-1
 939 125 l 2,0,1
325 611 m 1,33,-1
 697 611 l 1,34,-1
 697 701 l 1,35,-1
 325 701 l 1,36,-1
 325 611 l 1,33,-1
EndSplineSet
EndChar

StartChar: cid12393
Encoding: 21525 21525 18
Width: 1024
Flags: W
HStem: -66 141<273 748> 214 140<273 748> 447 138<339 693> 693 136<339 693>
VStem: 120 153<-96 -66 75 214> 191 148<585 693> 693 158<585 693> 748 161<-96 -66 75 214>
LayerCount: 2
Fore
SplineSet
909 354 m 1,0,-1
 909 -96 l 1,1,-1
 748 -96 l 1,2,-1
 748 -66 l 1,3,-1
 273 -66 l 1,4,-1
 273 -96 l 1,5,-1
 120 -96 l 1,6,-1
 120 354 l 1,7,-1
 909 354 l 1,0,-1
748 75 m 1,8,-1
 748 214 l 1,9,-1
 273 214 l 1,10,-1
 273 75 l 1,11,-1
 748 75 l 1,8,-1
851 447 m 1,12,-1
 191 447 l 1,13,-1
 191 829 l 1,14,-1
 851 829 l 1,15,-1
 851 447 l 1,12,-1
693 693 m 1,16,-1
 339 693 l 1,17,-1
 339 585 l 1,18,-1
 693 585 l 1,19,-1
 693 693 l 1,16,-1
EndSplineSet
EndChar

StartChar: cid12527
Encoding: 21608 21608 19
Width: 1024
Flags: W
HStem: -96 135<720 786.036> 20 111<458 583> 196 110<458 583> 349 116<294 450 590 751> 509 112<313 450 590 733> 689 137<265 787>
VStem: 118 147<183.183 689> 324 134<-35 20 131 196> 450 140<465 509 621 677> 583 137<131 196> 787 150<39.0527 689>
LayerCount: 2
Fore
SplineSet
937 60 m 2,0,1
 937 6 937 6 924 -24 c 128,-1,2
 911 -54 911 -54 878.5 -71.5 c 128,-1,3
 846 -89 846 -89 799.5 -92.5 c 128,-1,4
 753 -96 753 -96 687 -96 c 1,5,6
 684 -72 684 -72 674 -39 c 128,-1,7
 664 -6 664 -6 652 20 c 1,8,-1
 458 20 l 1,9,-1
 458 -35 l 1,10,-1
 324 -35 l 1,11,-1
 324 306 l 1,12,-1
 720 306 l 1,13,-1
 720 39 l 1,14,-1
 764 39 l 2,15,16
 788 39 788 39 787 61 c 2,17,-1
 787 689 l 1,18,-1
 265 689 l 1,19,-1
 265 456 l 2,20,21
 265 393 265 393 260.5 318 c 128,-1,22
 256 243 256 243 242.5 167.5 c 128,-1,23
 229 92 229 92 204 22 c 128,-1,24
 179 -48 179 -48 138 -101 c 1,25,26
 129 -91 129 -91 113.5 -77 c 128,-1,27
 98 -63 98 -63 80.5 -50 c 128,-1,28
 63 -37 63 -37 46.5 -25 c 128,-1,29
 30 -13 30 -13 17 -7 c 1,30,31
 52 40 52 40 72 98 c 128,-1,32
 92 156 92 156 102.5 217.5 c 128,-1,33
 113 279 113 279 115.5 340 c 128,-1,34
 118 401 118 401 118 456 c 2,35,-1
 118 826 l 1,36,-1
 937 826 l 1,37,-1
 937 60 l 2,0,1
583 196 m 1,38,-1
 458 196 l 1,39,-1
 458 131 l 1,40,-1
 583 131 l 1,41,-1
 583 196 l 1,38,-1
450 465 m 1,42,-1
 450 509 l 1,43,-1
 313 509 l 1,44,-1
 313 621 l 1,45,-1
 450 621 l 1,46,-1
 450 677 l 1,47,-1
 590 677 l 1,48,-1
 590 621 l 1,49,-1
 733 621 l 1,50,-1
 733 509 l 1,51,-1
 590 509 l 1,52,-1
 590 465 l 1,53,-1
 751 465 l 1,54,-1
 751 349 l 1,55,-1
 294 349 l 1,56,-1
 294 465 l 1,57,-1
 450 465 l 1,42,-1
EndSplineSet
EndChar

StartChar: cid12648
Encoding: 21688 21688 20
Width: 1024
Flags: W
HStem: 84 113<392 449> 255 112<392 449> 416 119<275 562> 588 142<251 583 727 815 908 981>
VStem: 106 145<157.44 588> 274 118<26 84 197 255> 449 118<197 255> 582 141<376.868 588 730 874>
LayerCount: 2
Fore
SplineSet
562 416 m 1,0,-1
 275 416 l 1,1,-1
 275 535 l 1,2,-1
 562 535 l 1,3,-1
 562 416 l 1,0,-1
950 501 m 1,4,5
 921 396 921 396 881.5 304.5 c 128,-1,6
 842 213 842 213 788 136 c 1,7,8
 802 90 802 90 818.5 65.5 c 128,-1,9
 835 41 835 41 852 41 c 0,10,11
 866 41 866 41 874 81 c 128,-1,12
 882 121 882 121 885 210 c 1,13,14
 908 186 908 186 939.5 164.5 c 128,-1,15
 971 143 971 143 997 133 c 1,16,17
 990 63 990 63 978.5 18 c 128,-1,18
 967 -27 967 -27 948 -52.5 c 128,-1,19
 929 -78 929 -78 902.5 -87.5 c 128,-1,20
 876 -97 876 -97 840 -97 c 0,21,22
 792 -97 792 -97 755.5 -67.5 c 128,-1,23
 719 -38 719 -38 691 17 c 1,24,25
 658 -17 658 -17 622.5 -46 c 128,-1,26
 587 -75 587 -75 548 -100 c 1,27,28
 540 -89 540 -89 526.5 -73.5 c 128,-1,29
 513 -58 513 -58 498 -43 c 2,30,-1
 468 -12 l 1,31,-1
 440 11 l 1,32,33
 496 41 496 41 548 84 c 1,34,-1
 392 84 l 1,35,-1
 392 26 l 1,36,-1
 274 26 l 1,37,-1
 274 367 l 1,38,-1
 567 367 l 1,39,-1
 567 100 l 1,40,41
 605 134 605 134 638 174 c 1,42,43
 618 262 618 262 605.5 367 c 128,-1,44
 593 472 593 472 588 588 c 1,45,-1
 251 588 l 1,46,-1
 251 424 l 2,47,48
 251 366 251 366 246.5 295.5 c 128,-1,49
 242 225 242 225 229 154.5 c 128,-1,50
 216 84 216 84 192.5 17.5 c 128,-1,51
 169 -49 169 -49 131 -100 c 1,52,53
 123 -90 123 -90 108 -76 c 128,-1,54
 93 -62 93 -62 76.5 -48.5 c 128,-1,55
 60 -35 60 -35 44 -22.5 c 128,-1,56
 28 -10 28 -10 16 -4 c 1,57,58
 48 40 48 40 66 94 c 128,-1,59
 84 148 84 148 93 205 c 128,-1,60
 102 262 102 262 104 318.5 c 128,-1,61
 106 375 106 375 106 425 c 2,62,-1
 106 730 l 1,63,-1
 583 730 l 1,64,65
 582 766 582 766 582 803 c 2,66,-1
 582 874 l 1,67,-1
 724 874 l 1,68,-1
 723 803 l 2,69,70
 722 766 722 766 723 730 c 1,71,-1
 815 730 l 1,72,73
 797 748 797 748 776 767 c 128,-1,74
 755 786 755 786 735 803 c 1,75,-1
 830 880 l 1,76,77
 863 856 863 856 899 825.5 c 128,-1,78
 935 795 935 795 955 769 c 1,79,-1
 908 730 l 1,80,-1
 981 730 l 1,81,-1
 981 588 l 1,82,-1
 727 588 l 1,83,84
 729 525 729 525 734 466 c 128,-1,85
 739 407 739 407 746 353 c 1,86,87
 764 394 764 394 779.5 438 c 128,-1,88
 795 482 795 482 806 530 c 1,89,-1
 950 501 l 1,4,5
449 255 m 1,90,-1
 392 255 l 1,91,-1
 392 197 l 1,92,-1
 449 197 l 1,93,-1
 449 255 l 1,90,-1
EndSplineSet
EndChar

StartChar: cid12779
Encoding: 21776 21776 21
Width: 1024
Flags: W
HStem: -98 301<284 433 762 920> -63 107<433 762> 99 104<433 513 654 762> 239 102<295 513 654 757> 378 105<265 513 654 757 898 971> 516 102<304 513 654 757> 663 129<249 498 655.233 971>
VStem: 108 141<188.702 663> 284 149<-95 -63 44 99> 513 141<203 239 341 378 483 516 618 663> 757 141<341 378 483 516> 762 158<-98 -63 44 99>
LayerCount: 2
Fore
SplineSet
654 663 m 1,0,-1
 654 618 l 1,1,-1
 898 618 l 1,2,-1
 898 483 l 1,3,-1
 971 483 l 1,4,-1
 971 378 l 1,5,-1
 898 378 l 1,6,-1
 898 239 l 1,7,-1
 654 239 l 1,8,-1
 654 203 l 1,9,-1
 920 203 l 1,10,-1
 920 -98 l 1,11,-1
 762 -98 l 1,12,-1
 762 -63 l 1,13,-1
 433 -63 l 1,14,-1
 433 -95 l 1,15,-1
 284 -95 l 1,16,-1
 284 203 l 1,17,-1
 513 203 l 1,18,-1
 513 239 l 1,19,-1
 295 239 l 1,20,-1
 295 341 l 1,21,-1
 513 341 l 1,22,-1
 513 378 l 1,23,-1
 265 378 l 1,24,-1
 265 483 l 1,25,-1
 513 483 l 1,26,-1
 513 516 l 1,27,-1
 304 516 l 1,28,-1
 304 618 l 1,29,-1
 513 618 l 1,30,-1
 513 663 l 1,31,-1
 249 663 l 1,32,-1
 249 497 l 2,33,34
 249 432 249 432 245 353 c 128,-1,35
 241 274 241 274 228.5 193.5 c 128,-1,36
 216 113 216 113 194 36 c 128,-1,37
 172 -41 172 -41 136 -101 c 1,38,39
 127 -92 127 -92 111 -80.5 c 128,-1,40
 95 -69 95 -69 78 -57.5 c 128,-1,41
 61 -46 61 -46 44.5 -36 c 128,-1,42
 28 -26 28 -26 15 -20 c 1,43,44
 47 35 47 35 65.5 101 c 128,-1,45
 84 167 84 167 93 235.5 c 128,-1,46
 102 304 102 304 105 371.5 c 128,-1,47
 108 439 108 439 108 497 c 2,48,-1
 108 792 l 1,49,-1
 498 792 l 1,50,51
 493 807 493 807 486 822 c 2,52,-1
 474 852 l 1,53,-1
 623 884 l 1,54,55
 634 864 634 864 644.5 839.5 c 128,-1,56
 655 815 655 815 664 792 c 1,57,-1
 971 792 l 1,58,-1
 971 663 l 1,59,-1
 654 663 l 1,0,-1
762 99 m 1,60,-1
 433 99 l 1,61,-1
 433 44 l 1,62,-1
 762 44 l 1,63,-1
 762 99 l 1,60,-1
757 378 m 1,64,-1
 654 378 l 1,65,-1
 654 341 l 1,66,-1
 757 341 l 1,67,-1
 757 378 l 1,64,-1
654 516 m 1,68,-1
 654 483 l 1,69,-1
 757 483 l 1,70,-1
 757 516 l 1,71,-1
 654 516 l 1,68,-1
EndSplineSet
EndChar

StartChar: cid13634
Encoding: 22269 22269 22
Width: 1024
Flags: W
HStem: -45 137<224 787> 130 120<249 437 574 640 716 766> 343 124<284 437 574 639 703 731> 537 129<258 437 574 752> 702 137<224 787>
VStem: 73 151<-95 -45 92 702> 437 137<250 343 467 537> 787 160<-95 -45 92 702>
LayerCount: 2
Fore
SplineSet
947 839 m 1,0,-1
 947 -95 l 1,1,-1
 787 -95 l 1,2,-1
 787 -45 l 1,3,-1
 224 -45 l 1,4,-1
 224 -95 l 1,5,-1
 73 -95 l 1,6,-1
 73 839 l 1,7,-1
 947 839 l 1,0,-1
787 92 m 1,8,-1
 787 702 l 1,9,-1
 224 702 l 1,10,-1
 224 92 l 1,11,-1
 787 92 l 1,8,-1
766 250 m 1,12,-1
 766 130 l 1,13,-1
 249 130 l 1,14,-1
 249 250 l 1,15,-1
 437 250 l 1,16,-1
 437 343 l 1,17,-1
 284 343 l 1,18,-1
 284 467 l 1,19,-1
 437 467 l 1,20,-1
 437 537 l 1,21,-1
 258 537 l 1,22,-1
 258 666 l 1,23,-1
 752 666 l 1,24,-1
 752 537 l 1,25,-1
 574 537 l 1,26,-1
 574 467 l 1,27,-1
 731 467 l 1,28,-1
 731 343 l 1,29,-1
 703 343 l 1,30,31
 718 325 718 325 733.5 306 c 128,-1,32
 749 287 749 287 757 272 c 1,33,-1
 716 250 l 1,34,-1
 766 250 l 1,12,-1
574 250 m 1,35,-1
 640 250 l 1,36,37
 629 267 629 267 615 285 c 2,38,-1
 590 317 l 1,39,-1
 639 343 l 1,40,-1
 574 343 l 1,41,-1
 574 250 l 1,35,-1
EndSplineSet
EndChar

StartChar: cid13713
Encoding: 22320 22320 23
Width: 1024
Flags: W
HStem: -79 132<578.736 858.254> 503 140<31 143 282 377>
VStem: 143 139<292 503 643 860> 426 141<64.7358 356 570 774> 623 139<147 308 309 442 654 876> 818 140<312.611 528>
LayerCount: 2
Fore
SplineSet
807 53 m 2,0,1
 826 53 826 53 839 57.5 c 128,-1,2
 852 62 852 62 859.5 75.5 c 128,-1,3
 867 89 867 89 872 112 c 128,-1,4
 877 135 877 135 880 172 c 1,5,6
 892 164 892 164 908 155.5 c 128,-1,7
 924 147 924 147 941 140 c 128,-1,8
 958 133 958 133 975.5 127.5 c 128,-1,9
 993 122 993 122 1009 119 c 1,10,11
 1003 64 1003 64 990.5 26 c 128,-1,12
 978 -12 978 -12 956.5 -35 c 128,-1,13
 935 -58 935 -58 901.5 -68.5 c 128,-1,14
 868 -79 868 -79 821 -79 c 2,15,-1
 621 -79 l 2,16,17
 564 -79 564 -79 526 -69.5 c 128,-1,18
 488 -60 488 -60 465.5 -37 c 128,-1,19
 443 -14 443 -14 434.5 24.5 c 128,-1,20
 426 63 426 63 426 123 c 2,21,-1
 426 356 l 1,22,-1
 385 338 l 1,23,-1
 330 469 l 1,24,-1
 426 510 l 1,25,-1
 426 774 l 1,26,-1
 567 774 l 1,27,-1
 567 570 l 1,28,-1
 623 594 l 1,29,-1
 623 876 l 1,30,-1
 762 876 l 1,31,-1
 762 654 l 1,32,-1
 813 676 l 1,33,-1
 812 676 l 1,34,-1
 862 709 l 1,35,-1
 966 672 l 1,36,-1
 961 648 l 1,37,38
 961 500 961 500 958 417 c 2,39,-1
 955 301 l 2,40,41
 953 263 953 263 941 241 c 128,-1,42
 929 219 929 219 905 206.5 c 128,-1,43
 881 194 881 194 849.5 190.5 c 128,-1,44
 818 187 818 187 792 187 c 1,45,-1
 787 217 l 2,46,47
 784 233 784 233 780 249.5 c 128,-1,48
 776 266 776 266 771.5 281.5 c 128,-1,49
 767 297 767 297 762 308 c 1,50,-1
 762 147 l 1,51,-1
 623 147 l 1,52,-1
 623 442 l 1,53,-1
 567 418 l 1,54,-1
 567 123 l 2,55,56
 567 99 567 99 569 85.5 c 128,-1,57
 571 72 571 72 578.5 64.5 c 128,-1,58
 586 57 586 57 599 55 c 128,-1,59
 612 53 612 53 635 53 c 2,60,-1
 807 53 l 2,0,1
762 503 m 1,61,-1
 762 310 l 1,62,63
 772 309 772 309 783 309 c 2,64,-1
 800 309 l 2,65,66
 808 309 808 309 811.5 312.5 c 128,-1,67
 815 316 815 316 817 328 c 0,68,69
 818 337 818 337 818.5 383.5 c 128,-1,70
 819 430 819 430 819 528 c 1,71,-1
 762 503 l 1,61,-1
365 327 m 1,72,-1
 398 196 l 1,73,74
 316 153 316 153 231.5 112 c 128,-1,75
 147 71 147 71 74 37 c 1,76,-1
 14 186 l 1,77,78
 41 195 41 195 74 208 c 2,79,-1
 143 234 l 1,80,-1
 143 503 l 1,81,-1
 31 503 l 1,82,-1
 31 643 l 1,83,-1
 143 643 l 1,84,-1
 143 860 l 1,85,-1
 282 860 l 1,86,-1
 282 643 l 1,87,-1
 377 643 l 1,88,-1
 377 503 l 1,89,-1
 282 503 l 1,90,-1
 282 292 l 1,91,-1
 365 327 l 1,72,-1
EndSplineSet
EndChar

StartChar: cid13762
Encoding: 22352 22352 24
Width: 1024
Flags: W
HStem: -62 142<44 433 587 985> 194 140<120 433 587 904>
VStem: 433 154<80 194 334 443 527 865> 715 148<735.946 806.211>
LayerCount: 2
Fore
SplineSet
587 80 m 1,0,-1
 985 80 l 1,1,-1
 985 -62 l 1,2,-1
 44 -62 l 1,3,-1
 44 80 l 1,4,-1
 433 80 l 1,5,-1
 433 194 l 1,6,-1
 120 194 l 1,7,-1
 120 334 l 1,8,-1
 433 334 l 1,9,-1
 433 498 l 1,10,-1
 343 399 l 1,11,12
 329 424 329 424 305 455.5 c 128,-1,13
 281 487 281 487 254 518 c 1,14,15
 230 472 230 472 201.5 433 c 128,-1,16
 173 394 173 394 140 362 c 1,17,18
 131 372 131 372 116 386.5 c 128,-1,19
 101 401 101 401 85 415.5 c 128,-1,20
 69 430 69 430 52.5 443.5 c 128,-1,21
 36 457 36 457 24 465 c 1,22,23
 96 525 96 525 139 622.5 c 128,-1,24
 182 720 182 720 201 837 c 1,25,-1
 350 813 l 1,26,27
 342 772 342 772 332.5 733 c 128,-1,28
 323 694 323 694 311 657 c 1,29,30
 344 625 344 625 378 589.5 c 128,-1,31
 412 554 412 554 433 524 c 1,32,-1
 433 865 l 1,33,-1
 587 865 l 1,34,-1
 587 527 l 1,35,36
 636 585 636 585 667.5 663 c 128,-1,37
 699 741 699 741 715 830 c 1,38,-1
 863 805 l 1,39,40
 855 762 855 762 843 720.5 c 128,-1,41
 831 679 831 679 817 640 c 1,42,43
 865 597 865 597 914.5 551.5 c 128,-1,44
 964 506 964 506 993 470 c 1,45,-1
 890 360 l 1,46,47
 870 391 870 391 833 430 c 128,-1,48
 796 469 796 469 756 508 c 1,49,50
 734 470 734 470 709 438 c 128,-1,51
 684 406 684 406 656 379 c 1,52,53
 645 391 645 391 626 408.5 c 128,-1,54
 607 426 607 426 587 443 c 1,55,-1
 587 334 l 1,56,-1
 904 334 l 1,57,-1
 904 194 l 1,58,-1
 587 194 l 1,59,-1
 587 80 l 1,0,-1
EndSplineSet
EndChar

StartChar: cid13836
Encoding: 22402 22402 25
Width: 1024
Flags: W
HStem: -77 140<134 440 598 882> 114 138<89 198 351 440 598 681 839 942> 315 142<44 198 351 440 598 681 839 980> 514 138<96 198 351 440 598 681 839 936> 689 128<132.529 437.465> 748 129<762.486 837.945>
VStem: 198 153<252 315 457 514> 440 158<63 114 252 315 457 514 652 697> 681 158<252 315 457 514>
LayerCount: 2
Fore
SplineSet
839 315 m 1,0,-1
 839 252 l 1,1,-1
 942 252 l 1,2,-1
 942 114 l 1,3,-1
 598 114 l 1,4,-1
 598 63 l 1,5,-1
 882 63 l 1,6,-1
 882 -77 l 1,7,-1
 134 -77 l 1,8,-1
 134 63 l 1,9,-1
 440 63 l 1,10,-1
 440 114 l 1,11,-1
 89 114 l 1,12,-1
 89 252 l 1,13,-1
 198 252 l 1,14,-1
 198 315 l 1,15,-1
 44 315 l 1,16,-1
 44 457 l 1,17,-1
 198 457 l 1,18,-1
 198 514 l 1,19,-1
 96 514 l 1,20,-1
 96 652 l 1,21,-1
 440 652 l 1,22,-1
 440 697 l 1,23,24
 362 692 362 692 285.5 690.5 c 128,-1,25
 209 689 209 689 135 689 c 1,26,27
 133 718 133 718 123 755.5 c 128,-1,28
 113 793 113 793 101 817 c 1,29,30
 197 818 197 818 296.5 822.5 c 128,-1,31
 396 827 396 827 491.5 835 c 128,-1,32
 587 843 587 843 674 853 c 128,-1,33
 761 863 761 863 834 877 c 1,34,-1
 905 748 l 1,35,36
 834 735 834 735 757.5 725 c 128,-1,37
 681 715 681 715 598 708 c 1,38,-1
 598 652 l 1,39,-1
 936 652 l 1,40,-1
 936 514 l 1,41,-1
 839 514 l 1,42,-1
 839 457 l 1,43,-1
 980 457 l 1,44,-1
 980 315 l 1,45,-1
 839 315 l 1,0,-1
598 514 m 1,46,-1
 598 457 l 1,47,-1
 681 457 l 1,48,-1
 681 514 l 1,49,-1
 598 514 l 1,46,-1
351 457 m 1,50,-1
 440 457 l 1,51,-1
 440 514 l 1,52,-1
 351 514 l 1,53,-1
 351 457 l 1,50,-1
440 252 m 1,54,-1
 440 315 l 1,55,-1
 351 315 l 1,56,-1
 351 252 l 1,57,-1
 440 252 l 1,54,-1
681 315 m 1,58,-1
 598 315 l 1,59,-1
 598 252 l 1,60,-1
 681 252 l 1,61,-1
 681 315 l 1,58,-1
EndSplineSet
EndChar

StartChar: cid14521
Encoding: 22812 22812 26
Width: 1024
Flags: W
HStem: 438 129<673 787> 643 138<52 252 305 440 608.247 975>
VStem: 171 146<-97 257>
LayerCount: 2
Fore
SplineSet
964 529 m 1,0,1
 934 407 934 407 885 309 c 128,-1,2
 836 211 836 211 769 134 c 1,3,4
 872 68 872 68 1004 35 c 1,5,6
 992 24 992 24 978 7 c 128,-1,7
 964 -10 964 -10 950 -28.5 c 128,-1,8
 936 -47 936 -47 924 -65 c 128,-1,9
 912 -83 912 -83 904 -98 c 1,10,11
 764 -52 764 -52 662 31 c 1,12,13
 610 -11 610 -11 551.5 -43 c 128,-1,14
 493 -75 493 -75 429 -98 c 1,15,16
 423 -85 423 -85 411.5 -67.5 c 128,-1,17
 400 -50 400 -50 387 -32.5 c 128,-1,18
 374 -15 374 -15 360.5 0.5 c 128,-1,19
 347 16 347 16 336 26 c 1,20,21
 460 65 460 65 556 132 c 1,22,23
 529 163 529 163 506 196.5 c 128,-1,24
 483 230 483 230 463 266 c 1,25,26
 452 255 452 255 440 245 c 2,27,-1
 417 225 l 1,28,29
 408 236 408 236 395 250 c 2,30,-1
 370 278 l 2,31,32
 357 291 357 291 343 304 c 128,-1,33
 329 317 329 317 317 327 c 1,34,-1
 317 -97 l 1,35,-1
 171 -97 l 1,36,-1
 171 257 l 1,37,-1
 144 229 l 2,38,39
 131 216 131 216 117 204 c 1,40,41
 109 215 109 215 95 231 c 128,-1,42
 81 247 81 247 66 263 c 2,43,-1
 36 295 l 2,44,45
 21 310 21 310 8 321 c 1,46,47
 82 377 82 377 146.5 462.5 c 128,-1,48
 211 548 211 548 252 643 c 1,49,-1
 52 643 l 1,50,-1
 52 781 l 1,51,-1
 440 781 l 1,52,-1
 427 812 l 2,53,54
 420 826 420 826 413 840 c 1,55,-1
 553 887 l 1,56,-1
 582 836 l 2,57,58
 597 807 597 807 609 781 c 1,59,-1
 975 781 l 1,60,-1
 975 643 l 1,61,-1
 608 643 l 1,62,-1
 696 620 l 1,63,64
 691 607 691 607 685 594 c 2,65,-1
 673 567 l 1,66,-1
 844 567 l 1,67,-1
 868 572 l 1,68,-1
 964 529 l 1,0,1
600 438 m 1,69,70
 589 420 589 420 576.5 402 c 128,-1,71
 564 384 564 384 551 367 c 1,72,73
 595 287 595 287 658 223 c 1,74,75
 699 268 699 268 731.5 321.5 c 128,-1,76
 764 375 764 375 787 438 c 1,77,-1
 600 438 l 1,69,70
317 331 m 1,78,79
 354 359 354 359 388 396 c 128,-1,80
 422 433 422 433 451 474.5 c 128,-1,81
 480 516 480 516 503 559 c 128,-1,82
 526 602 526 602 542 643 c 1,83,-1
 305 643 l 1,84,-1
 403 613 l 1,85,86
 386 571 386 571 364 530 c 128,-1,87
 342 489 342 489 317 450 c 1,88,-1
 317 331 l 1,78,79
655 275 m 1,89,90
 644 294 644 294 619 320 c 128,-1,91
 594 346 594 346 571 367 c 1,92,-1
 658 436 l 1,93,94
 682 419 682 419 707.5 395.5 c 128,-1,95
 733 372 733 372 748 352 c 1,96,-1
 655 275 l 1,89,90
EndSplineSet
EndChar

StartChar: cid14548
Encoding: 22825 22825 27
Width: 1024
Flags: W
HStem: 354 154<63 390 616 958> 659 154<103 424 582 920>
VStem: 424 158<508 659>
LayerCount: 2
Fore
SplineSet
616 354 m 1,0,1
 670 244 670 244 767.5 166.5 c 128,-1,2
 865 89 865 89 1011 53 c 1,3,4
 998 41 998 41 983.5 23.5 c 128,-1,5
 969 6 969 6 955 -13 c 128,-1,6
 941 -32 941 -32 928.5 -51.5 c 128,-1,7
 916 -71 916 -71 908 -86 c 1,8,9
 768 -42 768 -42 674.5 38 c 128,-1,10
 581 118 581 118 516 233 c 1,11,12
 492 185 492 185 458.5 139 c 128,-1,13
 425 93 425 93 377 51.5 c 128,-1,14
 329 10 329 10 265.5 -26 c 128,-1,15
 202 -62 202 -62 120 -90 c 1,16,17
 113 -77 113 -77 101.5 -59 c 128,-1,18
 90 -41 90 -41 76 -23 c 128,-1,19
 62 -5 62 -5 48.5 11.5 c 128,-1,20
 35 28 35 28 23 39 c 1,21,22
 106 66 106 66 167.5 101 c 128,-1,23
 229 136 229 136 272.5 177 c 128,-1,24
 316 218 316 218 344.5 263 c 128,-1,25
 373 308 373 308 390 354 c 1,26,-1
 63 354 l 1,27,-1
 63 508 l 1,28,-1
 422 508 l 1,29,-1
 424 538 l 1,30,-1
 424 565 l 1,31,-1
 424 659 l 1,32,-1
 103 659 l 1,33,-1
 103 813 l 1,34,-1
 920 813 l 1,35,-1
 920 659 l 1,36,-1
 582 659 l 1,37,-1
 582 537 l 1,38,-1
 581 508 l 1,39,-1
 958 508 l 1,40,-1
 958 354 l 1,41,-1
 616 354 l 1,0,1
EndSplineSet
EndChar

StartChar: cid14884
Encoding: 22987 22987 28
Width: 1024
Flags: W
HStem: -57 130<587 804> 1 21G<324.5 344.426> 211 130<587 804> 540 136<34 87 246 262>
VStem: 452 135<-96 -57 73 211> 804 141<-96 -57 73 211>
LayerCount: 2
Fore
SplineSet
452 341 m 1,0,-1
 945 341 l 1,1,-1
 945 -96 l 1,2,-1
 804 -96 l 1,3,-1
 804 -57 l 1,4,-1
 587 -57 l 1,5,-1
 587 -96 l 1,6,-1
 452 -96 l 1,7,-1
 452 341 l 1,0,-1
587 211 m 1,8,-1
 587 73 l 1,9,-1
 804 73 l 1,10,-1
 804 211 l 1,11,-1
 587 211 l 1,8,-1
889 372 m 1,12,13
 879 404 879 404 864 438 c 1,14,15
 744 427 744 427 669.5 419.5 c 128,-1,16
 595 412 595 412 550 406 c 128,-1,17
 505 400 505 400 482.5 395 c 128,-1,18
 460 390 460 390 444 384 c 1,19,-1
 424 450 l 2,20,21
 417 469 417 469 410 488 c 2,22,-1
 395 521 l 1,23,24
 413 526 413 526 428 542 c 128,-1,25
 443 558 443 558 461 585 c 0,26,27
 469 598 469 598 485 627 c 128,-1,28
 501 656 501 656 519.5 695 c 128,-1,29
 538 734 538 734 556 780.5 c 128,-1,30
 574 827 574 827 589 874 c 1,31,-1
 744 835 l 1,32,33
 715 761 715 761 678.5 688.5 c 128,-1,34
 642 616 642 616 603 554 c 1,35,-1
 800 567 l 1,36,37
 783 596 783 596 765.5 623 c 128,-1,38
 748 650 748 650 730 674 c 1,39,-1
 849 733 l 1,40,41
 876 699 876 699 901 661 c 128,-1,42
 926 623 926 623 948.5 584.5 c 128,-1,43
 971 546 971 546 988.5 509 c 128,-1,44
 1006 472 1006 472 1017 440 c 1,45,-1
 889 372 l 1,12,13
403 668 m 1,46,47
 398 531 398 531 382.5 420 c 128,-1,48
 367 309 367 309 337 219 c 1,49,50
 362 192 362 192 382.5 168 c 128,-1,51
 403 144 403 144 418 123 c 1,52,-1
 330 1 l 1,53,54
 319 18 319 18 305 37 c 128,-1,55
 291 56 291 56 273 77 c 1,56,57
 241 23 241 23 201 -19.5 c 128,-1,58
 161 -62 161 -62 110 -96 c 1,59,60
 103 -83 103 -83 92.5 -66.5 c 128,-1,61
 82 -50 82 -50 70 -34 c 128,-1,62
 58 -18 58 -18 46 -3.5 c 128,-1,63
 34 11 34 11 24 22 c 1,64,65
 72 49 72 49 108.5 90 c 128,-1,66
 145 131 145 131 174 186 c 1,67,68
 139 222 139 222 104.5 255 c 128,-1,69
 70 288 70 288 37 317 c 1,70,71
 50 363 50 363 63 420 c 128,-1,72
 76 477 76 477 87 540 c 1,73,-1
 34 540 l 1,74,-1
 34 676 l 1,75,-1
 110 676 l 1,76,77
 117 725 117 725 122 773.5 c 128,-1,78
 127 822 127 822 130 868 c 1,79,-1
 270 860 l 1,80,-1
 260 769 l 2,81,82
 254 723 254 723 246 676 c 1,83,-1
 294 676 l 1,84,-1
 318 678 l 1,85,-1
 403 668 l 1,46,47
222 540 m 1,86,87
 214 493 214 493 204.5 448.5 c 128,-1,88
 195 404 195 404 184 362 c 1,89,90
 195 353 195 353 206 344 c 2,91,-1
 225 326 l 1,92,93
 251 422 251 422 262 540 c 1,94,-1
 222 540 l 1,86,87
EndSplineSet
EndChar

StartChar: cid14925
Encoding: 23004 23004 29
Width: 1024
Flags: W
HStem: -98 129<94.9425 312.647> 200 121<42 244 506 615 775.449 983> 368 116<51 357 431 434 582 974> 513 111<135 434 582 883> 654 117<86 270 393 434 582 611.846 761 935>
LayerCount: 2
Fore
SplineSet
847 -99 m 1,0,1
 795 -77 795 -77 725.5 -53.5 c 128,-1,2
 656 -30 656 -30 574 -5 c 1,3,4
 485 -47 485 -47 369 -67 c 128,-1,5
 253 -87 253 -87 101 -98 c 1,6,7
 93 -65 93 -65 77.5 -29.5 c 128,-1,8
 62 6 62 6 46 31 c 1,9,10
 135 34 135 34 210.5 40 c 128,-1,11
 286 46 286 46 349 58 c 1,12,13
 303 70 303 70 256 82 c 2,14,-1
 160 103 l 1,15,16
 201 146 201 146 244 200 c 1,17,-1
 42 200 l 1,18,-1
 42 321 l 1,19,-1
 330 321 l 1,20,21
 338 333 338 333 345 345 c 2,22,-1
 357 368 l 1,23,-1
 51 368 l 1,24,-1
 51 484 l 1,25,-1
 434 484 l 1,26,-1
 434 513 l 1,27,-1
 135 513 l 1,28,-1
 135 624 l 1,29,-1
 434 624 l 1,30,-1
 434 654 l 1,31,-1
 86 654 l 1,32,-1
 86 771 l 1,33,-1
 270 771 l 1,34,35
 262 788 262 788 252 806.5 c 128,-1,36
 242 825 242 825 230 842 c 1,37,-1
 359 889 l 1,38,39
 378 865 378 865 396.5 835.5 c 128,-1,40
 415 806 415 806 423 782 c 1,41,-1
 393 771 l 1,42,-1
 596 771 l 1,43,44
 614 796 614 796 632.5 824 c 128,-1,45
 651 852 651 852 663 877 c 1,46,-1
 811 837 l 1,47,-1
 785 803 l 2,48,49
 773 787 773 787 761 771 c 1,50,-1
 935 771 l 1,51,-1
 935 654 l 1,52,-1
 582 654 l 1,53,-1
 582 624 l 1,54,-1
 883 624 l 1,55,-1
 883 513 l 1,56,-1
 582 513 l 1,57,-1
 582 484 l 1,58,-1
 974 484 l 1,59,-1
 974 368 l 1,60,-1
 431 368 l 1,61,-1
 520 345 l 1,62,-1
 514 333 l 1,63,-1
 506 321 l 1,64,-1
 983 321 l 1,65,-1
 983 200 l 1,66,-1
 788 200 l 1,67,68
 755 141 755 141 717 98 c 1,69,70
 799 74 799 74 871 53 c 128,-1,71
 943 32 943 32 1000 12 c 1,72,-1
 847 -99 l 1,0,1
406 177 m 1,73,74
 444 169 444 169 481 160 c 2,75,-1
 556 141 l 1,76,77
 589 165 589 165 615 200 c 1,78,-1
 423 200 l 1,79,-1
 406 177 l 1,73,74
EndSplineSet
EndChar

StartChar: cid15798
Encoding: 23383 23383 30
Width: 1024
Flags: W
HStem: -95 151<296.515 423.81> 186 142<60 430 590 965> 441 139<241 526> 535 249<61 208 806 961> 644 140<208 434 600.808 806>
VStem: 61 147<535 644> 430 160<57.6115 186 328 346.598> 806 155<535 644>
LayerCount: 2
Fore
SplineSet
965 186 m 1,0,-1
 590 186 l 1,1,-1
 590 68 l 2,2,3
 590 11 590 11 574 -21 c 128,-1,4
 558 -53 558 -53 514.5 -70.5 c 128,-1,5
 471 -88 471 -88 418.5 -91.5 c 128,-1,6
 366 -95 366 -95 302 -95 c 1,7,8
 299 -79 299 -79 292 -58.5 c 128,-1,9
 285 -38 285 -38 276 -17 c 128,-1,10
 267 4 267 4 257.5 23 c 128,-1,11
 248 42 248 42 239 57 c 1,12,13
 261 56 261 56 286 56 c 2,14,-1
 335 55 l 1,15,-1
 402 54 l 2,16,17
 418 54 418 54 424 57.5 c 128,-1,18
 430 61 430 61 430 73 c 2,19,-1
 430 186 l 1,20,-1
 60 186 l 1,21,-1
 60 328 l 1,22,-1
 430 328 l 1,23,-1
 430 377 l 1,24,25
 455 390 455 390 479 406.5 c 128,-1,26
 503 423 503 423 526 441 c 1,27,-1
 241 441 l 1,28,-1
 241 580 l 1,29,-1
 675 580 l 1,30,-1
 710 587 l 1,31,-1
 809 509 l 1,32,33
 764 463 764 463 709 417.5 c 128,-1,34
 654 372 654 372 590 333 c 1,35,-1
 590 328 l 1,36,-1
 965 328 l 1,37,-1
 965 186 l 1,0,-1
208 535 m 1,38,-1
 61 535 l 1,39,-1
 61 784 l 1,40,-1
 434 784 l 1,41,42
 420 814 420 814 402 840 c 1,43,-1
 553 884 l 1,44,45
 570 862 570 862 585.5 835 c 128,-1,46
 601 808 601 808 611 784 c 1,47,-1
 961 784 l 1,48,-1
 961 535 l 1,49,-1
 806 535 l 1,50,-1
 806 644 l 1,51,-1
 208 644 l 1,52,-1
 208 535 l 1,38,-1
EndSplineSet
EndChar

StartChar: cid15897
Encoding: 23431 23431 31
Width: 1024
Flags: W
HStem: -92 148<300.515 433.81> 210 141<62 440 600 962> 443 139<224 440 600 787> 529 250<54 201 810 965> 643 136<201 429 591.448 810>
VStem: 54 147<529 643> 440 160<59.1274 210 351 443> 810 155<529 643>
LayerCount: 2
Fore
SplineSet
965 779 m 1,0,-1
 965 529 l 1,1,-1
 810 529 l 1,2,-1
 810 643 l 1,3,-1
 201 643 l 1,4,-1
 201 529 l 1,5,-1
 54 529 l 1,6,-1
 54 779 l 1,7,-1
 429 779 l 1,8,9
 424 793 424 793 418 807 c 128,-1,10
 412 821 412 821 407 835 c 1,11,-1
 557 877 l 1,12,13
 581 831 581 831 600 779 c 1,14,-1
 965 779 l 1,0,-1
600 351 m 1,15,-1
 962 351 l 1,16,-1
 962 210 l 1,17,-1
 600 210 l 1,18,-1
 600 73 l 2,19,20
 600 14 600 14 583.5 -18 c 128,-1,21
 567 -50 567 -50 524.5 -67 c 128,-1,22
 482 -84 482 -84 428 -88 c 128,-1,23
 374 -92 374 -92 306 -92 c 1,24,25
 303 -76 303 -76 296 -56 c 128,-1,26
 289 -36 289 -36 280 -15.5 c 128,-1,27
 271 5 271 5 261.5 24 c 128,-1,28
 252 43 252 43 243 57 c 1,29,30
 266 56 266 56 292 56 c 2,31,-1
 341 55 l 1,32,-1
 411 54 l 2,33,34
 428 55 428 55 434 59 c 128,-1,35
 440 63 440 63 440 77 c 2,36,-1
 440 210 l 1,37,-1
 62 210 l 1,38,-1
 62 351 l 1,39,-1
 440 351 l 1,40,-1
 440 443 l 1,41,-1
 224 443 l 1,42,-1
 224 582 l 1,43,-1
 787 582 l 1,44,-1
 787 443 l 1,45,-1
 600 443 l 1,46,-1
 600 351 l 1,15,-1
EndSplineSet
EndChar

StartChar: cid15933
Encoding: 23448 23448 32
Width: 1024
Flags: W
HStem: -57 129<334 719> 133 129<334 719> 310 126<334 686> 488 126<334 686> 589 211<53 181 836 968> 660 140<204 445 605.857 809>
VStem: 181 153<-95 -57 72 133 262 310 436 488> 719 153<-91 -57 72 133>
LayerCount: 2
Fore
SplineSet
334 310 m 1,0,-1
 334 262 l 1,1,-1
 872 262 l 1,2,-1
 872 -91 l 1,3,-1
 719 -91 l 1,4,-1
 719 -57 l 1,5,-1
 334 -57 l 1,6,-1
 334 -95 l 1,7,-1
 181 -95 l 1,8,-1
 181 589 l 1,9,-1
 53 589 l 1,10,-1
 53 800 l 1,11,-1
 445 800 l 1,12,13
 441 813 441 813 436 826.5 c 128,-1,14
 431 840 431 840 426 851 c 1,15,-1
 578 885 l 1,16,17
 588 866 588 866 597.5 843 c 128,-1,18
 607 820 607 820 614 800 c 1,19,-1
 968 800 l 1,20,-1
 968 589 l 1,21,-1
 836 589 l 1,22,-1
 836 310 l 1,23,-1
 334 310 l 1,0,-1
686 488 m 1,24,-1
 334 488 l 1,25,-1
 334 436 l 1,26,-1
 686 436 l 1,27,-1
 686 488 l 1,24,-1
204 660 m 1,28,-1
 204 614 l 1,29,-1
 809 614 l 1,30,-1
 809 660 l 1,31,-1
 204 660 l 1,28,-1
334 133 m 1,32,-1
 334 72 l 1,33,-1
 719 72 l 1,34,-1
 719 133 l 1,35,-1
 334 133 l 1,32,-1
EndSplineSet
EndChar

StartChar: cid15935
Encoding: 23449 23449 33
Width: 1024
Flags: W
HStem: -62 136<289 435 584 736> 150 124<289 435 584 736> 344 136<289 435 584 736> 506 267<75 221 797 951> 637 136<221 430 604.206 797>
VStem: 75 146<506 637> 143 146<-96 -62 74 150 274 344> 435 149<74 150 274 344 480 600> 736 153<-96 -62 74 150 274 344> 797 154<506 637>
LayerCount: 2
Fore
SplineSet
951 773 m 1,0,-1
 951 506 l 1,1,-1
 797 506 l 1,2,-1
 797 637 l 1,3,-1
 221 637 l 1,4,-1
 221 506 l 1,5,-1
 75 506 l 1,6,-1
 75 773 l 1,7,-1
 430 773 l 1,8,9
 424 791 424 791 417.5 809 c 128,-1,10
 411 827 411 827 402 844 c 1,11,-1
 561 889 l 1,12,13
 575 862 575 862 589 831.5 c 128,-1,14
 603 801 603 801 612 773 c 1,15,-1
 951 773 l 1,0,-1
584 480 m 1,16,-1
 889 480 l 1,17,-1
 889 -96 l 1,18,-1
 736 -96 l 1,19,-1
 736 -62 l 1,20,-1
 289 -62 l 1,21,-1
 289 -96 l 1,22,-1
 143 -96 l 1,23,-1
 143 480 l 1,24,-1
 435 480 l 1,25,-1
 435 600 l 1,26,-1
 584 600 l 1,27,-1
 584 480 l 1,16,-1
289 344 m 1,28,-1
 289 274 l 1,29,-1
 435 274 l 1,30,-1
 435 344 l 1,31,-1
 289 344 l 1,28,-1
289 74 m 1,32,-1
 435 74 l 1,33,-1
 435 150 l 1,34,-1
 289 150 l 1,35,-1
 289 74 l 1,32,-1
736 74 m 1,36,-1
 736 150 l 1,37,-1
 584 150 l 1,38,-1
 584 74 l 1,39,-1
 736 74 l 1,36,-1
584 344 m 1,40,-1
 584 274 l 1,41,-1
 736 274 l 1,42,-1
 736 344 l 1,43,-1
 584 344 l 1,40,-1
EndSplineSet
EndChar

StartChar: cid16047
Encoding: 23506 23506 34
Width: 1024
Flags: W
HStem: 264 115<60 243 449 579 786 969> 408 97<175 300 449 579 730 853> 537 101<210 300 449 579 730 807> 592 220<65 164 865 959> 691 121<210 431 596.936 807>
VStem: 300 149<379 408 505 537 638 677> 579 151<379 408 505 537 638 677>
LayerCount: 2
Fore
SplineSet
786 264 m 1,0,1
 832 230 832 230 887.5 201.5 c 128,-1,2
 943 173 943 173 999 154 c 1,3,4
 987 144 987 144 973 129 c 128,-1,5
 959 114 959 114 946 98 c 128,-1,6
 933 82 933 82 920.5 65.5 c 128,-1,7
 908 49 908 49 900 36 c 1,8,9
 817 72 817 72 740 133 c 128,-1,10
 663 194 663 194 605 264 c 1,11,-1
 422 264 l 1,12,13
 366 188 366 188 285 126.5 c 128,-1,14
 204 65 204 65 114 28 c 1,15,16
 106 40 106 40 94 56 c 128,-1,17
 82 72 82 72 68.5 87.5 c 128,-1,18
 55 103 55 103 42 118 c 128,-1,19
 29 133 29 133 16 143 c 1,20,21
 77 163 77 163 136.5 194.5 c 128,-1,22
 196 226 196 226 243 264 c 1,23,-1
 60 264 l 1,24,-1
 60 379 l 1,25,-1
 300 379 l 1,26,-1
 300 408 l 1,27,-1
 175 408 l 1,28,-1
 175 505 l 1,29,-1
 300 505 l 1,30,-1
 300 537 l 1,31,-1
 164 537 l 1,32,-1
 164 592 l 1,33,-1
 65 592 l 1,34,-1
 65 812 l 1,35,-1
 431 812 l 1,36,-1
 423 834 l 1,37,-1
 415 852 l 1,38,-1
 568 893 l 1,39,40
 578 875 578 875 588 854 c 128,-1,41
 598 833 598 833 606 812 c 1,42,-1
 959 812 l 1,43,-1
 959 592 l 1,44,-1
 865 592 l 1,45,-1
 865 537 l 1,46,-1
 730 537 l 1,47,-1
 730 505 l 1,48,-1
 853 505 l 1,49,-1
 853 408 l 1,50,-1
 730 408 l 1,51,-1
 730 379 l 1,52,-1
 969 379 l 1,53,-1
 969 264 l 1,54,-1
 786 264 l 1,0,1
300 638 m 1,55,-1
 300 677 l 1,56,-1
 449 677 l 1,57,-1
 449 638 l 1,58,-1
 579 638 l 1,59,-1
 579 677 l 1,60,-1
 730 677 l 1,61,-1
 730 638 l 1,62,-1
 807 638 l 1,63,-1
 807 691 l 1,64,-1
 210 691 l 1,65,-1
 210 638 l 1,66,-1
 300 638 l 1,55,-1
449 505 m 1,67,-1
 579 505 l 1,68,-1
 579 537 l 1,69,-1
 449 537 l 1,70,-1
 449 505 l 1,67,-1
449 379 m 1,71,-1
 579 379 l 1,72,-1
 579 408 l 1,73,-1
 449 408 l 1,74,-1
 449 379 l 1,71,-1
432 249 m 1,75,76
 460 245 460 245 492.5 237.5 c 128,-1,77
 525 230 525 230 557 221.5 c 128,-1,78
 589 213 589 213 617.5 203.5 c 128,-1,79
 646 194 646 194 668 184 c 1,80,-1
 603 85 l 1,81,82
 584 94 584 94 556 105 c 128,-1,83
 528 116 528 116 497 125.5 c 128,-1,84
 466 135 466 135 433 144 c 128,-1,85
 400 153 400 153 372 159 c 1,86,-1
 432 249 l 1,75,76
309 105 m 1,87,88
 367 101 367 101 431 92.5 c 128,-1,89
 495 84 495 84 556 72 c 128,-1,90
 617 60 617 60 673.5 46.5 c 128,-1,91
 730 33 730 33 776 18 c 1,92,-1
 713 -100 l 1,93,94
 670 -85 670 -85 613.5 -69.5 c 128,-1,95
 557 -54 557 -54 494.5 -41.5 c 128,-1,96
 432 -29 432 -29 368 -19 c 128,-1,97
 304 -9 304 -9 245 -3 c 1,98,-1
 309 105 l 1,87,88
EndSplineSet
EndChar

StartChar: cid16360
Encoding: 23681 23681 35
Width: 1024
Flags: W
HStem: 338 129<481 686> 556 274<113 267 758 920> 556 130<267 355 593 758>
VStem: 113 154<686 830> 439 154<686 876> 758 162<686 830>
LayerCount: 2
Fore
SplineSet
920 556 m 1,0,-1
 440 556 l 1,1,-1
 527 526 l 1,2,-1
 505 497 l 2,3,4
 494 482 494 482 481 467 c 1,5,-1
 772 467 l 1,6,-1
 799 472 l 1,7,-1
 904 410 l 1,8,9
 856 299 856 299 780.5 214 c 128,-1,10
 705 129 705 129 608.5 67.5 c 128,-1,11
 512 6 512 6 399.5 -35 c 128,-1,12
 287 -76 287 -76 164 -99 c 1,13,14
 158 -85 158 -85 147.5 -65.5 c 128,-1,15
 137 -46 137 -46 125 -26.5 c 128,-1,16
 113 -7 113 -7 99.5 10.5 c 128,-1,17
 86 28 86 28 75 40 c 1,18,19
 160 52 160 52 237.5 71.5 c 128,-1,20
 315 91 315 91 385 119 c 1,21,22
 356 149 356 149 323 179 c 128,-1,23
 290 209 290 209 260 234 c 1,24,-1
 374 306 l 1,25,26
 408 279 408 279 446 247 c 128,-1,27
 484 215 484 215 517 184 c 1,28,29
 569 216 569 216 611 254 c 128,-1,30
 653 292 653 292 686 338 c 1,31,-1
 346 338 l 1,32,33
 303 305 303 305 257.5 276.5 c 128,-1,34
 212 248 212 248 164 226 c 1,35,36
 156 239 156 239 143.5 255.5 c 128,-1,37
 131 272 131 272 117.5 288.5 c 128,-1,38
 104 305 104 305 91 320 c 128,-1,39
 78 335 78 335 67 346 c 1,40,41
 111 362 111 362 153.5 386 c 128,-1,42
 196 410 196 410 233 437.5 c 128,-1,43
 270 465 270 465 301.5 495 c 128,-1,44
 333 525 333 525 355 556 c 1,45,-1
 113 556 l 1,46,-1
 113 830 l 1,47,-1
 267 830 l 1,48,-1
 267 686 l 1,49,-1
 439 686 l 1,50,-1
 439 876 l 1,51,-1
 593 876 l 1,52,-1
 593 686 l 1,53,-1
 758 686 l 1,54,-1
 758 830 l 1,55,-1
 920 830 l 1,56,-1
 920 556 l 1,0,-1
EndSplineSet
EndChar

StartChar: cid17069
Encoding: 24040 24040 36
Width: 1024
Flags: W
HStem: -54 142<266 961> 187 141<266 708> 433 140<266 708> 676 142<266 939>
VStem: 111 155<88 187 328 433 573 676> 708 155<328 433>
LayerCount: 2
Fore
SplineSet
961 88 m 1,0,-1
 961 -54 l 1,1,-1
 111 -54 l 1,2,-1
 111 818 l 1,3,-1
 939 818 l 1,4,-1
 939 676 l 1,5,-1
 266 676 l 1,6,-1
 266 573 l 1,7,-1
 863 573 l 1,8,-1
 863 187 l 1,9,-1
 266 187 l 1,10,-1
 266 88 l 1,11,-1
 961 88 l 1,0,-1
266 433 m 1,12,-1
 266 328 l 1,13,-1
 708 328 l 1,14,-1
 708 433 l 1,15,-1
 266 433 l 1,12,-1
EndSplineSet
EndChar

StartChar: cid17111
Encoding: 24072 24072 37
Width: 1024
Flags: W
HStem: 493 132<547 614 754 828> 697 134<391 614 754 982>
VStem: 61 133<253 756> 234 137<226.102 871> 413 134<53 493> 614 140<-94 493 625 697> 828 138<178.791 493>
LayerCount: 2
Fore
SplineSet
754 697 m 1,0,-1
 754 625 l 1,1,-1
 966 625 l 1,2,-1
 966 188 l 2,3,4
 966 145 966 145 957.5 118.5 c 128,-1,5
 949 92 949 92 923.5 75.5 c 128,-1,6
 898 59 898 59 868 55.5 c 128,-1,7
 838 52 838 52 799 52 c 1,8,9
 796 81 796 81 784.5 117.5 c 128,-1,10
 773 154 773 154 761 179 c 1,11,12
 777 178 777 178 794 178 c 2,13,-1
 816 178 l 2,14,15
 828 178 828 178 828 191 c 2,16,-1
 828 493 l 1,17,-1
 754 493 l 1,18,-1
 754 -94 l 1,19,-1
 614 -94 l 1,20,-1
 614 493 l 1,21,-1
 547 493 l 1,22,-1
 547 53 l 1,23,-1
 413 53 l 1,24,-1
 413 625 l 1,25,-1
 614 625 l 1,26,-1
 614 697 l 1,27,-1
 391 697 l 1,28,-1
 391 831 l 1,29,-1
 982 831 l 1,30,-1
 982 697 l 1,31,-1
 754 697 l 1,0,-1
234 871 m 1,32,-1
 371 871 l 1,33,-1
 371 466 l 2,34,35
 371 388 371 388 365 311 c 128,-1,36
 359 234 359 234 340.5 162 c 128,-1,37
 322 90 322 90 285.5 24.5 c 128,-1,38
 249 -41 249 -41 187 -94 c 1,39,40
 178 -83 178 -83 164.5 -69 c 128,-1,41
 151 -55 151 -55 135.5 -41.5 c 128,-1,42
 120 -28 120 -28 104 -16 c 128,-1,43
 88 -4 88 -4 76 4 c 1,44,45
 129 49 129 49 161 102.5 c 128,-1,46
 193 156 193 156 209 215 c 128,-1,47
 225 274 225 274 229.5 337.5 c 128,-1,48
 234 401 234 401 234 467 c 2,49,-1
 234 871 l 1,32,-1
194 253 m 1,50,-1
 61 253 l 1,51,-1
 61 756 l 1,52,-1
 194 756 l 1,53,-1
 194 253 l 1,50,-1
EndSplineSet
EndChar

StartChar: cid17143
Encoding: 24093 24093 38
Width: 1024
Flags: W
HStem: -30 135<638.305 712.358> 214 129<314 434 585 717> 315 250<60 171 863 964> 433 132<207 271 374 615.993 766 809> 651 131<103 284 402 432 591.336 641 762 920>
VStem: 60 147<343 433> 171 143<-17 214> 434 151<-94 214 343 413> 717 146<108.579 214> 809 155<343 433>
LayerCount: 2
Fore
SplineSet
964 315 m 1,0,-1
 863 315 l 1,1,-1
 863 116 l 2,2,3
 863 68 863 68 852 38.5 c 128,-1,4
 841 9 841 9 808 -7.5 c 128,-1,5
 775 -24 775 -24 734.5 -27 c 128,-1,6
 694 -30 694 -30 642 -30 c 1,7,8
 638 1 638 1 626 39.5 c 128,-1,9
 614 78 614 78 601 106 c 1,10,11
 614 105 614 105 630 105 c 2,12,-1
 698 105 l 2,13,14
 708 106 708 106 712.5 108.5 c 128,-1,15
 717 111 717 111 717 119 c 2,16,-1
 717 214 l 1,17,-1
 585 214 l 1,18,-1
 585 -94 l 1,19,-1
 434 -94 l 1,20,-1
 434 214 l 1,21,-1
 314 214 l 1,22,-1
 314 -17 l 1,23,-1
 171 -17 l 1,24,-1
 171 315 l 1,25,-1
 60 315 l 1,26,-1
 60 565 l 1,27,-1
 271 565 l 1,28,29
 266 583 266 583 259 604 c 128,-1,30
 252 625 252 625 244 642 c 1,31,-1
 284 651 l 1,32,-1
 103 651 l 1,33,-1
 103 782 l 1,34,-1
 432 782 l 1,35,-1
 425 819 l 2,36,37
 421 837 421 837 416 854 c 1,38,-1
 568 886 l 1,39,40
 576 862 576 862 583.5 835 c 128,-1,41
 591 808 591 808 596 782 c 1,42,-1
 920 782 l 1,43,-1
 920 651 l 1,44,-1
 762 651 l 1,45,-1
 806 642 l 1,46,47
 784 599 784 599 766 565 c 1,48,-1
 964 565 l 1,49,-1
 964 315 l 1,0,-1
402 651 m 1,50,51
 411 634 411 634 418 614.5 c 128,-1,52
 425 595 425 595 428 580 c 1,53,-1
 374 565 l 1,54,-1
 606 565 l 1,55,56
 615 584 615 584 624.5 607 c 128,-1,57
 634 630 634 630 641 651 c 1,58,-1
 402 651 l 1,50,51
809 433 m 1,59,-1
 207 433 l 1,60,-1
 207 343 l 1,61,-1
 434 343 l 1,62,-1
 434 413 l 1,63,-1
 585 413 l 1,64,-1
 585 343 l 1,65,-1
 809 343 l 1,66,-1
 809 433 l 1,59,-1
EndSplineSet
EndChar

StartChar: cid17282
Encoding: 24179 24179 39
Width: 1024
Flags: W
HStem: 231 151<43 434 590 984> 668 147<98 434 590 924>
VStem: 434 156<-96 231 382 668>
LayerCount: 2
Fore
SplineSet
655 444 m 1,0,1
 677 487 677 487 698.5 542.5 c 128,-1,2
 720 598 720 598 732 646 c 1,3,-1
 892 606 l 1,4,5
 865 549 865 549 837.5 496 c 128,-1,6
 810 443 810 443 786 407 c 1,7,-1
 655 444 l 1,0,1
291 644 m 1,8,9
 303 620 303 620 315 594.5 c 128,-1,10
 327 569 327 569 336.5 543 c 128,-1,11
 346 517 346 517 353.5 492.5 c 128,-1,12
 361 468 361 468 366 447 c 1,13,-1
 220 402 l 1,14,15
 217 421 217 421 210.5 446.5 c 128,-1,16
 204 472 204 472 195 498.5 c 128,-1,17
 186 525 186 525 176 552.5 c 128,-1,18
 166 580 166 580 155 604 c 1,19,-1
 291 644 l 1,8,9
984 231 m 1,20,-1
 590 231 l 1,21,-1
 590 -96 l 1,22,-1
 434 -96 l 1,23,-1
 434 231 l 1,24,-1
 43 231 l 1,25,-1
 43 382 l 1,26,-1
 434 382 l 1,27,-1
 434 668 l 1,28,-1
 98 668 l 1,29,-1
 98 815 l 1,30,-1
 924 815 l 1,31,-1
 924 668 l 1,32,-1
 590 668 l 1,33,-1
 590 382 l 1,34,-1
 984 382 l 1,35,-1
 984 231 l 1,20,-1
EndSplineSet
EndChar

StartChar: cid17614
Encoding: 24352 24352 40
Width: 1024
Flags: W
HStem: -91 124<102.434 206.75> 370 140<394 473 622 677.629 813 989> 719 137<69 245>
VStem: 245 142<624 719> 473 149<124 370 510 858>
LayerCount: 2
Fore
SplineSet
813 370 m 1,0,1
 841 266 841 266 891.5 178 c 128,-1,2
 942 90 942 90 1019 39 c 1,3,4
 1007 29 1007 29 992.5 14 c 128,-1,5
 978 -1 978 -1 964 -17.5 c 128,-1,6
 950 -34 950 -34 938 -50.5 c 128,-1,7
 926 -67 926 -67 918 -81 c 1,8,9
 870 -46 870 -46 832 1.5 c 128,-1,10
 794 49 794 49 764 107 c 128,-1,11
 734 165 734 165 711.5 231 c 128,-1,12
 689 297 689 297 673 370 c 1,13,-1
 622 370 l 1,14,-1
 622 124 l 1,15,-1
 722 162 l 1,16,17
 721 146 721 146 722 126 c 2,18,-1
 723 87 l 2,19,20
 724 67 724 67 725.5 49 c 128,-1,21
 727 31 727 31 729 18 c 1,22,-1
 539 -63 l 2,23,24
 511 -75 511 -75 497 -83.5 c 128,-1,25
 483 -92 483 -92 475 -99 c 1,26,27
 472 -86 472 -86 466 -69 c 128,-1,28
 460 -52 460 -52 451.5 -35 c 128,-1,29
 443 -18 443 -18 434.5 -2.5 c 128,-1,30
 426 13 426 13 418 24 c 1,31,32
 437 34 437 34 455 55 c 128,-1,33
 473 76 473 76 473 111 c 2,34,-1
 473 370 l 1,35,-1
 394 370 l 1,36,-1
 394 510 l 1,37,-1
 473 510 l 1,38,-1
 473 858 l 1,39,-1
 622 858 l 1,40,-1
 622 510 l 1,41,-1
 989 510 l 1,42,-1
 989 370 l 1,43,-1
 813 370 l 1,0,1
393 365 m 1,44,45
 393 355 393 355 392 345 c 2,46,-1
 391 329 l 1,47,-1
 390 313 l 2,48,49
 385 229 385 229 380.5 167.5 c 128,-1,50
 376 106 376 106 369 64.5 c 128,-1,51
 362 23 362 23 353.5 -3.5 c 128,-1,52
 345 -30 345 -30 333 -43 c 0,53,54
 314 -65 314 -65 292 -74 c 128,-1,55
 270 -83 270 -83 242 -87 c 0,56,57
 218 -90 218 -90 182 -91 c 128,-1,58
 146 -92 146 -92 105 -91 c 1,59,60
 103 -61 103 -61 91.5 -25.5 c 128,-1,61
 80 10 80 10 62 37 c 1,62,63
 95 35 95 35 123.5 34 c 128,-1,64
 152 33 152 33 168 33 c 0,65,66
 180 33 180 33 189.5 35 c 128,-1,67
 199 37 199 37 207 45 c 0,68,69
 218 56 218 56 225.5 99.5 c 128,-1,70
 233 143 233 143 240 233 c 1,71,-1
 56 233 l 1,72,73
 62 272 62 272 68.5 320.5 c 128,-1,74
 75 369 75 369 80 420 c 128,-1,75
 85 471 85 471 89 523 c 128,-1,76
 93 575 93 575 95 624 c 1,77,-1
 245 624 l 1,78,-1
 245 719 l 1,79,-1
 69 719 l 1,80,-1
 69 856 l 1,81,-1
 387 856 l 1,82,-1
 387 485 l 1,83,-1
 221 485 l 1,84,85
 219 454 219 454 216 425 c 2,86,-1
 210 365 l 1,87,-1
 393 365 l 1,44,45
981 797 m 1,88,89
 959 757 959 757 932 717.5 c 128,-1,90
 905 678 905 678 874.5 641.5 c 128,-1,91
 844 605 844 605 810.5 573 c 128,-1,92
 777 541 777 541 745 516 c 1,93,-1
 723 540 l 2,94,95
 709 554 709 554 693 568 c 2,96,-1
 663 597 l 2,97,98
 648 610 648 610 635 620 c 1,99,100
 694 659 694 659 747.5 717 c 128,-1,101
 801 775 801 775 834 838 c 1,102,-1
 981 797 l 1,88,89
EndSplineSet
EndChar

StartChar: cid17795
Encoding: 24448 24448 41
Width: 1024
Flags: W
HStem: -69 142<341 602 758 991> 251 141<408 602 758 934> 546 141<374 602 758 965>
VStem: 146 154<-97 292> 602 156<73 251 392 546>
LayerCount: 2
Fore
SplineSet
991 73 m 1,0,-1
 991 -69 l 1,1,-1
 341 -69 l 1,2,-1
 341 73 l 1,3,-1
 602 73 l 1,4,-1
 602 251 l 1,5,-1
 408 251 l 1,6,-1
 408 392 l 1,7,-1
 602 392 l 1,8,-1
 602 546 l 1,9,-1
 374 546 l 1,10,-1
 374 582 l 1,11,12
 343 529 343 529 300 470 c 1,13,-1
 300 -97 l 1,14,-1
 146 -97 l 1,15,-1
 146 292 l 1,16,17
 114 262 114 262 86 238 c 1,18,-1
 75 271 l 2,19,20
 67 291 67 291 57 314.5 c 128,-1,21
 47 338 47 338 37 359 c 128,-1,22
 27 380 27 380 18 394 c 1,23,24
 49 417 49 417 82 446.5 c 128,-1,25
 115 476 115 476 145.5 509.5 c 128,-1,26
 176 543 176 543 203 578.5 c 128,-1,27
 230 614 230 614 252 650 c 1,28,-1
 374 599 l 1,29,-1
 374 687 l 1,30,-1
 621 687 l 1,31,32
 612 719 612 719 594.5 759.5 c 128,-1,33
 577 800 577 800 558 835 c 1,34,-1
 695 881 l 1,35,-1
 718 842 l 2,36,37
 729 822 729 822 739 801 c 128,-1,38
 749 780 749 780 757 760 c 128,-1,39
 765 740 765 740 770 724 c 1,40,-1
 666 687 l 1,41,-1
 965 687 l 1,42,-1
 965 546 l 1,43,-1
 758 546 l 1,44,-1
 758 392 l 1,45,-1
 934 392 l 1,46,-1
 934 251 l 1,47,-1
 758 251 l 1,48,-1
 758 73 l 1,49,-1
 991 73 l 1,0,-1
362 819 m 1,50,51
 337 782 337 782 306.5 745 c 128,-1,52
 276 708 276 708 243 673 c 128,-1,53
 210 638 210 638 174.5 607.5 c 128,-1,54
 139 577 139 577 104 552 c 1,55,-1
 89 582 l 2,56,57
 80 599 80 599 70 616 c 2,58,-1
 49 651 l 2,59,60
 39 667 39 667 31 679 c 1,61,62
 58 696 58 696 85.5 719.5 c 128,-1,63
 113 743 113 743 138.5 769.5 c 128,-1,64
 164 796 164 796 185.5 823 c 128,-1,65
 207 850 207 850 221 874 c 1,66,-1
 362 819 l 1,50,51
EndSplineSet
EndChar

StartChar: cid17810
Encoding: 24459 24459 42
Width: 1024
Flags: W
HStem: 36 127<332 579 721 987> 199 120<370 579 721 951> 354 119<385 579 721 803> 506 125<351 579 721 803 943 999> 665 118<389 579 721 803>
VStem: 152 138<-98 306> 579 142<-96 36 163 199 319 354 473 506 631 665 783 877> 803 140<473 506 631 665>
LayerCount: 2
Fore
SplineSet
721 354 m 1,0,-1
 721 319 l 1,1,-1
 951 319 l 1,2,-1
 951 199 l 1,3,-1
 721 199 l 1,4,-1
 721 163 l 1,5,-1
 987 163 l 1,6,-1
 987 36 l 1,7,-1
 721 36 l 1,8,-1
 721 -96 l 1,9,-1
 579 -96 l 1,10,-1
 579 36 l 1,11,-1
 332 36 l 1,12,-1
 332 163 l 1,13,-1
 579 163 l 1,14,-1
 579 199 l 1,15,-1
 370 199 l 1,16,-1
 370 319 l 1,17,-1
 579 319 l 1,18,-1
 579 354 l 1,19,-1
 385 354 l 1,20,-1
 385 473 l 1,21,-1
 579 473 l 1,22,-1
 579 506 l 1,23,-1
 351 506 l 1,24,-1
 351 552 l 1,25,26
 337 530 337 530 321.5 508.5 c 128,-1,27
 306 487 306 487 290 466 c 1,28,-1
 290 -98 l 1,29,-1
 152 -98 l 1,30,-1
 152 306 l 1,31,32
 134 288 134 288 115.5 271 c 128,-1,33
 97 254 97 254 80 240 c 1,34,35
 76 252 76 252 69 272 c 2,36,-1
 51 314 l 2,37,38
 42 337 42 337 32 357 c 2,39,-1
 14 392 l 1,40,41
 45 416 45 416 78.5 445.5 c 128,-1,42
 112 475 112 475 143 508 c 128,-1,43
 174 541 174 541 202 576.5 c 128,-1,44
 230 612 230 612 252 648 c 1,45,-1
 351 605 l 1,46,-1
 351 631 l 1,47,-1
 579 631 l 1,48,-1
 579 665 l 1,49,-1
 389 665 l 1,50,-1
 389 783 l 1,51,-1
 579 783 l 1,52,-1
 579 877 l 1,53,-1
 721 877 l 1,54,-1
 721 783 l 1,55,-1
 943 783 l 1,56,-1
 943 631 l 1,57,-1
 999 631 l 1,58,-1
 999 506 l 1,59,-1
 943 506 l 1,60,-1
 943 354 l 1,61,-1
 721 354 l 1,0,-1
721 631 m 1,62,-1
 803 631 l 1,63,-1
 803 665 l 1,64,-1
 721 665 l 1,65,-1
 721 631 l 1,62,-1
721 473 m 1,66,-1
 803 473 l 1,67,-1
 803 506 l 1,68,-1
 721 506 l 1,69,-1
 721 473 l 1,66,-1
366 818 m 1,70,71
 339 781 339 781 306.5 744 c 128,-1,72
 274 707 274 707 239 672.5 c 128,-1,73
 204 638 204 638 167 607.5 c 128,-1,74
 130 577 130 577 93 553 c 1,75,-1
 79 583 l 2,76,77
 70 599 70 599 59.5 617 c 128,-1,78
 49 635 49 635 39 651.5 c 128,-1,79
 29 668 29 668 20 679 c 1,80,81
 49 696 49 696 79 719.5 c 128,-1,82
 109 743 109 743 136 769.5 c 128,-1,83
 163 796 163 796 186 823 c 128,-1,84
 209 850 209 850 224 874 c 1,85,-1
 366 818 l 1,70,71
EndSplineSet
EndChar

StartChar: cid18925
Encoding: 25104 25104 43
Width: 1024
Flags: W
HStem: -90 151<799.689 853.838> 49 135<276.772 345.654> 354 135<256 360> 587 146<256 513 676 783 880 988>
VStem: 99 157<189.344 354 489 587> 355 142<198.288 353.009> 513 153<733 874> 522 154<409.786 587>
LayerCount: 2
Fore
SplineSet
938 512 m 1,0,1
 873 309 873 309 762 154 c 1,2,3
 779 110 779 110 797.5 85.5 c 128,-1,4
 816 61 816 61 835 61 c 0,5,6
 850 61 850 61 859 102 c 128,-1,7
 868 143 868 143 872 238 c 1,8,9
 884 225 884 225 900 212 c 128,-1,10
 916 199 916 199 933 187.5 c 128,-1,11
 950 176 950 176 966.5 167.5 c 128,-1,12
 983 159 983 159 998 153 c 1,13,14
 990 78 990 78 976.5 31 c 128,-1,15
 963 -16 963 -16 942 -43.5 c 128,-1,16
 921 -71 921 -71 891.5 -80.5 c 128,-1,17
 862 -90 862 -90 822 -90 c 0,18,19
 771 -90 771 -90 729.5 -59 c 128,-1,20
 688 -28 688 -28 655 28 c 1,21,22
 586 -41 586 -41 504 -94 c 1,23,24
 496 -82 496 -82 482.5 -65.5 c 128,-1,25
 469 -49 469 -49 453.5 -31.5 c 128,-1,26
 438 -14 438 -14 423.5 1.5 c 128,-1,27
 409 17 409 17 396 29 c 1,28,29
 507 89 507 89 591 183 c 1,30,31
 564 270 564 270 547.5 372.5 c 128,-1,32
 531 475 531 475 522 587 c 1,33,-1
 256 587 l 1,34,-1
 256 489 l 1,35,-1
 507 489 l 1,36,37
 506 479 506 479 506 469 c 2,38,-1
 506 437 l 2,39,40
 505 358 505 358 503 301 c 128,-1,41
 501 244 501 244 497.5 203.5 c 128,-1,42
 494 163 494 163 488 138.5 c 128,-1,43
 482 114 482 114 473 101 c 0,44,45
 456 78 456 78 438 69 c 128,-1,46
 420 60 420 60 396 55 c 0,47,48
 376 51 376 51 345 50 c 128,-1,49
 314 49 314 49 279 49 c 1,50,51
 277 81 277 81 266.5 119 c 128,-1,52
 256 157 256 157 241 184 c 1,53,54
 230 102 230 102 207 24.5 c 128,-1,55
 184 -53 184 -53 145 -113 c 1,56,57
 136 -102 136 -102 119.5 -87 c 128,-1,58
 103 -72 103 -72 85 -57 c 128,-1,59
 67 -42 67 -42 49 -29 c 128,-1,60
 31 -16 31 -16 18 -10 c 1,61,62
 47 35 47 35 63 90 c 128,-1,63
 79 145 79 145 87 203 c 128,-1,64
 95 261 95 261 97 318.5 c 128,-1,65
 99 376 99 376 99 426 c 2,66,-1
 99 733 l 1,67,-1
 513 733 l 1,68,69
 510 804 510 804 510 874 c 1,70,-1
 667 874 l 1,71,72
 666 838 666 838 666 803.5 c 128,-1,73
 666 769 666 769 668 733 c 1,74,-1
 783 733 l 1,75,76
 759 751 759 751 732 770.5 c 128,-1,77
 705 790 705 790 681 804 c 1,78,-1
 771 893 l 1,79,80
 790 883 790 883 813 869.5 c 128,-1,81
 836 856 836 856 857.5 841.5 c 128,-1,82
 879 827 879 827 898.5 813 c 128,-1,83
 918 799 918 799 931 786 c 1,84,-1
 880 733 l 1,85,-1
 988 733 l 1,86,-1
 988 587 l 1,87,-1
 676 587 l 1,88,89
 687 459 687 459 709 351 c 1,90,91
 733 397 733 397 752.5 446 c 128,-1,92
 772 495 772 495 787 548 c 1,93,-1
 938 512 l 1,0,1
255 354 m 1,94,95
 253 315 253 315 250 273 c 128,-1,96
 247 231 247 231 242 188 c 1,97,98
 266 186 266 186 284.5 185 c 128,-1,99
 303 184 303 184 315 184 c 0,100,101
 335 184 335 184 346 198 c 0,102,103
 352 207 352 207 355 242.5 c 128,-1,104
 358 278 358 278 360 354 c 1,105,-1
 255 354 l 1,94,95
EndSplineSet
EndChar

StartChar: cid19284
Encoding: 25329 25329 44
Width: 1024
Flags: W
HStem: 221 146<351 468 612 721 866 992> 544 142<384 468 612 721 866 975> 552 136<35 131 273 362>
VStem: 131 142<48.0596 250 429 552 688 874> 468 144<367 544 686 869> 721 145<367 544 686 869>
LayerCount: 2
Fore
SplineSet
992 367 m 1,0,-1
 992 221 l 1,1,-1
 351 221 l 1,2,-1
 351 310 l 1,3,4
 332 305 332 305 313 299.5 c 128,-1,5
 294 294 294 294 273 289 c 1,6,-1
 273 65 l 2,7,8
 273 14 273 14 264 -17 c 128,-1,9
 255 -48 255 -48 228 -66 c 128,-1,10
 201 -84 201 -84 163.5 -90 c 128,-1,11
 126 -96 126 -96 75 -96 c 1,12,13
 73 -81 73 -81 69.5 -62.5 c 128,-1,14
 66 -44 66 -44 60.5 -24.5 c 128,-1,15
 55 -5 55 -5 49 14.5 c 128,-1,16
 43 34 43 34 36 49 c 1,17,18
 60 47 60 47 83 47 c 2,19,-1
 115 47 l 2,20,21
 131 47 131 47 131 65 c 2,22,-1
 131 250 l 1,23,-1
 48 227 l 1,24,-1
 17 370 l 1,25,-1
 131 394 l 1,26,-1
 131 552 l 1,27,-1
 35 552 l 1,28,-1
 35 688 l 1,29,-1
 131 688 l 1,30,-1
 131 874 l 1,31,-1
 273 874 l 1,32,-1
 273 688 l 1,33,-1
 362 688 l 1,34,-1
 362 552 l 1,35,-1
 273 552 l 1,36,-1
 273 429 l 1,37,-1
 339 445 l 1,38,-1
 351 356 l 1,39,-1
 351 367 l 1,40,-1
 468 367 l 1,41,-1
 468 544 l 1,42,-1
 384 544 l 1,43,-1
 384 686 l 1,44,-1
 468 686 l 1,45,-1
 468 869 l 1,46,-1
 612 869 l 1,47,-1
 612 686 l 1,48,-1
 721 686 l 1,49,-1
 721 869 l 1,50,-1
 866 869 l 1,51,-1
 866 686 l 1,52,-1
 975 686 l 1,53,-1
 975 544 l 1,54,-1
 866 544 l 1,55,-1
 866 367 l 1,56,-1
 992 367 l 1,0,-1
612 367 m 1,57,-1
 721 367 l 1,58,-1
 721 544 l 1,59,-1
 612 544 l 1,60,-1
 612 367 l 1,57,-1
823 194 m 1,61,62
 846 169 846 169 869.5 142 c 128,-1,63
 893 115 893 115 915 88 c 128,-1,64
 937 61 937 61 956.5 35.5 c 128,-1,65
 976 10 976 10 990 -11 c 1,66,-1
 862 -93 l 1,67,68
 850 -71 850 -71 831 -43.5 c 128,-1,69
 812 -16 812 -16 790 13 c 128,-1,70
 768 42 768 42 744.5 71.5 c 128,-1,71
 721 101 721 101 699 127 c 1,72,-1
 823 194 l 1,61,62
639 145 m 1,73,74
 619 110 619 110 593 76 c 128,-1,75
 567 42 567 42 538.5 10 c 128,-1,76
 510 -22 510 -22 480.5 -49.5 c 128,-1,77
 451 -77 451 -77 422 -98 c 1,78,-1
 395 -75 l 1,79,-1
 364 -47 l 1,80,-1
 330 -20 l 2,81,82
 314 -8 314 -8 300 0 c 1,83,84
 357 34 357 34 409 85.5 c 128,-1,85
 461 137 461 137 493 193 c 1,86,-1
 639 145 l 1,73,74
EndSplineSet
EndChar

StartChar: cid19584
Encoding: 25512 25512 45
Width: 1024
Flags: W
HStem: -39 135<587 687 825 996> 170 130<587 687 825 961> 369 130<587 687 825 963> 558 136<31 135 279 357> 566 135<603 687 825 973>
VStem: 135 144<55.0959 250 430 558 694 874> 444 143<-99 -39 96 170 300 369> 687 138<96 170 300 369 499 566>
LayerCount: 2
Fore
SplineSet
996 -39 m 1,0,-1
 587 -39 l 1,1,-1
 587 -99 l 1,2,-1
 444 -99 l 1,3,-1
 444 430 l 1,4,5
 431 413 431 413 417.5 396.5 c 128,-1,6
 404 380 404 380 390 366 c 1,7,8
 384 374 384 374 376 384 c 2,9,-1
 356 406 l 1,10,-1
 370 314 l 1,11,-1
 279 289 l 1,12,-1
 279 69 l 2,13,14
 279 18 279 18 269 -13 c 128,-1,15
 259 -44 259 -44 232 -62.5 c 128,-1,16
 205 -81 205 -81 168 -86.5 c 128,-1,17
 131 -92 131 -92 79 -92 c 1,18,19
 78 -77 78 -77 74.5 -58.5 c 128,-1,20
 71 -40 71 -40 66 -20 c 2,21,-1
 53 18 l 2,22,23
 47 37 47 37 40 53 c 1,24,25
 64 51 64 51 87 51 c 128,-1,26
 110 51 110 51 119 51.5 c 128,-1,27
 128 52 128 52 131.5 55 c 128,-1,28
 135 58 135 58 135 70 c 2,29,-1
 135 250 l 1,30,-1
 48 227 l 1,31,-1
 17 370 l 1,32,-1
 73 381 l 2,33,34
 103 387 103 387 135 395 c 1,35,-1
 135 558 l 1,36,-1
 31 558 l 1,37,-1
 31 694 l 1,38,-1
 135 694 l 1,39,-1
 135 874 l 1,40,-1
 279 874 l 1,41,-1
 279 694 l 1,42,-1
 373 694 l 1,43,-1
 373 580 l 1,44,45
 418 642 418 642 454 717 c 128,-1,46
 490 792 490 792 514 869 c 1,47,-1
 654 831 l 1,48,49
 631 768 631 768 603 701 c 1,50,-1
 708 701 l 1,51,52
 699 728 699 728 685.5 759 c 128,-1,53
 672 790 672 790 657 816 c 1,54,-1
 785 867 l 1,55,56
 805 835 805 835 823.5 797 c 128,-1,57
 842 759 842 759 851 729 c 1,58,-1
 787 701 l 1,59,-1
 973 701 l 1,60,-1
 973 566 l 1,61,-1
 825 566 l 1,62,-1
 825 499 l 1,63,-1
 963 499 l 1,64,-1
 963 369 l 1,65,-1
 825 369 l 1,66,-1
 825 300 l 1,67,-1
 961 300 l 1,68,-1
 961 170 l 1,69,-1
 825 170 l 1,70,-1
 825 96 l 1,71,-1
 996 96 l 1,72,-1
 996 -39 l 1,0,-1
324 441 m 1,73,74
 314 452 314 452 304 462 c 2,75,-1
 286 477 l 1,76,77
 324 513 324 513 357 558 c 1,78,-1
 279 558 l 1,79,-1
 279 430 l 1,80,-1
 324 441 l 1,73,74
687 369 m 1,81,-1
 587 369 l 1,82,-1
 587 300 l 1,83,-1
 687 300 l 1,84,-1
 687 369 l 1,81,-1
687 566 m 1,85,-1
 587 566 l 1,86,-1
 587 499 l 1,87,-1
 687 499 l 1,88,-1
 687 566 l 1,85,-1
587 96 m 1,89,-1
 687 96 l 1,90,-1
 687 170 l 1,91,-1
 587 170 l 1,92,-1
 587 96 l 1,89,-1
EndSplineSet
EndChar

StartChar: cid20304
Encoding: 25910 25910 46
Width: 1024
Flags: W
HStem: 550 140<708 801 944.341 999>
VStem: 80 146<275 767> 307 148<-98 155 298 424 478 860> 801 147<443.651 550>
LayerCount: 2
Fore
SplineSet
948 550 m 1,0,1
 929 439 929 439 899 345.5 c 128,-1,2
 869 252 869 252 826 173 c 1,3,4
 864 128 864 128 909 92 c 128,-1,5
 954 56 954 56 1008 30 c 1,6,7
 996 20 996 20 981.5 5 c 128,-1,8
 967 -10 967 -10 953 -27 c 128,-1,9
 939 -44 939 -44 927 -61.5 c 128,-1,10
 915 -79 915 -79 907 -93 c 1,11,12
 858 -64 858 -64 816.5 -29 c 128,-1,13
 775 6 775 6 739 49 c 1,14,15
 662 -42 662 -42 553 -102 c 1,16,17
 547 -91 547 -91 535 -75 c 2,18,-1
 509 -41 l 2,19,20
 495 -24 495 -24 481 -8 c 128,-1,21
 467 8 467 8 456 19 c 1,22,23
 517 49 517 49 565.5 87 c 128,-1,24
 614 125 614 125 653 174 c 1,25,26
 628 217 628 217 607.5 264 c 128,-1,27
 587 311 587 311 569 364 c 1,28,29
 554 341 554 341 535 318 c 1,30,31
 524 337 524 337 500.5 368 c 128,-1,32
 477 399 477 399 455 424 c 1,33,-1
 455 -98 l 1,34,-1
 307 -98 l 1,35,-1
 307 155 l 1,36,37
 251 136 251 136 214.5 122 c 128,-1,38
 178 108 178 108 155 97 c 128,-1,39
 132 86 132 86 118.5 78 c 128,-1,40
 105 70 105 70 96 62 c 1,41,42
 93 76 93 76 87.5 95 c 128,-1,43
 82 114 82 114 74.5 133 c 128,-1,44
 67 152 67 152 58.5 169 c 128,-1,45
 50 186 50 186 42 199 c 1,46,47
 57 208 57 208 68.5 225.5 c 128,-1,48
 80 243 80 243 80 274 c 2,49,-1
 80 767 l 1,50,-1
 226 767 l 1,51,-1
 226 275 l 1,52,-1
 307 298 l 1,53,-1
 307 860 l 1,54,-1
 455 860 l 1,55,-1
 455 478 l 1,56,57
 508 552 508 552 540 656.5 c 128,-1,58
 572 761 572 761 588 877 c 1,59,-1
 741 852 l 1,60,61
 734 810 734 810 726.5 769.5 c 128,-1,62
 719 729 719 729 708 690 c 1,63,-1
 999 690 l 1,64,-1
 999 550 l 1,65,-1
 948 550 l 1,0,1
665 550 m 1,66,67
 662 542 662 542 658 532 c 2,68,-1
 651 515 l 1,69,70
 682 404 682 404 733 309 c 1,71,72
 779 412 779 412 801 550 c 1,73,-1
 665 550 l 1,66,67
EndSplineSet
EndChar

StartChar: uni6587
Encoding: 25991 25991 47
Width: 1024
Flags: W
HStem: 562 146<42 211.583 358 464 557 665 826.131 987>
LayerCount: 2
Fore
SplineSet
833 562 m 1,0,1
 761 355 761 355 635 212 c 1,2,3
 712 157 712 157 805 116.5 c 128,-1,4
 898 76 898 76 1010 51 c 1,5,6
 998 39 998 39 983.5 21.5 c 128,-1,7
 969 4 969 4 955 -15 c 2,8,-1
 930 -53 l 2,9,10
 918 -72 918 -72 909 -88 c 1,11,12
 790 -57 790 -57 694 -10 c 128,-1,13
 598 37 598 37 518 101 c 1,14,15
 434 34 434 34 332.5 -14 c 128,-1,16
 231 -62 231 -62 110 -96 c 1,17,18
 104 -83 104 -83 93 -64 c 128,-1,19
 82 -45 82 -45 69 -25.5 c 128,-1,20
 56 -6 56 -6 43 12 c 2,21,-1
 19 44 l 1,22,23
 137 71 137 71 233.5 111 c 128,-1,24
 330 151 330 151 408 208 c 1,25,26
 343 282 343 282 293.5 370 c 128,-1,27
 244 458 244 458 204 562 c 1,28,-1
 42 562 l 1,29,-1
 42 708 l 1,30,-1
 464 708 l 1,31,32
 456 739 456 739 443 775 c 128,-1,33
 430 811 430 811 416 842 c 1,34,-1
 575 889 l 1,35,-1
 595 850 l 1,36,-1
 614 809 l 2,37,38
 632 768 632 768 629 769 c 128,-1,39
 626 770 626 770 640 733 c 1,40,-1
 557 708 l 1,41,-1
 987 708 l 1,42,-1
 987 562 l 1,43,-1
 833 562 l 1,0,1
358 562 m 1,44,45
 418 420 418 420 521 311 c 1,46,47
 567 363 567 363 602.5 425.5 c 128,-1,48
 638 488 638 488 665 562 c 1,49,-1
 358 562 l 1,44,45
EndSplineSet
EndChar

StartChar: uni65E5
Encoding: 26085 26085 48
Width: 1024
Flags: W
HStem: -17 150<298 723> 333 147<298 723> 668 150<298 723>
VStem: 144 154<-85 -17 133 333 480 668> 723 161<-85 -17 133 333 480 668>
LayerCount: 2
Fore
SplineSet
884 818 m 1,0,-1
 884 -85 l 1,1,-1
 723 -85 l 1,2,-1
 723 -17 l 1,3,-1
 298 -17 l 1,4,-1
 298 -85 l 1,5,-1
 144 -85 l 1,6,-1
 144 818 l 1,7,-1
 884 818 l 1,0,-1
298 668 m 1,8,-1
 298 480 l 1,9,-1
 723 480 l 1,10,-1
 723 668 l 1,11,-1
 298 668 l 1,8,-1
723 133 m 1,12,-1
 723 333 l 1,13,-1
 298 333 l 1,14,-1
 298 133 l 1,15,-1
 723 133 l 1,12,-1
EndSplineSet
EndChar

StartChar: cid20665
Encoding: 26118 26118 49
Width: 1024
Flags: W
HStem: -75 136<688.15 853.315> 203 132<304 499> 434 116<289 725> 585 107<289 725> 726 116<289 725>
VStem: 147 157<87.3347 203 335 412> 535 151<62.6289 175.793 301 415>
LayerCount: 2
Fore
SplineSet
821 61 m 2,0,1
 833 61 833 61 841 65.5 c 128,-1,2
 849 70 849 70 853.5 81.5 c 128,-1,3
 858 93 858 93 860.5 114.5 c 128,-1,4
 863 136 863 136 865 171 c 1,5,6
 876 162 876 162 893 153.5 c 128,-1,7
 910 145 910 145 928.5 137.5 c 128,-1,8
 947 130 947 130 966 124 c 128,-1,9
 985 118 985 118 1000 115 c 1,10,11
 994 60 994 60 983 23.5 c 128,-1,12
 972 -13 972 -13 952.5 -34.5 c 128,-1,13
 933 -56 933 -56 905 -65.5 c 128,-1,14
 877 -75 877 -75 836 -75 c 2,15,-1
 707 -75 l 2,16,17
 655 -75 655 -75 621.5 -65.5 c 128,-1,18
 588 -56 588 -56 569 -35.5 c 128,-1,19
 550 -15 550 -15 542.5 19 c 128,-1,20
 535 53 535 53 535 104 c 2,21,-1
 535 415 l 1,22,-1
 686 415 l 1,23,-1
 686 301 l 1,24,25
 735 320 735 320 780 343.5 c 128,-1,26
 825 367 825 367 858 390 c 1,27,-1
 977 284 l 1,28,29
 912 247 912 247 836 218.5 c 128,-1,30
 760 190 760 190 686 170 c 1,31,-1
 686 105 l 2,32,33
 686 91 686 91 687.5 82.5 c 128,-1,34
 689 74 689 74 693.5 69.5 c 128,-1,35
 698 65 698 65 706.5 63 c 128,-1,36
 715 61 715 61 729 61 c 2,37,-1
 821 61 l 2,0,1
494 113 m 1,38,39
 495 98 495 98 496.5 80 c 128,-1,40
 498 62 498 62 501 45 c 2,41,-1
 506 12 l 2,42,43
 508 -4 508 -4 511 -16 c 1,44,-1
 337 -44 l 2,45,46
 269 -55 269 -55 229 -63.5 c 128,-1,47
 189 -72 189 -72 170 -78 c 128,-1,48
 151 -84 151 -84 137 -90 c 1,49,50
 134 -77 134 -77 129 -59 c 128,-1,51
 124 -41 124 -41 117 -22.5 c 128,-1,52
 110 -4 110 -4 101.5 13 c 128,-1,53
 93 30 93 30 85 41 c 1,54,55
 95 45 95 45 106.5 51 c 128,-1,56
 118 57 118 57 127 66.5 c 128,-1,57
 136 76 136 76 141.5 88.5 c 128,-1,58
 147 101 147 101 147 118 c 2,59,-1
 147 412 l 1,60,-1
 304 412 l 1,61,-1
 304 335 l 1,62,-1
 499 335 l 1,63,-1
 499 203 l 1,64,-1
 304 203 l 1,65,-1
 304 87 l 1,66,-1
 494 113 l 1,38,39
884 434 m 1,67,-1
 137 434 l 1,68,-1
 137 842 l 1,69,-1
 884 842 l 1,70,-1
 884 434 l 1,67,-1
725 585 m 1,71,-1
 289 585 l 1,72,-1
 289 550 l 1,73,-1
 725 550 l 1,74,-1
 725 585 l 1,71,-1
725 726 m 1,75,-1
 289 726 l 1,76,-1
 289 692 l 1,77,-1
 725 692 l 1,78,-1
 725 726 l 1,75,-1
EndSplineSet
EndChar

StartChar: cid20886
Encoding: 26257 26257 50
Width: 1024
Flags: W
HStem: -78 89<359 730> 36 81<359 730> 136 90<558 730> 256 108<54 296 801 968> 391 103<130 359 509 621> 530 92<288 714> 645 85<288 714> 753 91<288 714>
LayerCount: 2
Fore
SplineSet
621 256 m 1,0,1
 606 248 606 248 590 241 c 2,2,-1
 558 226 l 1,3,-1
 882 226 l 1,4,-1
 882 -96 l 1,5,-1
 730 -96 l 1,6,-1
 730 -78 l 1,7,-1
 359 -78 l 1,8,-1
 359 -96 l 1,9,-1
 214 -96 l 1,10,-1
 214 105 l 1,11,-1
 148 89 l 1,12,-1
 83 74 l 1,13,14
 78 85 78 85 69 101 c 2,15,-1
 50 133 l 2,16,17
 40 148 40 148 29 163.5 c 128,-1,18
 18 179 18 179 10 189 c 1,19,20
 84 201 84 201 155.5 218.5 c 128,-1,21
 227 236 227 236 296 256 c 1,22,-1
 54 256 l 1,23,-1
 54 364 l 1,24,-1
 359 364 l 1,25,-1
 359 391 l 1,26,-1
 130 391 l 1,27,-1
 130 494 l 1,28,-1
 359 494 l 1,29,-1
 359 519 l 1,30,-1
 509 519 l 1,31,-1
 509 494 l 1,32,-1
 721 494 l 1,33,-1
 721 456 l 1,34,35
 768 491 768 491 808 530 c 1,36,-1
 144 530 l 1,37,-1
 144 844 l 1,38,-1
 864 844 l 1,39,-1
 864 532 l 1,40,-1
 942 486 l 1,41,42
 910 452 910 452 875 422 c 128,-1,43
 840 392 840 392 801 364 c 1,44,-1
 968 364 l 1,45,-1
 968 256 l 1,46,-1
 621 256 l 1,0,1
714 645 m 1,47,-1
 288 645 l 1,48,-1
 288 622 l 1,49,-1
 714 622 l 1,50,-1
 714 645 l 1,47,-1
714 753 m 1,51,-1
 288 753 l 1,52,-1
 288 730 l 1,53,-1
 714 730 l 1,54,-1
 714 753 l 1,51,-1
730 11 m 1,55,-1
 730 36 l 1,56,-1
 359 36 l 1,57,-1
 359 11 l 1,58,-1
 730 11 l 1,55,-1
730 136 m 1,59,-1
 359 136 l 1,60,-1
 359 117 l 1,61,-1
 730 117 l 1,62,-1
 730 136 l 1,59,-1
509 364 m 1,63,-1
 569 364 l 1,64,-1
 596 378 l 2,65,66
 608 384 608 384 621 391 c 1,67,-1
 509 391 l 1,68,-1
 509 364 l 1,63,-1
EndSplineSet
EndChar

StartChar: uni6708
Encoding: 26376 26376 51
Width: 1024
Flags: W
HStem: -96 152<561.883 706.263> 203 144<328 714> 445 142<334 714> 685 145<334 714>
VStem: 180 154<347.196 445 587 685> 714 158<63.2207 203 347 445 587 685>
LayerCount: 2
Fore
SplineSet
872 83 m 2,0,1
 872 20 872 20 856 -14.5 c 128,-1,2
 840 -49 840 -49 801 -68 c 0,3,4
 760 -87 760 -87 703 -91.5 c 128,-1,5
 646 -96 646 -96 567 -96 c 1,6,7
 564 -80 564 -80 557.5 -59 c 128,-1,8
 551 -38 551 -38 542.5 -16.5 c 128,-1,9
 534 5 534 5 524.5 25 c 128,-1,10
 515 45 515 45 506 60 c 1,11,12
 531 58 531 58 558 57 c 128,-1,13
 585 56 585 56 609 56 c 2,14,-1
 682 56 l 2,15,16
 699 56 699 56 706.5 63 c 128,-1,17
 714 70 714 70 714 85 c 2,18,-1
 714 203 l 1,19,-1
 305 203 l 1,20,21
 285 117 285 117 244.5 39 c 128,-1,22
 204 -39 204 -39 133 -97 c 1,23,24
 125 -86 125 -86 110 -70.5 c 128,-1,25
 95 -55 95 -55 78.5 -40 c 128,-1,26
 62 -25 62 -25 46 -11.5 c 128,-1,27
 30 2 30 2 17 10 c 1,28,29
 73 57 73 57 106 114.5 c 128,-1,30
 139 172 139 172 155.5 234 c 128,-1,31
 172 296 172 296 176 359 c 128,-1,32
 180 422 180 422 180 479 c 2,33,-1
 180 830 l 1,34,-1
 872 830 l 1,35,-1
 872 83 l 2,0,1
334 685 m 1,36,-1
 334 587 l 1,37,-1
 714 587 l 1,38,-1
 714 685 l 1,39,-1
 334 685 l 1,36,-1
714 347 m 1,40,-1
 714 445 l 1,41,-1
 334 445 l 1,42,43
 332 397 332 397 328 347 c 1,44,-1
 714 347 l 1,40,-1
EndSplineSet
EndChar

StartChar: cid21091
Encoding: 26377 26377 52
Width: 1024
Flags: W
HStem: -99 141<614.305 716.413> 96 123<378 717> 263 123<378 717> 429 129<396 717> 617 140<51 258 484 974>
VStem: 230 148<-96 96 219 263> 717 145<41.8002 96 219 263 386 429>
LayerCount: 2
Fore
SplineSet
427 617 m 1,0,1
 419 602 419 602 411.5 587 c 128,-1,2
 404 572 404 572 396 558 c 1,3,-1
 862 558 l 1,4,-1
 862 56 l 2,5,6
 862 4 862 4 850.5 -26.5 c 128,-1,7
 839 -57 839 -57 804.5 -74.5 c 128,-1,8
 770 -92 770 -92 725 -95.5 c 128,-1,9
 680 -99 680 -99 618 -99 c 1,10,11
 616 -84 616 -84 612 -65 c 128,-1,12
 608 -46 608 -46 602 -26.5 c 128,-1,13
 596 -7 596 -7 589 11.5 c 128,-1,14
 582 30 582 30 574 44 c 1,15,-1
 645 42 l 1,16,-1
 694 41 l 2,17,18
 717 41 717 41 717 59 c 2,19,-1
 717 96 l 1,20,-1
 378 96 l 1,21,-1
 378 -96 l 1,22,-1
 230 -96 l 1,23,-1
 230 326 l 1,24,25
 177 270 177 270 116 227 c 1,26,27
 108 239 108 239 95.5 254.5 c 128,-1,28
 83 270 83 270 69 286 c 128,-1,29
 55 302 55 302 41.5 317 c 128,-1,30
 28 332 28 332 16 342 c 1,31,32
 93 391 93 391 153 463 c 128,-1,33
 213 535 213 535 258 617 c 1,34,-1
 51 617 l 1,35,-1
 51 757 l 1,36,-1
 322 757 l 1,37,38
 333 787 333 787 342 817 c 2,39,-1
 358 877 l 1,40,-1
 513 842 l 1,41,-1
 500 800 l 2,42,43
 493 778 493 778 484 757 c 1,44,-1
 974 757 l 1,45,-1
 974 617 l 1,46,-1
 427 617 l 1,0,1
717 219 m 1,47,-1
 717 263 l 1,48,-1
 378 263 l 1,49,-1
 378 219 l 1,50,-1
 717 219 l 1,47,-1
717 429 m 1,51,-1
 378 429 l 1,52,-1
 378 386 l 1,53,-1
 717 386 l 1,54,-1
 717 429 l 1,51,-1
EndSplineSet
EndChar

StartChar: cid21098
Encoding: 26381 26381 53
Width: 1024
Flags: W
HStem: 239 140<216 285> 345 134<722 827> 475 137<217 285> 508 123<703.195 807.842> 703 138<217 285 601 813>
VStem: 84 133<379 475 612 703> 285 137<45.8362 239 379 475 612 703> 461 140<-97 -5 19 331 479 703> 813 142<633.58 703>
LayerCount: 2
Fore
SplineSet
988 456 m 1,0,1
 957 252 957 252 876 113 c 1,2,3
 939 53 939 53 1017 17 c 1,4,5
 1006 7 1006 7 992.5 -6.5 c 128,-1,6
 979 -20 979 -20 966.5 -36 c 128,-1,7
 954 -52 954 -52 943 -68 c 128,-1,8
 932 -84 932 -84 925 -97 c 1,9,10
 851 -57 851 -57 793 1 c 1,11,12
 741 -56 741 -56 670 -98 c 1,13,14
 659 -78 659 -78 640 -52 c 128,-1,15
 621 -26 621 -26 601 -5 c 1,16,-1
 601 -97 l 1,17,-1
 461 -97 l 1,18,-1
 461 841 l 1,19,-1
 955 841 l 1,20,-1
 955 642 l 2,21,22
 955 595 955 595 942.5 568 c 128,-1,23
 930 541 930 541 894.5 526.5 c 128,-1,24
 859 512 859 512 812.5 510 c 128,-1,25
 766 508 766 508 708 508 c 1,26,27
 703 537 703 537 690.5 571 c 128,-1,28
 678 605 678 605 665 632 c 1,29,30
 681 631 681 631 701 631 c 2,31,-1
 791 630 l 2,32,33
 803 631 803 631 808 633.5 c 128,-1,34
 813 636 813 636 813 645 c 2,35,-1
 813 703 l 1,36,-1
 601 703 l 1,37,-1
 601 479 l 1,38,-1
 877 479 l 1,39,-1
 900 483 l 1,40,-1
 988 456 l 1,0,1
722 345 m 1,41,42
 747 283 747 283 782 226 c 1,43,44
 811 283 811 283 827 345 c 1,45,-1
 722 345 l 1,41,42
601 19 m 1,46,47
 660 55 660 55 706 110 c 1,48,49
 673 159 673 159 647.5 214 c 128,-1,50
 622 269 622 269 601 331 c 1,51,-1
 601 19 l 1,46,47
422 59 m 2,52,53
 422 11 422 11 413 -20 c 128,-1,54
 404 -51 404 -51 377 -69.5 c 128,-1,55
 350 -88 350 -88 314.5 -92.5 c 128,-1,56
 279 -97 279 -97 229 -97 c 1,57,58
 228 -83 228 -83 224.5 -64 c 128,-1,59
 221 -45 221 -45 215.5 -25 c 128,-1,60
 210 -5 210 -5 204 13.5 c 128,-1,61
 198 32 198 32 190 46 c 1,62,63
 214 44 214 44 238 45 c 2,64,-1
 269 45 l 2,65,66
 284 45 284 45 285 62 c 2,67,-1
 285 239 l 1,68,-1
 209 239 l 1,69,70
 202 148 202 148 185.5 59 c 128,-1,71
 169 -30 169 -30 138 -99 c 1,72,73
 129 -91 129 -91 113.5 -81.5 c 128,-1,74
 98 -72 98 -72 81.5 -62 c 128,-1,75
 65 -52 65 -52 48 -44 c 2,76,-1
 18 -32 l 1,77,78
 41 20 41 20 54.5 83 c 128,-1,79
 68 146 68 146 74.5 212.5 c 128,-1,80
 81 279 81 279 82.5 344 c 128,-1,81
 84 409 84 409 84 465 c 2,82,-1
 84 841 l 1,83,-1
 422 841 l 1,84,-1
 422 59 l 2,52,53
217 703 m 1,85,-1
 217 612 l 1,86,-1
 285 612 l 1,87,-1
 285 703 l 1,88,-1
 217 703 l 1,85,-1
285 379 m 1,89,-1
 285 475 l 1,90,-1
 217 475 l 1,91,-1
 217 424 l 1,92,-1
 216 379 l 1,93,-1
 285 379 l 1,89,-1
EndSplineSet
EndChar

StartChar: cid21130
Encoding: 26397 26397 54
Width: 1024
Flags: W
HStem: -92 146<727.41 814.716> 52 132<29 201 348 490> 222 134<698 815> 224 389<61 196 356 497> 370 99<196 356> 454 132<702 815> 650 132<33 201 348 513> 697 134<702 815>
VStem: 61 135<331 370 469 507> 201 147<-95 52 184 224 613 650 782 877> 356 141<331 370 469 507> 557 145<357.222 454 586 697> 815 146<54.3721 222 356 454 586 697>
LayerCount: 2
Fore
SplineSet
961 72 m 2,0,1
 961 19 961 19 949.5 -14 c 128,-1,2
 938 -47 938 -47 907 -65 c 128,-1,3
 876 -83 876 -83 834 -87.5 c 128,-1,4
 792 -92 792 -92 731 -92 c 1,5,6
 729 -77 729 -77 725 -57.5 c 128,-1,7
 721 -38 721 -38 715.5 -17.5 c 128,-1,8
 710 3 710 3 702.5 22 c 128,-1,9
 695 41 695 41 688 55 c 1,10,-1
 720 54 l 1,11,-1
 795 53 l 2,12,13
 815 53 815 53 815 74 c 2,14,-1
 815 222 l 1,15,-1
 685 222 l 1,16,17
 673 134 673 134 647.5 50.5 c 128,-1,18
 622 -33 622 -33 577 -97 c 1,19,20
 567 -88 567 -88 550.5 -77 c 128,-1,21
 534 -66 534 -66 516.5 -55 c 128,-1,22
 499 -44 499 -44 481 -34.5 c 128,-1,23
 463 -25 463 -25 450 -19 c 1,24,25
 473 14 473 14 490 52 c 1,26,-1
 348 52 l 1,27,-1
 348 -95 l 1,28,-1
 201 -95 l 1,29,-1
 201 52 l 1,30,-1
 29 52 l 1,31,-1
 29 184 l 1,32,-1
 201 184 l 1,33,-1
 201 224 l 1,34,-1
 61 224 l 1,35,-1
 61 613 l 1,36,-1
 201 613 l 1,37,-1
 201 650 l 1,38,-1
 33 650 l 1,39,-1
 33 782 l 1,40,-1
 201 782 l 1,41,-1
 201 877 l 1,42,-1
 348 877 l 1,43,-1
 348 782 l 1,44,-1
 513 782 l 1,45,-1
 513 650 l 1,46,-1
 348 650 l 1,47,-1
 348 613 l 1,48,-1
 497 613 l 1,49,-1
 497 224 l 1,50,-1
 348 224 l 1,51,-1
 348 184 l 1,52,-1
 509 184 l 1,53,-1
 509 99 l 1,54,55
 525 146 525 146 535 197.5 c 128,-1,56
 545 249 545 249 549.5 299.5 c 128,-1,57
 554 350 554 350 555.5 398.5 c 128,-1,58
 557 447 557 447 557 492 c 2,59,-1
 557 831 l 1,60,-1
 961 831 l 1,61,-1
 961 72 l 2,0,1
196 469 m 1,62,-1
 356 469 l 1,63,-1
 356 507 l 1,64,-1
 196 507 l 1,65,-1
 196 469 l 1,62,-1
196 331 m 1,66,-1
 356 331 l 1,67,-1
 356 370 l 1,68,-1
 196 370 l 1,69,-1
 196 331 l 1,66,-1
702 697 m 1,70,-1
 702 586 l 1,71,-1
 815 586 l 1,72,-1
 815 697 l 1,73,-1
 702 697 l 1,70,-1
815 356 m 1,74,-1
 815 454 l 1,75,-1
 702 454 l 1,76,-1
 701 407 l 2,77,78
 700 382 700 382 698 356 c 1,79,-1
 815 356 l 1,74,-1
EndSplineSet
EndChar

StartChar: cid21210
Encoding: 26446 26446 55
Width: 1024
Flags: W
HStem: -93 137<309.082 428.841> 122 134<49 434 601 976> 329 127<231 508> 651 137<51 278 736 974>
VStem: 432 152<47.0955 122 470 614 788 876>
LayerCount: 2
Fore
SplineSet
432 470 m 1,0,-1
 432 615 l 1,1,2
 347 520 347 520 231 456 c 1,3,-1
 700 456 l 1,4,-1
 732 463 l 1,5,-1
 823 379 l 1,6,7
 773 348 773 348 716.5 316.5 c 128,-1,8
 660 285 660 285 601 256 c 1,9,-1
 976 256 l 1,10,-1
 976 122 l 1,11,-1
 582 122 l 1,12,-1
 582 55 l 2,13,14
 582 3 582 3 567 -25.5 c 128,-1,15
 552 -54 552 -54 511.5 -70 c 128,-1,16
 471 -86 471 -86 423 -89.5 c 128,-1,17
 375 -93 375 -93 316 -93 c 1,18,19
 312 -78 312 -78 305 -59.5 c 128,-1,20
 298 -41 298 -41 289 -22 c 128,-1,21
 280 -3 280 -3 270 15 c 128,-1,22
 260 33 260 33 251 46 c 1,23,-1
 344 44 l 1,24,-1
 409 43 l 2,25,26
 424 44 424 44 429 47 c 128,-1,27
 434 50 434 50 434 60 c 2,28,-1
 434 122 l 1,29,-1
 49 122 l 1,30,-1
 49 256 l 1,31,-1
 434 256 l 1,32,-1
 434 295 l 1,33,34
 469 308 469 308 508 329 c 1,35,-1
 223 329 l 1,36,-1
 223 452 l 1,37,38
 172 423 172 423 114 402 c 1,39,40
 106 415 106 415 94.5 431 c 128,-1,41
 83 447 83 447 70 463.5 c 128,-1,42
 57 480 57 480 44 495 c 128,-1,43
 31 510 31 510 18 521 c 1,44,45
 91 541 91 541 157.5 575 c 128,-1,46
 224 609 224 609 278 651 c 1,47,-1
 51 651 l 1,48,-1
 51 788 l 1,49,-1
 432 788 l 1,50,-1
 432 876 l 1,51,-1
 584 876 l 1,52,-1
 584 788 l 1,53,-1
 974 788 l 1,54,-1
 974 651 l 1,55,-1
 736 651 l 1,56,57
 791 611 791 611 860 580 c 128,-1,58
 929 549 929 549 1002 529 c 1,59,60
 990 518 990 518 976.5 502.5 c 128,-1,61
 963 487 963 487 950 470.5 c 128,-1,62
 937 454 937 454 925 437 c 128,-1,63
 913 420 913 420 905 406 c 1,64,65
 812 439 812 439 730 492 c 128,-1,66
 648 545 648 545 584 614 c 1,67,-1
 584 470 l 1,68,-1
 432 470 l 1,0,-1
EndSplineSet
EndChar

StartChar: cid21243
Encoding: 26469 26469 56
Width: 1024
Flags: W
HStem: 290 142<49 226 278 348 679 744 799 976> 629 142<97 253 300 434 593 734 793 937>
VStem: 434 159<-96 186 432 629 771 877>
LayerCount: 2
Fore
SplineSet
679 290 m 1,0,1
 742 218 742 218 827 157 c 128,-1,2
 912 96 912 96 1005 58 c 1,3,4
 993 47 993 47 978 31 c 128,-1,5
 963 15 963 15 948.5 -1.5 c 128,-1,6
 934 -18 934 -18 921 -35.5 c 128,-1,7
 908 -53 908 -53 900 -68 c 1,8,9
 813 -24 813 -24 735 41 c 128,-1,10
 657 106 657 106 593 186 c 1,11,-1
 593 -96 l 1,12,-1
 434 -96 l 1,13,-1
 434 186 l 1,14,15
 367 107 367 107 288.5 42.5 c 128,-1,16
 210 -22 210 -22 123 -66 c 1,17,-1
 101 -35 l 2,18,19
 88 -18 88 -18 73.5 -1 c 128,-1,20
 59 16 59 16 44.5 32 c 128,-1,21
 30 48 30 48 17 59 c 1,22,23
 63 78 63 78 109 103.5 c 128,-1,24
 155 129 155 129 197 158.5 c 128,-1,25
 239 188 239 188 277 221 c 128,-1,26
 315 254 315 254 348 290 c 1,27,-1
 49 290 l 1,28,-1
 49 432 l 1,29,-1
 226 432 l 1,30,31
 218 468 218 468 198.5 512 c 128,-1,32
 179 556 179 556 158 593 c 1,33,-1
 253 629 l 1,34,-1
 97 629 l 1,35,-1
 97 771 l 1,36,-1
 434 771 l 1,37,-1
 434 877 l 1,38,-1
 593 877 l 1,39,-1
 593 771 l 1,40,-1
 937 771 l 1,41,-1
 937 629 l 1,42,-1
 793 629 l 1,43,-1
 896 599 l 1,44,45
 870 552 870 552 845 508.5 c 128,-1,46
 820 465 820 465 799 432 c 1,47,-1
 976 432 l 1,48,-1
 976 290 l 1,49,-1
 679 290 l 1,0,1
593 629 m 1,50,-1
 593 432 l 1,51,-1
 744 432 l 1,52,-1
 659 460 l 1,53,54
 679 496 679 496 699.5 541.5 c 128,-1,55
 720 587 720 587 734 629 c 1,56,-1
 593 629 l 1,50,-1
300 629 m 1,57,58
 325 590 325 590 345.5 547 c 128,-1,59
 366 504 366 504 374 470 c 1,60,-1
 278 432 l 1,61,-1
 434 432 l 1,62,-1
 434 629 l 1,63,-1
 300 629 l 1,57,58
EndSplineSet
EndChar

StartChar: cid21331
Encoding: 26524 26524 57
Width: 1024
Flags: W
HStem: 204 135<50 329 705 977> 385 123<307 436 595 718> 551 114<307 436 595 718> 707 122<307 436 595 718>
VStem: 152 155<508 551 665 707> 436 159<-97 123 339 385 508 551 665 707> 718 164<508 551 665 707>
LayerCount: 2
Fore
SplineSet
705 204 m 1,0,1
 768 158 768 158 847.5 120.5 c 128,-1,2
 927 83 927 83 1009 59 c 1,3,4
 997 48 997 48 983 32 c 128,-1,5
 969 16 969 16 955 -0.5 c 128,-1,6
 941 -17 941 -17 928.5 -34.5 c 128,-1,7
 916 -52 916 -52 908 -67 c 1,8,9
 824 -34 824 -34 743.5 16.5 c 128,-1,10
 663 67 663 67 595 129 c 1,11,-1
 595 -97 l 1,12,-1
 436 -97 l 1,13,-1
 436 123 l 1,14,15
 368 58 368 58 286 8 c 128,-1,16
 204 -42 204 -42 117 -74 c 1,17,18
 109 -61 109 -61 96.5 -44 c 128,-1,19
 84 -27 84 -27 70 -10 c 128,-1,20
 56 7 56 7 42.5 23 c 128,-1,21
 29 39 29 39 16 50 c 1,22,23
 102 75 102 75 183.5 115 c 128,-1,24
 265 155 265 155 329 204 c 1,25,-1
 50 204 l 1,26,-1
 50 339 l 1,27,-1
 436 339 l 1,28,-1
 436 385 l 1,29,-1
 152 385 l 1,30,-1
 152 829 l 1,31,-1
 882 829 l 1,32,-1
 882 385 l 1,33,-1
 595 385 l 1,34,-1
 595 339 l 1,35,-1
 977 339 l 1,36,-1
 977 204 l 1,37,-1
 705 204 l 1,0,1
718 551 m 1,38,-1
 595 551 l 1,39,-1
 595 508 l 1,40,-1
 718 508 l 1,41,-1
 718 551 l 1,38,-1
718 707 m 1,42,-1
 595 707 l 1,43,-1
 595 665 l 1,44,-1
 718 665 l 1,45,-1
 718 707 l 1,42,-1
307 665 m 1,46,-1
 436 665 l 1,47,-1
 436 707 l 1,48,-1
 307 707 l 1,49,-1
 307 665 l 1,46,-1
436 508 m 1,50,-1
 436 551 l 1,51,-1
 307 551 l 1,52,-1
 307 508 l 1,53,-1
 436 508 l 1,50,-1
EndSplineSet
EndChar

StartChar: uni6C11
Encoding: 27665 27665 58
Width: 1024
Flags: W
HStem: -85 147<783.148 845.415> 246 138<291 503 695 966> 477 137<291 492 645 743> 695 138<291 743>
VStem: 134 157<88.2139 246 384 477 614 695> 492 153<384.75 477> 743 152<614 695>
LayerCount: 2
Fore
SplineSet
695 246 m 1,0,1
 709 206 709 206 725.5 172 c 128,-1,2
 742 138 742 138 759 113.5 c 128,-1,3
 776 89 776 89 793 75.5 c 128,-1,4
 810 62 810 62 825.5 62 c 128,-1,5
 841 62 841 62 849 96.5 c 128,-1,6
 857 131 857 131 862 206 c 1,7,8
 874 195 874 195 890 184 c 128,-1,9
 906 173 906 173 923.5 163.5 c 128,-1,10
 941 154 941 154 958 146 c 128,-1,11
 975 138 975 138 990 134 c 1,12,13
 982 65 982 65 968.5 22.5 c 128,-1,14
 955 -20 955 -20 933.5 -44 c 128,-1,15
 912 -68 912 -68 883 -76.5 c 128,-1,16
 854 -85 854 -85 816 -85 c 0,17,18
 770 -85 770 -85 727.5 -60.5 c 128,-1,19
 685 -36 685 -36 649 8 c 128,-1,20
 613 52 613 52 584 113 c 128,-1,21
 555 174 555 174 534 246 c 1,22,-1
 291 246 l 1,23,-1
 291 88 l 1,24,-1
 534 136 l 1,25,26
 534 121 534 121 536 101 c 2,27,-1
 539 62 l 2,28,29
 541 43 541 43 543.5 25 c 128,-1,30
 546 7 546 7 549 -5 c 1,31,-1
 358 -46 l 2,32,33
 284 -62 284 -62 241 -72.5 c 128,-1,34
 198 -83 198 -83 177 -89.5 c 128,-1,35
 156 -96 156 -96 142 -103 c 1,36,37
 138 -89 138 -89 131 -71 c 128,-1,38
 124 -53 124 -53 114.5 -34.5 c 128,-1,39
 105 -16 105 -16 95.5 0 c 128,-1,40
 86 16 86 16 77 28 c 1,41,42
 97 40 97 40 115.5 64 c 128,-1,43
 134 88 134 88 134 124 c 2,44,-1
 134 833 l 1,45,-1
 895 833 l 1,46,-1
 895 477 l 1,47,-1
 645 477 l 1,48,49
 647 453 647 453 650 430.5 c 128,-1,50
 653 408 653 408 658 384 c 1,51,-1
 966 384 l 1,52,-1
 966 246 l 1,53,-1
 695 246 l 1,0,1
291 695 m 1,54,-1
 291 614 l 1,55,-1
 743 614 l 1,56,-1
 743 695 l 1,57,-1
 291 695 l 1,54,-1
503 384 m 1,58,59
 499 408 499 408 497 431 c 2,60,-1
 492 477 l 1,61,-1
 291 477 l 1,62,-1
 291 384 l 1,63,-1
 503 384 l 1,58,59
EndSplineSet
EndChar

StartChar: uni6C34
Encoding: 27700 27700 59
Width: 1024
Flags: W
HStem: -98 165<333.391 436.661> 480 151<51 247>
VStem: 438 159<66.0225 301 561.094 876>
LayerCount: 2
Fore
SplineSet
948 606 m 1,0,1
 890 549 890 549 825.5 492.5 c 128,-1,2
 761 436 761 436 706 393 c 1,3,4
 762 307 762 307 837.5 240.5 c 128,-1,5
 913 174 913 174 1012 131 c 1,6,7
 999 119 999 119 983 102 c 128,-1,8
 967 85 967 85 951.5 66 c 128,-1,9
 936 47 936 47 922.5 27.5 c 128,-1,10
 909 8 909 8 900 -8 c 1,11,12
 800 45 800 45 726 123.5 c 128,-1,13
 652 202 652 202 597 301 c 1,14,-1
 597 88 l 2,15,16
 597 27 597 27 584 -8.5 c 128,-1,17
 571 -44 571 -44 536 -64.5 c 128,-1,18
 501 -85 501 -85 451 -91.5 c 128,-1,19
 401 -98 401 -98 337 -98 c 1,20,21
 335 -81 335 -81 329.5 -59 c 128,-1,22
 324 -37 324 -37 316 -14.5 c 128,-1,23
 308 8 308 8 299.5 29.5 c 128,-1,24
 291 51 291 51 282 69 c 1,25,26
 324 67 324 67 361 67 c 2,27,-1
 414 66 l 2,28,29
 439 66 439 66 438 89 c 2,30,-1
 438 876 l 1,31,-1
 597 876 l 1,32,-1
 597 623 l 1,33,34
 606 594 606 594 617 567 c 128,-1,35
 628 540 628 540 639 513 c 1,36,37
 686 557 686 557 731.5 607 c 128,-1,38
 777 657 777 657 810 703 c 1,39,-1
 948 606 l 1,0,1
426 600 m 1,40,41
 410 494 410 494 382 400 c 128,-1,42
 354 306 354 306 317 228.5 c 128,-1,43
 280 151 280 151 233 90 c 128,-1,44
 186 29 186 29 133 -12 c 1,45,46
 124 0 124 0 109 16.5 c 128,-1,47
 94 33 94 33 77 49.5 c 128,-1,48
 60 66 60 66 43 80 c 128,-1,49
 26 94 26 94 12 102 c 1,50,51
 96 160 96 160 155.5 257 c 128,-1,52
 215 354 215 354 247 480 c 1,53,-1
 51 480 l 1,54,-1
 51 631 l 1,55,-1
 300 631 l 1,56,-1
 327 636 l 1,57,-1
 426 600 l 1,40,41
EndSplineSet
EndChar

StartChar: cid23510
Encoding: 27748 27748 60
Width: 1024
Flags: W
HStem: -94 134<677.221 771.68> 690 140<353 614>
LayerCount: 2
Fore
SplineSet
216 354 m 1,0,1
 203 367 203 367 182.5 382.5 c 128,-1,2
 162 398 162 398 138 413.5 c 128,-1,3
 114 429 114 429 89.5 444 c 128,-1,4
 65 459 65 459 42 470 c 1,5,-1
 124 577 l 1,6,7
 146 568 146 568 171 555 c 128,-1,8
 196 542 196 542 220.5 528 c 128,-1,9
 245 514 245 514 266.5 499.5 c 128,-1,10
 288 485 288 485 303 473 c 1,11,-1
 216 354 l 1,0,1
982 560 m 1,12,13
 982 547 982 547 981 536 c 2,14,-1
 980 515 l 1,15,-1
 979 498 l 2,16,17
 971 368 971 368 962 275 c 128,-1,18
 953 182 953 182 943.5 119.5 c 128,-1,19
 934 57 934 57 922 21 c 128,-1,20
 910 -15 910 -15 897 -34 c 0,21,22
 875 -61 875 -61 854 -72.5 c 128,-1,23
 833 -84 833 -84 805 -89 c 0,24,25
 781 -94 781 -94 748.5 -94.5 c 128,-1,26
 716 -95 716 -95 679 -93 c 1,27,28
 678 -78 678 -78 675 -60 c 128,-1,29
 672 -42 672 -42 666 -23.5 c 128,-1,30
 660 -5 660 -5 653 13 c 128,-1,31
 646 31 646 31 638 45 c 1,32,33
 668 42 668 42 692 41 c 128,-1,34
 716 40 716 40 729 40 c 128,-1,35
 742 40 742 40 751 43.5 c 128,-1,36
 760 47 760 47 769 58 c 0,37,38
 777 67 777 67 785.5 92 c 128,-1,39
 794 117 794 117 801 160 c 128,-1,40
 808 203 808 203 814 267.5 c 128,-1,41
 820 332 820 332 826 421 c 1,42,-1
 804 421 l 1,43,44
 754 250 754 250 668 121.5 c 128,-1,45
 582 -7 582 -7 465 -88 c 1,46,47
 456 -80 456 -80 441 -68 c 128,-1,48
 426 -56 426 -56 409.5 -44.5 c 128,-1,49
 393 -33 393 -33 376.5 -22 c 128,-1,50
 360 -11 360 -11 348 -4 c 1,51,52
 463 62 463 62 541.5 170.5 c 128,-1,53
 620 279 620 279 663 421 c 1,54,-1
 625 421 l 1,55,56
 589 325 589 325 530.5 247 c 128,-1,57
 472 169 472 169 404 118 c 1,58,59
 395 126 395 126 383 136 c 2,60,-1
 355 158 l 2,61,62
 341 168 341 168 326 177.5 c 128,-1,63
 311 187 311 187 299 195 c 1,64,65
 276 127 276 127 252 61 c 128,-1,66
 228 -5 228 -5 202 -69 c 1,67,-1
 63 13 l 1,68,-1
 93 79 l 2,69,70
 109 116 109 116 126 157 c 128,-1,71
 143 198 143 198 159.5 242 c 128,-1,72
 176 286 176 286 191 330 c 1,73,-1
 315 246 l 1,74,-1
 304 210 l 1,75,76
 361 248 361 248 406 301.5 c 128,-1,77
 451 355 451 355 478 420 c 1,78,79
 454 418 454 418 434.5 414 c 128,-1,80
 415 410 415 410 410 403 c 1,81,-1
 398 433 l 1,82,-1
 383 470 l 2,83,84
 375 489 375 489 365.5 508 c 128,-1,85
 356 527 356 527 349 541 c 1,86,87
 376 546 376 546 405 560 c 128,-1,88
 434 574 434 574 466 594 c 2,89,-1
 525 630 l 2,90,91
 565 655 565 655 614 690 c 1,92,-1
 353 690 l 1,93,-1
 353 749 l 1,94,-1
 263 636 l 1,95,96
 251 649 251 649 231 665 c 128,-1,97
 211 681 211 681 188 697 c 128,-1,98
 165 713 165 713 140.5 727.5 c 128,-1,99
 116 742 116 742 94 755 c 1,100,-1
 179 859 l 1,101,102
 201 849 201 849 225 836 c 128,-1,103
 249 823 249 823 272.5 809 c 128,-1,104
 296 795 296 795 317 780.5 c 128,-1,105
 338 766 338 766 353 753 c 1,106,-1
 353 830 l 1,107,-1
 793 830 l 1,108,-1
 818 840 l 1,109,-1
 921 755 l 1,110,111
 858 700 858 700 790.5 650.5 c 128,-1,112
 723 601 723 601 657 560 c 1,113,-1
 982 560 l 1,12,13
EndSplineSet
EndChar

StartChar: cid23630
Encoding: 27827 27827 61
Width: 1024
Flags: W
HStem: -92 147<596.914 766.748> 199 132<494 573> 453 132<494 573> 674 144<328 775 925 996>
VStem: 360 134<133 199 331 453> 573 137<331 453> 775 150<62.2209 674>
LayerCount: 2
Fore
SplineSet
996 674 m 1,0,-1
 925 674 l 1,1,-1
 925 82 l 2,2,3
 925 17 925 17 908.5 -17 c 128,-1,4
 892 -51 892 -51 850.5 -69.5 c 128,-1,5
 809 -88 809 -88 749 -92 c 128,-1,6
 689 -96 689 -96 602 -96 c 1,7,8
 600 -80 600 -80 594 -59 c 128,-1,9
 588 -38 588 -38 580 -16.5 c 128,-1,10
 572 5 572 5 563 25 c 128,-1,11
 554 45 554 45 546 60 c 1,12,13
 574 58 574 58 604.5 56.5 c 128,-1,14
 635 55 635 55 662 54.5 c 128,-1,15
 689 54 689 54 711 55 c 2,16,-1
 741 55 l 2,17,18
 759 55 759 55 767 62 c 128,-1,19
 775 69 775 69 775 85 c 2,20,-1
 775 674 l 1,21,-1
 328 674 l 1,22,-1
 328 749 l 1,23,-1
 243 637 l 1,24,25
 228 649 228 649 205 665 c 2,26,-1
 158 695 l 2,27,28
 132 710 132 710 106 725.5 c 128,-1,29
 80 741 80 741 58 755 c 1,30,-1
 143 861 l 1,31,-1
 189 838 l 1,32,-1
 240 811 l 1,33,-1
 288 783 l 2,34,35
 311 770 311 770 328 759 c 1,36,-1
 328 818 l 1,37,-1
 996 818 l 1,38,-1
 996 674 l 1,0,-1
494 199 m 1,39,-1
 494 133 l 1,40,-1
 360 133 l 1,41,-1
 360 585 l 1,42,-1
 710 585 l 1,43,-1
 710 199 l 1,44,-1
 494 199 l 1,39,-1
494 453 m 1,45,-1
 494 331 l 1,46,-1
 573 331 l 1,47,-1
 573 453 l 1,48,-1
 494 453 l 1,45,-1
207 359 m 1,49,50
 192 370 192 370 167.5 384.5 c 128,-1,51
 143 399 143 399 116.5 414 c 128,-1,52
 90 429 90 429 63 443 c 2,53,-1
 13 470 l 1,54,-1
 93 581 l 1,55,56
 115 572 115 572 141 559 c 2,57,-1
 196 532 l 1,58,-1
 248 507 l 2,59,60
 273 494 273 494 290 483 c 1,61,-1
 207 359 l 1,49,50
40 14 m 1,62,63
 60 43 60 43 84.5 79.5 c 128,-1,64
 109 116 109 116 134.5 157.5 c 128,-1,65
 160 199 160 199 185.5 244 c 128,-1,66
 211 289 211 289 234 334 c 1,67,-1
 344 234 l 1,68,69
 303 153 303 153 258 72 c 128,-1,70
 213 -9 213 -9 166 -86 c 1,71,-1
 40 14 l 1,62,63
EndSplineSet
EndChar

StartChar: cid23807
Encoding: 27946 27946 62
Width: 1024
Flags: W
HStem: 221 146<353.942 442 588 719 864 993> 544 142<336 442 588 719 864 982>
VStem: 442 146<367 544 686 869> 719 145<367 544 686 871>
LayerCount: 2
Fore
SplineSet
993 367 m 1,0,-1
 993 221 l 1,1,-1
 365 221 l 1,2,3
 326 143 326 143 282.5 65.5 c 128,-1,4
 239 -12 239 -12 194 -86 c 1,5,-1
 69 14 l 1,6,7
 89 43 89 43 113 79.5 c 128,-1,8
 137 116 137 116 162 157.5 c 128,-1,9
 187 199 187 199 213 244 c 128,-1,10
 239 289 239 289 262 334 c 1,11,-1
 319 282 l 1,12,-1
 319 367 l 1,13,-1
 442 367 l 1,14,-1
 442 544 l 1,15,-1
 336 544 l 1,16,-1
 336 686 l 1,17,-1
 442 686 l 1,18,-1
 442 869 l 1,19,-1
 588 869 l 1,20,-1
 588 686 l 1,21,-1
 719 686 l 1,22,-1
 719 871 l 1,23,-1
 864 871 l 1,24,-1
 864 686 l 1,25,-1
 982 686 l 1,26,-1
 982 544 l 1,27,-1
 864 544 l 1,28,-1
 864 367 l 1,29,-1
 993 367 l 1,0,-1
588 367 m 1,30,-1
 719 367 l 1,31,-1
 719 544 l 1,32,-1
 588 544 l 1,33,-1
 588 367 l 1,30,-1
824 191 m 1,34,35
 849 167 849 167 873 140.5 c 128,-1,36
 897 114 897 114 919.5 86 c 128,-1,37
 942 58 942 58 961 32 c 128,-1,38
 980 6 980 6 993 -15 c 1,39,-1
 868 -94 l 1,40,41
 857 -71 857 -71 838.5 -43 c 128,-1,42
 820 -15 820 -15 798 14 c 128,-1,43
 776 43 776 43 752 72 c 128,-1,44
 728 101 728 101 706 126 c 1,45,-1
 824 191 l 1,34,35
611 145 m 1,46,47
 592 111 592 111 567 78 c 128,-1,48
 542 45 542 45 514 14.5 c 128,-1,49
 486 -16 486 -16 457 -43.5 c 128,-1,50
 428 -71 428 -71 400 -92 c 1,51,52
 390 -82 390 -82 375 -69 c 128,-1,53
 360 -56 360 -56 344.5 -43.5 c 128,-1,54
 329 -31 329 -31 313 -19 c 128,-1,55
 297 -7 297 -7 285 1 c 1,56,57
 340 35 340 35 390.5 85.5 c 128,-1,58
 441 136 441 136 472 189 c 1,59,-1
 611 145 l 1,46,47
224 359 m 1,60,61
 209 370 209 370 185 384.5 c 128,-1,62
 161 399 161 399 134 415 c 2,63,-1
 32 470 l 1,64,-1
 111 581 l 1,65,66
 133 572 133 572 160 559 c 2,67,-1
 214 532 l 2,68,69
 241 519 241 519 265.5 506.5 c 128,-1,70
 290 494 290 494 307 483 c 1,71,-1
 224 359 l 1,60,61
274 635 m 1,72,73
 259 647 259 647 236.5 663.5 c 128,-1,74
 214 680 214 680 188 697 c 2,75,-1
 136 731 l 2,76,77
 109 747 109 747 88 762 c 1,78,-1
 175 866 l 1,79,-1
 275 809 l 2,80,81
 301 794 301 794 325 779 c 128,-1,82
 349 764 349 764 367 752 c 1,83,-1
 274 635 l 1,72,73
EndSplineSet
EndChar

StartChar: cid23923
Encoding: 28023 28023 63
Width: 1024
Flags: W
HStem: -89 118<652.05 756.5> 59 126<513 621 716 760 919 978> 266 134<297 386 541 589 726 790 933 1002> 471 126<549 613 688 801> 647 132<556 973>
VStem: 798 135<400 471>
LayerCount: 2
Fore
SplineSet
926 266 m 1,0,1
 924 243 924 243 922.5 223.5 c 128,-1,2
 921 204 921 204 919 185 c 1,3,-1
 978 185 l 1,4,-1
 978 59 l 1,5,-1
 903 59 l 1,6,7
 897 24 897 24 889.5 3 c 128,-1,8
 882 -18 882 -18 872 -31 c 0,9,10
 853 -59 853 -59 831.5 -69.5 c 128,-1,11
 810 -80 810 -80 783 -85 c 0,12,13
 759 -90 759 -90 725 -90.5 c 128,-1,14
 691 -91 691 -91 654 -89 c 1,15,16
 652 -62 652 -62 642.5 -28 c 128,-1,17
 633 6 633 6 617 32 c 1,18,19
 648 29 648 29 674 29 c 2,20,-1
 715 28 l 2,21,22
 727 28 727 28 735 31 c 128,-1,23
 743 34 743 34 752 45 c 0,24,25
 754 47 754 47 756 50.5 c 128,-1,26
 758 54 758 54 760 59 c 1,27,-1
 351 59 l 1,28,29
 360 103 360 103 369 155.5 c 128,-1,30
 378 208 378 208 386 266 c 1,31,-1
 297 266 l 1,32,-1
 297 400 l 1,33,-1
 403 400 l 1,34,35
 407 430 407 430 411 459 c 2,36,-1
 417 516 l 1,37,-1
 401 496 l 1,38,39
 390 505 390 505 374 516 c 128,-1,40
 358 527 358 527 341 539 c 2,41,-1
 305 560 l 2,42,43
 288 570 288 570 274 578 c 1,44,45
 299 605 299 605 322 639.5 c 128,-1,46
 345 674 345 674 366 713 c 128,-1,47
 387 752 387 752 404 793.5 c 128,-1,48
 421 835 421 835 433 877 c 1,49,-1
 578 840 l 1,50,51
 573 825 573 825 567 810 c 128,-1,52
 561 795 561 795 556 779 c 1,53,-1
 973 779 l 1,54,-1
 973 647 l 1,55,-1
 496 647 l 1,56,57
 485 623 485 623 468 597 c 1,58,-1
 941 597 l 1,59,60
 940 585 940 585 940 573 c 2,61,-1
 939 538 l 2,62,63
 937 500 937 500 936 466 c 128,-1,64
 935 432 935 432 933 400 c 1,65,-1
 1002 400 l 1,66,-1
 1002 266 l 1,67,-1
 926 266 l 1,0,1
688 471 m 1,68,69
 724 438 724 438 745 414 c 1,70,-1
 726 400 l 1,71,-1
 798 400 l 1,72,-1
 801 471 l 1,73,-1
 688 471 l 1,68,69
541 400 m 1,74,-1
 634 400 l 1,75,76
 608 428 608 428 583 452 c 1,77,-1
 613 471 l 1,78,-1
 549 471 l 1,79,-1
 541 400 l 1,74,-1
513 185 m 1,80,-1
 621 185 l 1,81,-1
 588 216 l 1,82,-1
 555 245 l 1,83,-1
 589 266 l 1,84,-1
 523 266 l 1,85,-1
 513 185 l 1,80,-1
782 185 m 1,86,87
 784 202 784 202 786 223 c 2,88,-1
 790 266 l 1,89,-1
 669 266 l 1,90,-1
 709 232 l 2,91,92
 727 216 727 216 739 202 c 1,93,-1
 716 185 l 1,94,-1
 782 185 l 1,86,87
58 -1 m 1,95,96
 73 29 73 29 91.5 66.5 c 128,-1,97
 110 104 110 104 128.5 147 c 128,-1,98
 147 190 147 190 165.5 236 c 128,-1,99
 184 282 184 282 201 328 c 1,100,-1
 315 247 l 1,101,102
 286 164 286 164 253.5 80.5 c 128,-1,103
 221 -3 221 -3 187 -80 c 1,104,-1
 58 -1 l 1,95,96
199 353 m 1,105,106
 187 366 187 366 166.5 381.5 c 128,-1,107
 146 397 146 397 123.5 413 c 128,-1,108
 101 429 101 429 78 443 c 2,109,-1
 32 470 l 1,110,-1
 113 570 l 1,111,112
 135 560 135 560 158.5 547.5 c 128,-1,113
 182 535 182 535 205.5 520.5 c 128,-1,114
 229 506 229 506 249.5 491.5 c 128,-1,115
 270 477 270 477 285 465 c 1,116,-1
 199 353 l 1,105,106
270 639 m 1,117,118
 256 652 256 652 235 667.5 c 128,-1,119
 214 683 214 683 189.5 699 c 128,-1,120
 165 715 165 715 140 730 c 128,-1,121
 115 745 115 745 92 758 c 1,122,-1
 174 859 l 1,123,-1
 221 835 l 2,124,125
 247 822 247 822 272 807.5 c 128,-1,126
 297 793 297 793 319.5 778.5 c 128,-1,127
 342 764 342 764 357 752 c 1,128,-1
 270 639 l 1,117,118
EndSplineSet
EndChar

StartChar: cid24092
Encoding: 28129 28129 64
Width: 1024
Flags: W
VStem: 585 147<294.063 438 656.562 876>
LayerCount: 2
Fore
SplineSet
784 165 m 1,0,1
 820 116 820 116 876 83 c 128,-1,2
 932 50 932 50 1014 35 c 1,3,4
 1002 24 1002 24 989 8 c 128,-1,5
 976 -8 976 -8 964 -25.5 c 128,-1,6
 952 -43 952 -43 942 -61 c 128,-1,7
 932 -79 932 -79 926 -93 c 1,8,9
 831 -68 831 -68 769.5 -22.5 c 128,-1,10
 708 23 708 23 667 90 c 1,11,12
 631 27 631 27 562.5 -19 c 128,-1,13
 494 -65 494 -65 378 -95 c 1,14,15
 373 -81 373 -81 363.5 -63 c 128,-1,16
 354 -45 354 -45 343 -27.5 c 128,-1,17
 332 -10 332 -10 319.5 6.5 c 128,-1,18
 307 23 307 23 296 34 c 1,19,20
 399 58 399 58 456 91.5 c 128,-1,21
 513 125 513 125 540.5 173 c 128,-1,22
 568 221 568 221 575 286.5 c 128,-1,23
 582 352 582 352 585 438 c 1,24,-1
 732 438 l 1,25,-1
 729 364 l 2,26,27
 727 327 727 327 724 293 c 1,28,29
 739 237 739 237 765 194 c 1,30,31
 785 234 785 234 805.5 282.5 c 128,-1,32
 826 331 826 331 839 372 c 1,33,-1
 994 325 l 1,34,35
 964 271 964 271 933.5 219.5 c 128,-1,36
 903 168 903 168 878 132 c 1,37,-1
 784 165 l 1,0,1
330 236 m 1,38,39
 295 156 295 156 256 76 c 128,-1,40
 217 -4 217 -4 175 -81 c 1,41,-1
 40 16 l 1,42,43
 58 45 58 45 79 81.5 c 128,-1,44
 100 118 100 118 122.5 159 c 128,-1,45
 145 200 145 200 168 244 c 128,-1,46
 191 288 191 288 212 333 c 1,47,-1
 330 236 l 1,38,39
208 356 m 1,48,49
 193 369 193 369 170 384.5 c 128,-1,50
 147 400 147 400 121 416.5 c 128,-1,51
 95 433 95 433 68.5 448.5 c 128,-1,52
 42 464 42 464 18 476 c 1,53,-1
 112 577 l 1,54,-1
 162 552 l 2,55,56
 189 539 189 539 215.5 524.5 c 128,-1,57
 242 510 242 510 266 495 c 128,-1,58
 290 480 290 480 307 468 c 1,59,-1
 208 356 l 1,48,49
257 629 m 1,60,61
 243 642 243 642 220.5 658.5 c 128,-1,62
 198 675 198 675 172.5 691.5 c 128,-1,63
 147 708 147 708 121 724 c 2,64,-1
 72 753 l 1,65,-1
 163 854 l 1,66,67
 186 843 186 843 212 829 c 128,-1,68
 238 815 238 815 264 799.5 c 128,-1,69
 290 784 290 784 313.5 769.5 c 128,-1,70
 337 755 337 755 353 742 c 1,71,-1
 257 629 l 1,60,61
332 640 m 1,72,73
 357 672 357 672 378.5 722.5 c 128,-1,74
 400 773 400 773 413 823 c 1,75,-1
 541 797 l 1,76,77
 536 770 536 770 527 742.5 c 128,-1,78
 518 715 518 715 507.5 688.5 c 128,-1,79
 497 662 497 662 484.5 636.5 c 128,-1,80
 472 611 472 611 459 592 c 1,81,-1
 332 640 l 1,72,73
315 176 m 1,82,83
 327 192 327 192 339.5 214.5 c 128,-1,84
 352 237 352 237 363 261.5 c 128,-1,85
 374 286 374 286 382.5 312.5 c 128,-1,86
 391 339 391 339 397 364 c 1,87,-1
 530 337 l 1,88,89
 524 309 524 309 515.5 279.5 c 128,-1,90
 507 250 507 250 496 221.5 c 128,-1,91
 485 193 485 193 472.5 166.5 c 128,-1,92
 460 140 460 140 446 119 c 1,93,-1
 315 176 l 1,82,83
869 371 m 1,94,95
 852 386 852 386 828 403.5 c 128,-1,96
 804 421 804 421 775 439.5 c 128,-1,97
 746 458 746 458 715 476 c 128,-1,98
 684 494 684 494 652 510 c 1,99,100
 616 463 616 463 558.5 427.5 c 128,-1,101
 501 392 501 392 411 367 c 1,102,103
 406 380 406 380 396.5 397 c 128,-1,104
 387 414 387 414 376.5 430.5 c 128,-1,105
 366 447 366 447 353.5 462 c 128,-1,106
 341 477 341 477 331 488 c 1,107,108
 423 511 423 511 473.5 544 c 128,-1,109
 524 577 524 577 548.5 623.5 c 128,-1,110
 573 670 573 670 579.5 732 c 128,-1,111
 586 794 586 794 588 876 c 1,112,-1
 735 876 l 1,113,114
 733 804 733 804 728 743 c 128,-1,115
 723 682 723 682 709 630 c 1,116,117
 743 615 743 615 778 596.5 c 128,-1,118
 813 578 813 578 846.5 559.5 c 128,-1,119
 880 541 880 541 909 522 c 128,-1,120
 938 503 938 503 959 486 c 1,121,-1
 869 371 l 1,94,95
983 776 m 1,122,123
 950 726 950 726 918 679.5 c 128,-1,124
 886 633 886 633 859 600 c 1,125,-1
 743 643 l 1,126,127
 755 661 755 661 767.5 684 c 128,-1,128
 780 707 780 707 792 730.5 c 128,-1,129
 804 754 804 754 814 778 c 128,-1,130
 824 802 824 802 831 822 c 1,131,-1
 983 776 l 1,122,123
EndSplineSet
EndChar

StartChar: uni706B
Encoding: 28779 28779 65
Width: 1024
Flags: W
VStem: 423 166<480.908 869>
LayerCount: 2
Fore
SplineSet
593 869 m 1,0,1
 592 768 592 768 589 669.5 c 128,-1,2
 586 571 586 571 571 478 c 1,3,4
 593 395 593 395 628 326 c 128,-1,5
 663 257 663 257 714.5 203.5 c 128,-1,6
 766 150 766 150 837 112 c 128,-1,7
 908 74 908 74 1002 53 c 1,8,9
 990 41 990 41 976.5 23.5 c 128,-1,10
 963 6 963 6 949 -13.5 c 128,-1,11
 935 -33 935 -33 923 -52.5 c 128,-1,12
 911 -72 911 -72 904 -88 c 1,13,14
 828 -66 828 -66 767.5 -34.5 c 128,-1,15
 707 -3 707 -3 658.5 39 c 128,-1,16
 610 81 610 81 573 132.5 c 128,-1,17
 536 184 536 184 507 247 c 1,18,19
 459 141 459 141 370 52.5 c 128,-1,20
 281 -36 281 -36 132 -99 c 1,21,22
 125 -84 125 -84 113 -66.5 c 128,-1,23
 101 -49 101 -49 87.5 -32 c 128,-1,24
 74 -15 74 -15 58 0.5 c 128,-1,25
 42 16 42 16 27 29 c 1,26,27
 132 71 132 71 202 124.5 c 128,-1,28
 272 178 272 178 316 241.5 c 128,-1,29
 360 305 360 305 382 378 c 128,-1,30
 404 451 404 451 413 530 c 128,-1,31
 422 609 422 609 423 695 c 2,32,-1
 424 869 l 1,33,-1
 593 869 l 1,0,1
327 628 m 1,34,35
 318 587 318 587 306.5 545 c 128,-1,36
 295 503 295 503 281 464 c 128,-1,37
 267 425 267 425 250 389.5 c 128,-1,38
 233 354 233 354 214 327 c 1,39,-1
 63 395 l 1,40,41
 102 449 102 449 132 521.5 c 128,-1,42
 162 594 162 594 177 674 c 1,43,-1
 327 628 l 1,34,35
962 613 m 1,44,45
 946 574 946 574 928 536 c 2,46,-1
 894 459 l 2,47,48
 877 422 877 422 860 388 c 128,-1,49
 843 354 843 354 827 328 c 1,50,-1
 696 382 l 1,51,52
 710 412 710 412 724.5 447.5 c 128,-1,53
 739 483 739 483 752.5 521.5 c 128,-1,54
 766 560 766 560 776.5 599 c 128,-1,55
 787 638 787 638 796 674 c 1,56,-1
 962 613 l 1,44,45
EndSplineSet
EndChar

StartChar: cid26166
Encoding: 29233 29233 66
Width: 1024
Flags: W
HStem: -95 127<794.845 898.584> 168 124<493 656> 325 120<180 275 445 840> 416 202<59 155 874 966> 496 122<180 228 347.459 463 585.125 680.679 798 840> 698 112<118.22 268>
VStem: 59 121<445 496>
LayerCount: 2
Fore
SplineSet
867 241 m 1,0,1
 840 189 840 189 805 146 c 128,-1,2
 770 103 770 103 727 69 c 1,3,4
 838 41 838 41 971 32 c 1,5,6
 961 21 961 21 950 4.5 c 128,-1,7
 939 -12 939 -12 929 -29.5 c 128,-1,8
 919 -47 919 -47 910 -65 c 2,9,-1
 895 -95 l 1,10,11
 807 -85 807 -85 729.5 -66.5 c 128,-1,12
 652 -48 652 -48 585 -18 c 1,13,14
 525 -46 525 -46 459.5 -65 c 128,-1,15
 394 -84 394 -84 326 -96 c 1,16,17
 322 -84 322 -84 314.5 -68.5 c 128,-1,18
 307 -53 307 -53 298 -36.5 c 128,-1,19
 289 -20 289 -20 279 -5.5 c 128,-1,20
 269 9 269 9 261 20 c 1,21,22
 231 -13 231 -13 196.5 -41.5 c 128,-1,23
 162 -70 162 -70 121 -93 c 1,24,25
 115 -83 115 -83 103.5 -67.5 c 128,-1,26
 92 -52 92 -52 79 -36 c 128,-1,27
 66 -20 66 -20 52 -5.5 c 128,-1,28
 38 9 38 9 28 18 c 1,29,30
 124 66 124 66 183.5 142.5 c 128,-1,31
 243 219 243 219 275 325 c 1,32,-1
 155 325 l 1,33,-1
 155 416 l 1,34,-1
 59 416 l 1,35,-1
 59 618 l 1,36,-1
 228 618 l 1,37,-1
 218 646 l 1,38,-1
 208 672 l 1,39,-1
 268 699 l 1,40,-1
 194 698 l 1,41,-1
 121 697 l 1,42,43
 119 724 119 724 110 755.5 c 128,-1,44
 101 787 101 787 92 810 c 1,45,46
 191 812 191 812 295.5 816 c 128,-1,47
 400 820 400 820 501 827 c 128,-1,48
 602 834 602 834 695 842 c 128,-1,49
 788 850 788 850 867 861 c 1,50,-1
 905 742 l 1,51,52
 871 737 871 737 836 734 c 2,53,-1
 760 726 l 1,54,-1
 850 700 l 1,55,-1
 798 618 l 1,56,-1
 966 618 l 1,57,-1
 966 416 l 1,58,-1
 874 416 l 1,59,-1
 874 325 l 1,60,-1
 419 325 l 1,61,-1
 410 292 l 1,62,-1
 764 292 l 1,63,-1
 785 296 l 1,64,-1
 867 241 l 1,0,1
840 496 m 1,65,-1
 321 496 l 1,66,-1
 452 480 l 1,67,68
 450 472 450 472 448.5 463 c 128,-1,69
 447 454 447 454 445 445 c 1,70,-1
 840 445 l 1,71,-1
 840 496 l 1,65,-1
669 618 m 1,72,73
 682 642 682 642 694.5 669.5 c 128,-1,74
 707 697 707 697 716 722 c 1,75,-1
 638 716 l 1,76,-1
 558 711 l 1,77,78
 567 688 567 688 576.5 663.5 c 128,-1,79
 586 639 586 639 592 618 c 1,80,-1
 669 618 l 1,72,73
504 708 m 1,81,82
 459 706 459 706 414 705 c 2,83,-1
 323 700 l 1,84,85
 332 680 332 680 340.5 658.5 c 128,-1,86
 349 637 349 637 355 618 c 1,87,-1
 463 618 l 1,88,89
 458 635 458 635 453 653 c 2,90,-1
 441 684 l 1,91,-1
 504 708 l 1,81,82
304 445 m 1,92,93
 306 457 306 457 308 470 c 2,94,-1
 311 496 l 1,95,-1
 180 496 l 1,96,-1
 180 445 l 1,97,-1
 304 445 l 1,92,93
493 168 m 1,98,99
 513 154 513 154 535 141.5 c 128,-1,100
 557 129 557 129 582 118 c 1,101,102
 602 129 602 129 620.5 141.5 c 128,-1,103
 639 154 639 154 656 168 c 1,104,-1
 493 168 l 1,98,99
266 26 m 1,105,106
 312 32 312 32 356 40.5 c 128,-1,107
 400 49 400 49 441 61 c 1,108,109
 392 97 392 97 348 144 c 1,110,111
 313 80 313 80 266 26 c 1,105,106
EndSplineSet
EndChar

StartChar: uni7384
Encoding: 29572 29572 67
Width: 1024
Flags: W
HStem: 605 147<53 359 583.508 971>
LayerCount: 2
Fore
SplineSet
868 -93 m 1,0,1
 857 -67 857 -67 839.5 -36.5 c 128,-1,2
 822 -6 822 -6 802 27 c 1,3,-1
 574 7 l 2,4,5
 477 -1 477 -1 409 -7 c 2,6,-1
 295 -18 l 2,7,8
 249 -23 249 -23 219 -28 c 128,-1,9
 189 -33 189 -33 171 -37.5 c 128,-1,10
 153 -42 153 -42 138 -48 c 1,11,-1
 129 -19 l 1,12,-1
 116 20 l 1,13,-1
 100 61 l 2,14,15
 92 81 92 81 85 97 c 1,16,17
 102 100 102 100 118.5 106.5 c 128,-1,18
 135 113 135 113 152.5 121 c 128,-1,19
 170 129 170 129 190 141 c 2,20,-1
 238 168 l 2,21,22
 265 184 265 184 313 216 c 128,-1,23
 361 248 361 248 420 293 c 1,24,25
 349 289 349 289 304 285.5 c 128,-1,26
 259 282 259 282 231 278.5 c 128,-1,27
 203 275 203 275 187 271.5 c 128,-1,28
 171 268 171 268 160 264 c 1,29,-1
 152 295 l 1,30,-1
 139 334 l 2,31,32
 132 354 132 354 125 376 c 2,33,-1
 111 412 l 1,34,35
 133 417 133 417 151.5 427 c 128,-1,36
 170 437 170 437 194 455 c 2,37,-1
 223 476 l 2,38,39
 241 490 241 490 264 510 c 128,-1,40
 287 530 287 530 311.5 554.5 c 128,-1,41
 336 579 336 579 359 605 c 1,42,-1
 53 605 l 1,43,-1
 53 752 l 1,44,-1
 429 752 l 1,45,46
 421 775 421 775 412 796 c 2,47,-1
 393 837 l 1,48,-1
 535 879 l 1,49,50
 550 849 550 849 565.5 815 c 128,-1,51
 581 781 581 781 593 752 c 1,52,-1
 971 752 l 1,53,-1
 971 605 l 1,54,-1
 468 605 l 1,55,-1
 541 566 l 1,56,57
 503 527 503 527 459 489 c 128,-1,58
 415 451 415 451 369 416 c 1,59,-1
 577 423 l 1,60,61
 610 454 610 454 641.5 486 c 128,-1,62
 673 518 673 518 702 551 c 1,63,-1
 843 459 l 1,64,65
 747 360 747 360 642 279.5 c 128,-1,66
 537 199 537 199 429 132 c 1,67,-1
 719 150 l 1,68,69
 703 173 703 173 687 193 c 2,70,-1
 655 232 l 1,71,-1
 784 301 l 1,72,73
 816 265 816 265 848.5 224 c 128,-1,74
 881 183 881 183 910 142 c 128,-1,75
 939 101 939 101 963.5 62 c 128,-1,76
 988 23 988 23 1006 -10 c 1,77,-1
 868 -93 l 1,0,1
EndSplineSet
EndChar

StartChar: uni7389
Encoding: 29577 29577 68
Width: 1024
Flags: W
HStem: -66 146<43 421 585 790 808 984> 332 145<138 421 585 731 750 890> 672 146<87 421 585 940>
VStem: 421 164<80 332 477 672>
LayerCount: 2
Fore
SplineSet
984 80 m 1,0,-1
 984 -66 l 1,1,-1
 43 -66 l 1,2,-1
 43 80 l 1,3,-1
 421 80 l 1,4,-1
 421 332 l 1,5,-1
 138 332 l 1,6,-1
 138 477 l 1,7,-1
 421 477 l 1,8,-1
 421 672 l 1,9,-1
 87 672 l 1,10,-1
 87 818 l 1,11,-1
 940 818 l 1,12,-1
 940 672 l 1,13,-1
 585 672 l 1,14,-1
 585 477 l 1,15,-1
 890 477 l 1,16,-1
 890 332 l 1,17,-1
 750 332 l 1,18,-1
 837 249 l 2,19,20
 859 227 859 227 878 206.5 c 128,-1,21
 897 186 897 186 910 170 c 1,22,-1
 808 80 l 1,23,-1
 984 80 l 1,0,-1
585 80 m 1,24,-1
 790 80 l 1,25,26
 776 98 776 98 757 120 c 2,27,-1
 717 165 l 1,28,-1
 635 252 l 1,29,-1
 731 332 l 1,30,-1
 585 332 l 1,31,-1
 585 80 l 1,24,-1
EndSplineSet
EndChar

StartChar: cid26823
Encoding: 29645 29645 69
Width: 1024
Flags: W
HStem: 0 21G<48.3121 128.444> 392 136<39 144 283 359> 685 137<33 144 283 393>
VStem: 144 139<201 392 528 685>
LayerCount: 2
Fore
SplineSet
774 841 m 1,0,1
 766 819 766 819 753 797 c 1,2,3
 781 766 781 766 814 736.5 c 128,-1,4
 847 707 847 707 884 679.5 c 128,-1,5
 921 652 921 652 959.5 628.5 c 128,-1,6
 998 605 998 605 1036 587 c 1,7,8
 1024 577 1024 577 1009 562 c 128,-1,9
 994 547 994 547 980.5 531 c 128,-1,10
 967 515 967 515 954 498 c 128,-1,11
 941 481 941 481 933 468 c 1,12,13
 870 507 870 507 804.5 563.5 c 128,-1,14
 739 620 739 620 684 684 c 1,15,16
 578 540 578 540 419 455 c 1,17,18
 411 468 411 468 397 485 c 128,-1,19
 383 502 383 502 368 519 c 1,20,-1
 368 392 l 1,21,-1
 283 392 l 1,22,-1
 283 201 l 1,23,-1
 390 227 l 1,24,-1
 408 94 l 1,25,26
 318 68 318 68 224 45 c 2,27,-1
 52 0 l 1,28,-1
 26 141 l 1,29,-1
 82 153 l 2,30,31
 112 159 112 159 144 167 c 1,32,-1
 144 392 l 1,33,-1
 39 392 l 1,34,-1
 39 528 l 1,35,-1
 144 528 l 1,36,-1
 144 685 l 1,37,-1
 33 685 l 1,38,-1
 33 822 l 1,39,-1
 393 822 l 1,40,-1
 393 685 l 1,41,-1
 283 685 l 1,42,-1
 283 528 l 1,43,-1
 359 528 l 1,44,45
 349 539 349 539 340 549 c 2,46,-1
 323 564 l 1,47,48
 431 615 431 615 514 699.5 c 128,-1,49
 597 784 597 784 641 883 c 1,50,-1
 774 841 l 1,0,1
776 536 m 1,51,52
 727 471 727 471 660 417.5 c 128,-1,53
 593 364 593 364 526 327 c 1,54,55
 511 350 511 350 486 378 c 128,-1,56
 461 406 461 406 435 426 c 1,57,58
 465 439 465 439 497 456.5 c 128,-1,59
 529 474 529 474 560 494.5 c 128,-1,60
 591 515 591 515 617.5 538 c 128,-1,61
 644 561 644 561 663 585 c 1,62,-1
 776 536 l 1,51,52
884 412 m 1,63,64
 815 316 815 316 719 241 c 128,-1,65
 623 166 623 166 517 115 c 1,66,67
 503 142 503 142 477.5 172.5 c 128,-1,68
 452 203 452 203 426 225 c 1,69,70
 473 243 473 243 521 268.5 c 128,-1,71
 569 294 569 294 613.5 324.5 c 128,-1,72
 658 355 658 355 696.5 390.5 c 128,-1,73
 735 426 735 426 762 465 c 1,74,-1
 884 412 l 1,63,64
979 268 m 1,75,76
 939 195 939 195 885 138.5 c 128,-1,77
 831 82 831 82 766.5 37.5 c 128,-1,78
 702 -7 702 -7 626.5 -40.5 c 128,-1,79
 551 -74 551 -74 467 -98 c 1,80,81
 461 -83 461 -83 451 -66 c 128,-1,82
 441 -49 441 -49 429.5 -31.5 c 128,-1,83
 418 -14 418 -14 405.5 1.5 c 128,-1,84
 393 17 393 17 381 31 c 1,85,86
 458 47 458 47 527.5 72.5 c 128,-1,87
 597 98 597 98 657 133.5 c 128,-1,88
 717 169 717 169 765.5 215 c 128,-1,89
 814 261 814 261 847 321 c 1,90,-1
 979 268 l 1,75,76
EndSplineSet
EndChar

StartChar: cid26847
Encoding: 29664 29664 70
Width: 1024
Flags: W
HStem: 0 21G<50.3121 130.098> 321 134<398 580 820 998> 392 136<41 146 288 379> 572 135<582 631 773 957> 685 137<35 146 288 395>
VStem: 146 142<202 392 528 685> 631 142<-97 161 455 572 707 876>
LayerCount: 2
Fore
SplineSet
820 321 m 1,0,1
 859 248 859 248 913 181.5 c 128,-1,2
 967 115 967 115 1026 72 c 1,3,4
 1014 62 1014 62 999.5 48 c 128,-1,5
 985 34 985 34 970.5 18 c 128,-1,6
 956 2 956 2 943.5 -14.5 c 128,-1,7
 931 -31 931 -31 922 -44 c 1,8,9
 880 -5 880 -5 843 47 c 128,-1,10
 806 99 806 99 773 161 c 1,11,-1
 773 -97 l 1,12,-1
 631 -97 l 1,13,-1
 631 161 l 1,14,15
 589 93 589 93 538.5 38 c 128,-1,16
 488 -17 488 -17 429 -56 c 1,17,18
 421 -43 421 -43 409 -27.5 c 128,-1,19
 397 -12 397 -12 384 3.5 c 128,-1,20
 371 19 371 19 357 33 c 128,-1,21
 343 47 343 47 332 57 c 1,22,23
 354 68 354 68 376 85 c 1,24,25
 293 62 293 62 210 41 c 2,26,-1
 54 0 l 1,27,-1
 28 141 l 1,28,-1
 84 154 l 2,29,30
 114 160 114 160 146 168 c 1,31,-1
 146 392 l 1,32,-1
 41 392 l 1,33,-1
 41 528 l 1,34,-1
 146 528 l 1,35,-1
 146 685 l 1,36,-1
 35 685 l 1,37,-1
 35 822 l 1,38,-1
 395 822 l 1,39,-1
 395 685 l 1,40,-1
 288 685 l 1,41,-1
 288 528 l 1,42,-1
 379 528 l 1,43,-1
 379 392 l 1,44,-1
 288 392 l 1,45,-1
 288 202 l 1,46,-1
 380 225 l 1,47,-1
 397 100 l 1,48,49
 452 144 452 144 499.5 200.5 c 128,-1,50
 547 257 547 257 580 321 c 1,51,-1
 398 321 l 1,52,-1
 398 455 l 1,53,-1
 631 455 l 1,54,-1
 631 572 l 1,55,-1
 542 572 l 1,56,57
 530 541 530 541 516.5 514 c 128,-1,58
 503 487 503 487 487 464 c 1,59,60
 478 472 478 472 464 482 c 2,61,-1
 433 504 l 2,62,63
 417 514 417 514 401 523 c 128,-1,64
 385 532 385 532 373 539 c 1,65,66
 410 590 410 590 432.5 666.5 c 128,-1,67
 455 743 455 743 466 825 c 1,68,-1
 600 802 l 1,69,-1
 592 755 l 1,70,-1
 582 707 l 1,71,-1
 631 707 l 1,72,-1
 631 876 l 1,73,-1
 773 876 l 1,74,-1
 773 707 l 1,75,-1
 957 707 l 1,76,-1
 957 572 l 1,77,-1
 773 572 l 1,78,-1
 773 455 l 1,79,-1
 998 455 l 1,80,-1
 998 321 l 1,81,-1
 820 321 l 1,0,1
EndSplineSet
EndChar

StartChar: uni751F
Encoding: 29983 29983 71
Width: 1024
Flags: W
HStem: -70 146<49 436 592 981> 252 143<171 436 592 886> 552 145<305 436 592 927>
VStem: 436 156<76 252 395 552 697 876>
LayerCount: 2
Fore
SplineSet
981 76 m 1,0,-1
 981 -70 l 1,1,-1
 49 -70 l 1,2,-1
 49 76 l 1,3,-1
 436 76 l 1,4,-1
 436 252 l 1,5,-1
 171 252 l 1,6,-1
 171 395 l 1,7,-1
 436 395 l 1,8,-1
 436 552 l 1,9,-1
 240 552 l 1,10,11
 218 512 218 512 196 476.5 c 128,-1,12
 174 441 174 441 151 413 c 1,13,14
 140 422 140 422 122.5 434.5 c 128,-1,15
 105 447 105 447 87 460 c 2,16,-1
 49 483 l 1,17,-1
 16 503 l 1,18,19
 46 535 46 535 72.5 575.5 c 128,-1,20
 99 616 99 616 122 663.5 c 128,-1,21
 145 711 145 711 163.5 762 c 128,-1,22
 182 813 182 813 196 865 c 1,23,-1
 350 830 l 1,24,25
 341 796 341 796 329.5 763 c 128,-1,26
 318 730 318 730 305 697 c 1,27,-1
 436 697 l 1,28,-1
 436 876 l 1,29,-1
 592 876 l 1,30,-1
 592 697 l 1,31,-1
 927 697 l 1,32,-1
 927 552 l 1,33,-1
 592 552 l 1,34,-1
 592 395 l 1,35,-1
 886 395 l 1,36,-1
 886 252 l 1,37,-1
 592 252 l 1,38,-1
 592 76 l 1,39,-1
 981 76 l 1,0,-1
EndSplineSet
EndChar

StartChar: cid28093
Encoding: 30343 30343 72
Width: 1024
Flags: W
HStem: -82 129<43 442 598 984> 79 122<164 442 598 874> 234 125<113 442 598 915> 393 114<293 727> 540 105<293 727> 677 114<293 417.319 586 727>
LayerCount: 2
Fore
SplineSet
984 47 m 1,0,-1
 984 -82 l 1,1,-1
 43 -82 l 1,2,-1
 43 47 l 1,3,-1
 442 47 l 1,4,-1
 442 79 l 1,5,-1
 164 79 l 1,6,-1
 164 201 l 1,7,-1
 442 201 l 1,8,-1
 442 234 l 1,9,-1
 113 234 l 1,10,-1
 113 359 l 1,11,-1
 915 359 l 1,12,-1
 915 234 l 1,13,-1
 598 234 l 1,14,-1
 598 201 l 1,15,-1
 874 201 l 1,16,-1
 874 79 l 1,17,-1
 598 79 l 1,18,-1
 598 47 l 1,19,-1
 984 47 l 1,0,-1
884 393 m 1,20,-1
 143 393 l 1,21,-1
 143 791 l 1,22,-1
 412 791 l 1,23,24
 417 811 417 811 421.5 832 c 128,-1,25
 426 853 426 853 428 871 c 1,26,-1
 615 860 l 1,27,-1
 601 824 l 2,28,29
 594 807 594 807 586 791 c 1,30,-1
 884 791 l 1,31,-1
 884 393 l 1,20,-1
727 540 m 1,32,-1
 293 540 l 1,33,-1
 293 507 l 1,34,-1
 727 507 l 1,35,-1
 727 540 l 1,32,-1
727 677 m 1,36,-1
 293 677 l 1,37,-1
 293 645 l 1,38,-1
 727 645 l 1,39,-1
 727 677 l 1,36,-1
EndSplineSet
EndChar

StartChar: cid29479
Encoding: 31179 31179 73
Width: 1024
Flags: W
HStem: 451 136<35 156 333 445> 671 114<65.5354 151.439>
VStem: 188 145<-97 238 587 686> 480 130<449.497 632> 644 135<405.121 871>
LayerCount: 2
Fore
SplineSet
787 370 m 1,0,1
 800 312 800 312 820.5 259.5 c 128,-1,2
 841 207 841 207 867.5 162.5 c 128,-1,3
 894 118 894 118 929 82 c 128,-1,4
 964 46 964 46 1009 22 c 1,5,6
 998 13 998 13 984.5 -1.5 c 128,-1,7
 971 -16 971 -16 958.5 -32 c 128,-1,8
 946 -48 946 -48 935.5 -64 c 128,-1,9
 925 -80 925 -80 918 -93 c 1,10,11
 845 -47 845 -47 796.5 21 c 128,-1,12
 748 89 748 89 715 176 c 1,13,14
 683 91 683 91 630 23 c 128,-1,15
 577 -45 577 -45 492 -98 c 1,16,17
 485 -85 485 -85 473.5 -69.5 c 128,-1,18
 462 -54 462 -54 449 -39 c 128,-1,19
 436 -24 436 -24 422.5 -10.5 c 128,-1,20
 409 3 409 3 396 12 c 1,21,22
 462 51 462 51 505.5 99.5 c 128,-1,23
 549 148 549 148 576.5 207 c 128,-1,24
 604 266 604 266 618 336.5 c 128,-1,25
 632 407 632 407 637.5 489 c 128,-1,26
 643 571 643 571 644 667 c 2,27,-1
 644 871 l 1,28,-1
 781 871 l 1,29,-1
 779 650 l 2,30,31
 778 547 778 547 770 454 c 1,32,-1
 775 429 l 2,33,34
 777 417 777 417 779 403 c 1,35,36
 801 458 801 458 821 525 c 128,-1,37
 841 592 841 592 852 649 c 1,38,-1
 998 617 l 1,39,40
 972 541 972 541 944 467.5 c 128,-1,41
 916 394 916 394 892 342 c 1,42,-1
 787 370 l 1,0,1
386 184 m 1,43,44
 377 204 377 204 362 230 c 2,45,-1
 333 282 l 1,46,-1
 333 -97 l 1,47,-1
 188 -97 l 1,48,-1
 188 238 l 1,49,50
 164 183 164 183 137.5 134 c 128,-1,51
 111 85 111 85 81 48 c 1,52,53
 76 64 76 64 67 84.5 c 128,-1,54
 58 105 58 105 48.5 126 c 128,-1,55
 39 147 39 147 28.5 166.5 c 128,-1,56
 18 186 18 186 9 202 c 1,57,58
 52 249 52 249 90 316 c 128,-1,59
 128 383 128 383 156 451 c 1,60,-1
 35 451 l 1,61,-1
 35 587 l 1,62,-1
 188 587 l 1,63,-1
 188 686 l 1,64,65
 158 681 158 681 129 678 c 2,66,-1
 71 671 l 1,67,68
 66 696 66 696 54 729 c 128,-1,69
 42 762 42 762 30 785 c 1,70,71
 76 792 76 792 123.5 801.5 c 128,-1,72
 171 811 171 811 215.5 822 c 128,-1,73
 260 833 260 833 301 845 c 128,-1,74
 342 857 342 857 376 871 c 1,75,-1
 467 753 l 1,76,77
 435 742 435 742 402 732 c 128,-1,78
 369 722 369 722 333 714 c 1,79,-1
 333 587 l 1,80,-1
 445 587 l 1,81,-1
 445 451 l 1,82,-1
 333 451 l 1,83,-1
 333 440 l 1,84,-1
 362 414 l 2,85,86
 381 395 381 395 402.5 373.5 c 128,-1,87
 424 352 424 352 442 334 c 2,88,-1
 467 306 l 1,89,-1
 386 184 l 1,43,44
431 381 m 1,90,91
 443 404 443 404 453 435.5 c 128,-1,92
 463 467 463 467 469.5 503 c 128,-1,93
 476 539 476 539 479.5 576 c 128,-1,94
 483 613 483 613 484 649 c 1,95,-1
 612 632 l 1,96,97
 613 593 613 593 610 552 c 128,-1,98
 607 511 607 511 601 472 c 128,-1,99
 595 433 595 433 584 397 c 128,-1,100
 573 361 573 361 559 332 c 1,101,-1
 431 381 l 1,90,91
EndSplineSet
EndChar

StartChar: cid29542
Encoding: 31216 31216 74
Width: 1024
Flags: W
HStem: -94 136<559.584 629.945> 450 138<37 147 299 406> 674 112<66.2012 150.312>
VStem: 165 134<-97 231 588 686> 475 136<334.352 432.318> 630 146<42.8877 618> 870 138<112.715 209.297>
LayerCount: 2
Fore
SplineSet
915 469 m 1,0,1
 930 426 930 426 945.5 379.5 c 128,-1,2
 961 333 961 333 972.5 286.5 c 128,-1,3
 984 240 984 240 993 196 c 128,-1,4
 1002 152 1002 152 1008 115 c 1,5,-1
 870 71 l 1,6,7
 867 108 867 108 859 152.5 c 128,-1,8
 851 197 851 197 839.5 244.5 c 128,-1,9
 828 292 828 292 815 339.5 c 128,-1,10
 802 387 802 387 787 429 c 1,11,-1
 915 469 l 1,0,1
776 618 m 1,12,-1
 776 58 l 2,13,14
 776 8 776 8 765.5 -21 c 128,-1,15
 755 -50 755 -50 724.5 -67 c 128,-1,16
 694 -84 694 -84 654.5 -89 c 128,-1,17
 615 -94 615 -94 563 -94 c 1,18,19
 561 -79 561 -79 556 -61 c 128,-1,20
 551 -43 551 -43 544.5 -24 c 128,-1,21
 538 -5 538 -5 529 12 c 2,22,-1
 514 44 l 1,23,24
 543 42 543 42 571 42 c 2,25,-1
 610 42 l 2,26,27
 629 42 629 42 630 59 c 2,28,-1
 630 618 l 1,29,-1
 591 618 l 1,30,31
 572 575 572 575 550.5 537 c 128,-1,32
 529 499 529 499 506 469 c 1,33,34
 490 483 490 483 460.5 502 c 128,-1,35
 431 521 431 521 406 536 c 1,36,-1
 406 450 l 1,37,-1
 299 450 l 1,38,-1
 299 437 l 1,39,-1
 329 411 l 2,40,41
 348 393 348 393 369 373 c 2,42,-1
 406 335 l 1,43,-1
 429 309 l 1,44,-1
 349 189 l 1,45,46
 341 209 341 209 327.5 234 c 128,-1,47
 314 259 314 259 299 286 c 1,48,-1
 299 -97 l 1,49,-1
 165 -97 l 1,50,-1
 165 231 l 1,51,52
 145 183 145 183 122 141.5 c 128,-1,53
 99 100 99 100 76 68 c 1,54,55
 71 83 71 83 63.5 100.5 c 128,-1,56
 56 118 56 118 47 136 c 2,57,-1
 12 201 l 1,58,59
 51 247 51 247 86 314.5 c 128,-1,60
 121 382 121 382 147 450 c 1,61,-1
 37 450 l 1,62,-1
 37 588 l 1,63,-1
 165 588 l 1,64,-1
 165 686 l 1,65,66
 118 679 118 679 71 674 c 1,67,68
 67 698 67 698 55 730.5 c 128,-1,69
 43 763 43 763 32 786 c 1,70,71
 75 792 75 792 119.5 801.5 c 128,-1,72
 164 811 164 811 207 822 c 128,-1,73
 250 833 250 833 289 845.5 c 128,-1,74
 328 858 328 858 360 871 c 1,75,-1
 440 752 l 1,76,77
 407 741 407 741 371.5 730.5 c 128,-1,78
 336 720 336 720 299 712 c 1,79,-1
 299 588 l 1,80,-1
 406 588 l 1,81,-1
 406 577 l 1,82,83
 447 635 447 635 477 712.5 c 128,-1,84
 507 790 507 790 523 872 c 1,85,-1
 665 844 l 1,86,87
 660 821 660 821 654 799 c 128,-1,88
 648 777 648 777 641 756 c 1,89,-1
 892 756 l 1,90,-1
 912 761 l 1,91,-1
 1005 738 l 1,92,93
 987 677 987 677 964.5 616 c 128,-1,94
 942 555 942 555 922 501 c 1,95,-1
 794 531 l 1,96,97
 813 574 813 574 829 618 c 1,98,-1
 776 618 l 1,12,-1
611 431 m 1,99,100
 603 379 603 379 591 327.5 c 128,-1,101
 579 276 579 276 563.5 228.5 c 128,-1,102
 548 181 548 181 530 139.5 c 128,-1,103
 512 98 512 98 493 66 c 1,104,105
 484 74 484 74 468 84 c 2,106,-1
 436 104 l 2,107,108
 420 114 420 114 403.5 123.5 c 128,-1,109
 387 133 387 133 375 139 c 1,110,111
 393 167 393 167 409 203.5 c 128,-1,112
 425 240 425 240 438 281.5 c 128,-1,113
 451 323 451 323 460 367 c 128,-1,114
 469 411 469 411 475 456 c 1,115,-1
 611 431 l 1,99,100
EndSplineSet
EndChar

StartChar: cid30030
Encoding: 31456 31456 75
Width: 1024
Flags: W
HStem: -3 117<43 430 588 984> 146 97<293 430 588 725> 276 91<293 725> 400 97<293 725> 522 116<48 257 408.038 611 771 975> 701 115<112 315 391 429 584.688 631 717 919>
VStem: 430 158<-97 -3 114 146 816 858.687>
LayerCount: 2
Fore
SplineSet
984 -3 m 1,0,-1
 588 -3 l 1,1,-1
 588 -97 l 1,2,-1
 430 -97 l 1,3,-1
 430 -3 l 1,4,-1
 43 -3 l 1,5,-1
 43 114 l 1,6,-1
 430 114 l 1,7,-1
 430 146 l 1,8,-1
 147 146 l 1,9,-1
 147 497 l 1,10,-1
 878 497 l 1,11,-1
 878 146 l 1,12,-1
 588 146 l 1,13,-1
 588 114 l 1,14,-1
 984 114 l 1,15,-1
 984 -3 l 1,0,-1
293 367 m 1,16,-1
 725 367 l 1,17,-1
 725 400 l 1,18,-1
 293 400 l 1,19,-1
 293 367 l 1,16,-1
293 243 m 1,20,-1
 725 243 l 1,21,-1
 725 276 l 1,22,-1
 293 276 l 1,23,-1
 293 243 l 1,20,-1
975 522 m 1,24,-1
 48 522 l 1,25,-1
 48 638 l 1,26,-1
 257 638 l 1,27,28
 252 651 252 651 248 664 c 2,29,-1
 240 687 l 1,30,-1
 315 701 l 1,31,-1
 112 701 l 1,32,-1
 112 816 l 1,33,-1
 429 816 l 1,34,35
 426 827 426 827 422.5 838 c 128,-1,36
 419 849 419 849 415 859 c 1,37,-1
 565 888 l 1,38,39
 579 854 579 854 593 816 c 1,40,-1
 919 816 l 1,41,-1
 919 701 l 1,42,-1
 717 701 l 1,43,-1
 794 690 l 1,44,45
 787 676 787 676 781.5 662.5 c 128,-1,46
 776 649 776 649 771 638 c 1,47,-1
 975 638 l 1,48,-1
 975 522 l 1,24,-1
391 701 m 1,49,50
 398 686 398 686 404.5 669.5 c 128,-1,51
 411 653 411 653 416 638 c 1,52,-1
 611 638 l 1,53,-1
 623 671 l 1,54,-1
 631 701 l 1,55,-1
 391 701 l 1,49,50
EndSplineSet
EndChar

StartChar: cid32085
Encoding: 32467 32467 76
Width: 1024
Flags: W
HStem: -52 133<620 791> 195 133<620 791> 386 141<451 627 783 958> 613 144<433 627 783 986>
VStem: 474 146<-96 -52 81 195> 627 156<527 613 757 877> 791 152<-92 -52 81 195>
LayerCount: 2
Fore
SplineSet
783 613 m 1,0,-1
 783 527 l 1,1,-1
 958 527 l 1,2,-1
 958 386 l 1,3,-1
 451 386 l 1,4,-1
 451 527 l 1,5,-1
 627 527 l 1,6,-1
 627 613 l 1,7,-1
 433 613 l 1,8,-1
 455 599 l 1,9,10
 416 534 416 534 370 472 c 128,-1,11
 324 410 324 410 271 352 c 1,12,-1
 420 374 l 1,13,-1
 421 341 l 1,14,-1
 422 306 l 2,15,16
 423 289 423 289 424.5 273 c 128,-1,17
 426 257 426 257 428 245 c 1,18,-1
 260 215 l 2,19,20
 195 203 195 203 157 194 c 128,-1,21
 119 185 119 185 100 178.5 c 128,-1,22
 81 172 81 172 69 166 c 1,23,-1
 48 232 l 2,24,25
 41 251 41 251 34 272 c 2,26,-1
 19 307 l 1,27,28
 43 312 43 312 62.5 328 c 128,-1,29
 82 344 82 344 109 372 c 0,30,31
 119 382 119 382 136 401.5 c 128,-1,32
 153 421 153 421 173 447 c 1,33,34
 146 444 146 444 127.5 441 c 128,-1,35
 109 438 109 438 96 435 c 2,36,-1
 75 430 l 2,37,38
 66 427 66 427 59 424 c 1,39,-1
 51 454 l 2,40,41
 45 472 45 472 38 492.5 c 128,-1,42
 31 513 31 513 23 533 c 128,-1,43
 15 553 15 553 8 568 c 1,44,45
 26 573 26 573 41 587 c 128,-1,46
 56 601 56 601 74 625 c 0,47,48
 82 636 82 636 98 661.5 c 128,-1,49
 114 687 114 687 132 722 c 128,-1,50
 150 757 150 757 167.5 798 c 128,-1,51
 185 839 185 839 199 881 c 1,52,-1
 352 818 l 1,53,54
 323 756 323 756 285.5 693.5 c 128,-1,55
 248 631 248 631 207 575 c 1,56,-1
 264 580 l 1,57,58
 280 606 280 606 295 632 c 128,-1,59
 310 658 310 658 324 685 c 1,60,-1
 423 620 l 1,61,-1
 423 757 l 1,62,-1
 627 757 l 1,63,-1
 627 877 l 1,64,-1
 783 877 l 1,65,-1
 783 757 l 1,66,-1
 986 757 l 1,67,-1
 986 613 l 1,68,-1
 783 613 l 1,0,-1
474 328 m 1,69,-1
 943 328 l 1,70,-1
 943 -92 l 1,71,-1
 791 -92 l 1,72,-1
 791 -52 l 1,73,-1
 620 -52 l 1,74,-1
 620 -96 l 1,75,-1
 474 -96 l 1,76,-1
 474 328 l 1,69,-1
620 195 m 1,77,-1
 620 81 l 1,78,-1
 791 81 l 1,79,-1
 791 195 l 1,80,-1
 620 195 l 1,77,-1
20 87 m 1,81,82
 60 92 60 92 109 100 c 2,83,-1
 210 117 l 1,84,-1
 319 135 l 1,85,-1
 430 155 l 1,86,-1
 442 15 l 1,87,88
 391 4 391 4 339 -6 c 2,89,-1
 236 -28 l 1,90,-1
 136 -47 l 2,91,92
 87 -56 87 -56 44 -66 c 1,93,-1
 20 87 l 1,81,82
EndSplineSet
EndChar

StartChar: cid32289
Encoding: 32618 32618 77
Width: 1024
Flags: W
HStem: 12 136<44 340> 14 144<720 984> 195 122<102 340> 198 127<720 937> 360 133<79 340 720 965> 555 118<234 329 464 560 695 793> 729 118<234 329 464 560 695 793>
VStem: 340 156<-95 12 148 195 317 360 493 541> 558 162<-99 14 158 198 325 359 493 542>
LayerCount: 2
Fore
SplineSet
984 14 m 1,0,-1
 720 14 l 1,1,-1
 720 -99 l 1,2,-1
 558 -99 l 1,3,-1
 558 542 l 1,4,-1
 720 542 l 1,5,-1
 720 493 l 1,6,-1
 965 493 l 1,7,-1
 965 359 l 1,8,-1
 720 359 l 1,9,-1
 720 325 l 1,10,-1
 937 325 l 1,11,-1
 937 198 l 1,12,-1
 720 198 l 1,13,-1
 720 158 l 1,14,-1
 984 158 l 1,15,-1
 984 14 l 1,0,-1
340 541 m 1,16,-1
 496 541 l 1,17,-1
 496 -95 l 1,18,-1
 340 -95 l 1,19,-1
 340 12 l 1,20,-1
 44 12 l 1,21,-1
 44 148 l 1,22,-1
 340 148 l 1,23,-1
 340 195 l 1,24,-1
 102 195 l 1,25,-1
 102 317 l 1,26,-1
 340 317 l 1,27,-1
 340 360 l 1,28,-1
 79 360 l 1,29,-1
 79 493 l 1,30,-1
 340 493 l 1,31,-1
 340 541 l 1,16,-1
943 555 m 1,32,-1
 92 555 l 1,33,-1
 92 847 l 1,34,-1
 943 847 l 1,35,-1
 943 555 l 1,32,-1
329 729 m 1,36,-1
 234 729 l 1,37,-1
 234 673 l 1,38,-1
 329 673 l 1,39,-1
 329 729 l 1,36,-1
560 729 m 1,40,-1
 464 729 l 1,41,-1
 464 673 l 1,42,-1
 560 673 l 1,43,-1
 560 729 l 1,40,-1
793 729 m 1,44,-1
 695 729 l 1,45,-1
 695 673 l 1,46,-1
 793 673 l 1,47,-1
 793 729 l 1,44,-1
EndSplineSet
EndChar

StartChar: uni7FBD
Encoding: 32701 32701 78
Width: 1024
Flags: W
HStem: -90 147<195.643 321.295 660.507 800.026> 680 142<58 328 517 801>
VStem: 328 147<63.1895 230 377 680> 801 152<57.739 246 394 680>
LayerCount: 2
Fore
SplineSet
629 626 m 1,0,1
 647 608 647 608 666 586 c 2,2,-1
 702 544 l 2,3,4
 719 522 719 522 735 502.5 c 128,-1,5
 751 483 751 483 762 467 c 1,6,-1
 641 381 l 1,7,8
 631 397 631 397 616 419 c 128,-1,9
 601 441 601 441 583.5 464 c 128,-1,10
 566 487 566 487 548 511 c 2,11,-1
 512 554 l 1,12,-1
 629 626 l 1,0,1
953 81 m 2,13,14
 953 21 953 21 938.5 -12 c 128,-1,15
 924 -45 924 -45 886.5 -63 c 128,-1,16
 849 -81 849 -81 795 -85.5 c 128,-1,17
 741 -90 741 -90 665 -90 c 1,18,19
 663 -75 663 -75 657 -55 c 128,-1,20
 651 -35 651 -35 644 -14 c 128,-1,21
 637 7 637 7 629 26.5 c 128,-1,22
 621 46 621 46 613 60 c 1,23,24
 635 58 635 58 659 58 c 2,25,-1
 707 57 l 2,26,27
 729 56 729 56 746 57 c 2,28,-1
 772 57 l 2,29,30
 801 57 801 57 801 84 c 2,31,-1
 801 246 l 1,32,-1
 677 175 l 2,33,34
 616 139 616 139 561 110 c 1,35,-1
 487 247 l 1,36,37
 516 259 516 259 553 275 c 2,38,-1
 630 311 l 2,39,40
 670 329 670 329 714 351 c 2,41,-1
 801 394 l 1,42,-1
 801 680 l 1,43,-1
 517 680 l 1,44,-1
 517 822 l 1,45,-1
 953 822 l 1,46,-1
 953 81 l 2,13,14
169 618 m 1,47,48
 185 599 185 599 203 577.5 c 128,-1,49
 221 556 221 556 237.5 534.5 c 128,-1,50
 254 513 254 513 268.5 492 c 128,-1,51
 283 471 283 471 293 455 c 1,52,-1
 170 374 l 1,53,54
 161 391 161 391 147 413 c 128,-1,55
 133 435 133 435 116.5 458.5 c 128,-1,56
 100 482 100 482 83 506 c 2,57,-1
 50 550 l 1,58,-1
 169 618 l 1,47,48
475 81 m 2,59,60
 475 23 475 23 461 -9.5 c 128,-1,61
 447 -42 447 -42 411.5 -59.5 c 128,-1,62
 376 -77 376 -77 324 -81.5 c 128,-1,63
 272 -86 272 -86 199 -86 c 1,64,65
 197 -71 197 -71 191.5 -51.5 c 128,-1,66
 186 -32 186 -32 179.5 -12 c 128,-1,67
 173 8 173 8 165 27 c 128,-1,68
 157 46 157 46 150 60 c 1,69,70
 172 58 172 58 195 58 c 2,71,-1
 239 57 l 2,72,73
 259 56 259 56 275 57 c 2,74,-1
 300 57 l 2,75,76
 315 57 315 57 321.5 63 c 128,-1,77
 328 69 328 69 328 83 c 2,78,-1
 328 230 l 1,79,80
 259 191 259 191 191 155 c 2,81,-1
 65 86 l 1,82,-1
 11 223 l 1,83,84
 41 235 41 235 78 253 c 2,85,-1
 156 291 l 2,86,87
 197 310 197 310 241 333 c 2,88,-1
 328 377 l 1,89,-1
 328 680 l 1,90,-1
 58 680 l 1,91,-1
 58 822 l 1,92,-1
 475 822 l 1,93,-1
 475 81 l 2,59,60
EndSplineSet
EndChar

StartChar: cid32485
Encoding: 32724 32724 79
Width: 1024
Flags: W
HStem: -79 123<462.369 551.873 738.804 836.842> 172 130<24 142 303 397> 361 128<41 159 303 387> 546 130<28 92 120 159 339 401> 706 134<422 556 710 842>
VStem: 159 144<302 361 489 546> 450 105<442.884 513.033> 556 132<48.1267 213 347.75 706> 842 134<48.6425 226 361.875 439 465 706>
LayerCount: 2
Fore
SplineSet
976 62 m 2,0,1
 976 11 976 11 964.5 -16.5 c 128,-1,2
 953 -44 953 -44 923.5 -60 c 128,-1,3
 894 -76 894 -76 850 -79 c 128,-1,4
 806 -82 806 -82 742 -82 c 1,5,6
 741 -69 741 -69 738 -52 c 128,-1,7
 735 -35 735 -35 730.5 -17.5 c 128,-1,8
 726 0 726 0 721 16.5 c 128,-1,9
 716 33 716 33 710 45 c 1,10,-1
 742 44 l 1,11,-1
 820 43 l 2,12,13
 832 44 832 44 837 48.5 c 128,-1,14
 842 53 842 53 842 65 c 2,15,-1
 842 226 l 1,16,17
 818 202 818 202 795 180 c 2,18,-1
 748 137 l 1,19,-1
 690 253 l 1,20,21
 719 276 719 276 759 309 c 128,-1,22
 799 342 799 342 842 381 c 1,23,-1
 842 439 l 1,24,-1
 737 414 l 1,25,26
 735 433 735 433 731 459 c 128,-1,27
 727 485 727 485 722 513 c 2,28,-1
 712 569 l 2,29,30
 706 597 706 597 699 622 c 1,31,-1
 801 642 l 1,32,33
 812 600 812 600 823.5 552 c 128,-1,34
 835 504 835 504 842 465 c 1,35,-1
 842 706 l 1,36,-1
 710 706 l 1,37,-1
 710 840 l 1,38,-1
 976 840 l 1,39,-1
 976 62 l 2,0,1
688 62 m 2,40,41
 688 13 688 13 678 -14 c 128,-1,42
 668 -41 668 -41 638.5 -56.5 c 128,-1,43
 609 -72 609 -72 567.5 -75.5 c 128,-1,44
 526 -79 526 -79 465 -79 c 1,45,46
 463 -52 463 -52 454 -16.5 c 128,-1,47
 445 19 445 19 434 45 c 1,48,-1
 465 44 l 1,49,-1
 537 43 l 2,50,51
 548 44 548 44 552 48 c 128,-1,52
 556 52 556 52 556 63 c 2,53,-1
 556 213 l 1,54,55
 527 182 527 182 498.5 152.5 c 128,-1,56
 470 123 470 123 442 95 c 1,57,-1
 397 187 l 1,58,-1
 397 172 l 1,59,-1
 289 172 l 1,60,61
 272 92 272 92 233.5 22.5 c 128,-1,62
 195 -47 195 -47 122 -96 c 1,63,-1
 102 -70 l 2,64,65
 91 -56 91 -56 78 -40.5 c 128,-1,66
 65 -25 65 -25 51 -11 c 128,-1,67
 37 3 37 3 25 12 c 1,68,69
 75 39 75 39 102 81 c 128,-1,70
 129 123 129 123 142 172 c 1,71,-1
 24 172 l 1,72,-1
 24 302 l 1,73,-1
 159 302 l 1,74,-1
 159 361 l 1,75,-1
 41 361 l 1,76,-1
 41 489 l 1,77,-1
 159 489 l 1,78,-1
 159 546 l 1,79,-1
 28 546 l 1,80,-1
 28 676 l 1,81,-1
 92 676 l 1,82,83
 84 710 84 710 69 753 c 128,-1,84
 54 796 54 796 40 833 c 1,85,-1
 158 869 l 1,86,87
 175 831 175 831 192 787 c 128,-1,88
 209 743 209 743 217 711 c 1,89,-1
 120 676 l 1,90,-1
 205 676 l 1,91,92
 225 722 225 722 243 776 c 128,-1,93
 261 830 261 830 272 877 c 1,94,-1
 413 838 l 1,95,96
 395 796 395 796 376 755 c 2,97,-1
 339 676 l 1,98,-1
 401 676 l 1,99,-1
 401 616 l 1,100,-1
 496 641 l 1,101,-1
 513 591 l 2,102,103
 522 564 522 564 530 539 c 2,104,-1
 545 488 l 2,105,106
 551 463 551 463 555 445 c 1,107,-1
 450 414 l 1,108,109
 447 432 447 432 442 454.5 c 128,-1,110
 437 477 437 477 430.5 502 c 128,-1,111
 424 527 424 527 417 554 c 2,112,-1
 401 603 l 1,113,-1
 401 546 l 1,114,-1
 303 546 l 1,115,-1
 303 489 l 1,116,-1
 387 489 l 1,117,-1
 387 361 l 1,118,-1
 303 361 l 1,119,-1
 303 302 l 1,120,-1
 397 302 l 1,121,-1
 397 220 l 1,122,123
 429 248 429 248 470.5 287 c 128,-1,124
 512 326 512 326 556 369 c 1,125,-1
 556 706 l 1,126,-1
 422 706 l 1,127,-1
 422 840 l 1,128,-1
 688 840 l 1,129,-1
 688 62 l 2,40,41
EndSplineSet
EndChar

StartChar: cid32939
Encoding: 32946 32946 80
Width: 1024
Flags: W
HStem: -98 116<549.16 695.295> 60 101<323 702> 193 99<323 702> 323 118<323 702> 667 129<53 232 435.673 443 618 639 777 971>
VStem: 173 150<-98 60 161 193 292 323> 702 152<23.1582 60 161 193 292 323>
LayerCount: 2
Fore
SplineSet
971 667 m 1,0,-1
 777 667 l 1,1,-1
 864 594 l 2,2,3
 907 557 907 557 936 528 c 1,4,-1
 809 444 l 1,5,-1
 785 470 l 1,6,-1
 757 499 l 1,7,8
 637 492 637 492 549.5 487 c 128,-1,9
 462 482 462 482 399 478 c 2,10,-1
 296 471 l 2,11,12
 255 468 255 468 228.5 465 c 128,-1,13
 202 462 202 462 185.5 458.5 c 128,-1,14
 169 455 169 455 157 451 c 1,15,16
 154 463 154 463 148 481.5 c 128,-1,17
 142 500 142 500 135 520 c 2,18,-1
 121 561 l 1,19,-1
 108 597 l 1,20,21
 126 601 126 601 143.5 609.5 c 128,-1,22
 161 618 161 618 181 632 c 0,23,24
 200 642 200 642 232 667 c 1,25,-1
 53 667 l 1,26,-1
 53 796 l 1,27,-1
 443 796 l 1,28,-1
 417 852 l 1,29,-1
 567 893 l 1,30,-1
 618 796 l 1,31,-1
 971 796 l 1,32,-1
 971 667 l 1,0,-1
601 643 m 1,33,-1
 639 667 l 1,34,-1
 463 667 l 1,35,36
 443 650 443 650 420.5 633 c 128,-1,37
 398 616 398 616 376 601 c 1,38,-1
 636 611 l 1,39,-1
 601 643 l 1,33,-1
854 39 m 2,40,41
 854 -14 854 -14 837 -40.5 c 128,-1,42
 820 -67 820 -67 780 -80.5 c 128,-1,43
 740 -94 740 -94 684 -96 c 128,-1,44
 628 -98 628 -98 554 -98 c 1,45,46
 549 -71 549 -71 534.5 -37.5 c 128,-1,47
 520 -4 520 -4 506 20 c 1,48,49
 528 18 528 18 554 18 c 2,50,-1
 673 17 l 2,51,52
 689 18 689 18 695.5 23 c 128,-1,53
 702 28 702 28 702 41 c 2,54,-1
 702 60 l 1,55,-1
 323 60 l 1,56,-1
 323 -98 l 1,57,-1
 173 -98 l 1,58,-1
 173 441 l 1,59,-1
 854 441 l 1,60,-1
 854 39 l 2,40,41
323 323 m 1,61,-1
 323 292 l 1,62,-1
 702 292 l 1,63,-1
 702 323 l 1,64,-1
 323 323 l 1,61,-1
702 161 m 1,65,-1
 702 193 l 1,66,-1
 323 193 l 1,67,-1
 323 161 l 1,68,-1
 702 161 l 1,65,-1
EndSplineSet
EndChar

StartChar: cid33367
Encoding: 33150 33150 81
Width: 1024
Flags: W
HStem: -94 109<697.86 790.75> 37 96<403 768> 161 150<474.679 568.317> 161 105<598 693.64 819 820> 239 137<180 243> 325 100<564 702> 473 112<375 432 662 768 922 993> 476 134<181 243> 628 108<397 442 503 542 711 802 889 970> 707 134<181 243>
VStem: 62 119<376 476 610 707> 243 121<35.0952 239 376 377 422 476 610 707> 580 131<736 857.881>
LayerCount: 2
Fore
SplineSet
768 37 m 1,0,-1
 403 37 l 1,1,-1
 403 133 l 1,2,-1
 768 133 l 1,3,-1
 768 37 l 1,0,-1
922 473 m 1,4,5
 945 454 945 454 969.5 438 c 128,-1,6
 994 422 994 422 1022 411 c 1,7,8
 1011 402 1011 402 999 389.5 c 128,-1,9
 987 377 987 377 975.5 362.5 c 128,-1,10
 964 348 964 348 953.5 334.5 c 128,-1,11
 943 321 943 321 936 308 c 1,12,13
 910 321 910 321 886.5 338 c 128,-1,14
 863 355 863 355 843 376 c 1,15,16
 832 318 832 318 819 266 c 1,17,-1
 953 266 l 1,18,19
 953 257 953 257 952 249 c 2,20,-1
 951 233 l 1,21,-1
 950 219 l 2,22,23
 945 157 945 157 940 111 c 128,-1,24
 935 65 935 65 928.5 32 c 128,-1,25
 922 -1 922 -1 914 -21.5 c 128,-1,26
 906 -42 906 -42 896 -53 c 0,27,28
 879 -71 879 -71 860.5 -79.5 c 128,-1,29
 842 -88 842 -88 818 -91 c 0,30,31
 798 -93 798 -93 767 -94 c 128,-1,32
 736 -95 736 -95 700 -93 c 1,33,34
 698 -66 698 -66 689 -35 c 128,-1,35
 680 -4 680 -4 666 19 c 1,36,37
 695 17 695 17 719 16 c 128,-1,38
 743 15 743 15 758 15 c 0,39,40
 769 15 769 15 776 17 c 128,-1,41
 783 19 783 19 791 26 c 0,42,43
 800 35 800 35 807.5 66 c 128,-1,44
 815 97 815 97 820 161 c 1,45,-1
 447 161 l 1,46,47
 455 193 455 193 464 233.5 c 128,-1,48
 473 274 473 274 478 311 c 1,49,-1
 604 301 l 1,50,-1
 598 266 l 1,51,-1
 688 266 l 1,52,53
 692 280 692 280 695 294.5 c 128,-1,54
 698 309 698 309 702 325 c 1,55,-1
 474 325 l 1,56,-1
 474 339 l 1,57,58
 462 330 462 330 449 321 c 128,-1,59
 436 312 436 312 422 304 c 1,60,61
 414 317 414 317 397.5 337 c 128,-1,62
 381 357 381 357 364 377 c 1,63,-1
 364 44 l 2,64,65
 364 3 364 3 356.5 -23.5 c 128,-1,66
 349 -50 349 -50 325.5 -66.5 c 128,-1,67
 302 -83 302 -83 272.5 -87 c 128,-1,68
 243 -91 243 -91 201 -91 c 1,69,70
 200 -79 200 -79 197 -62.5 c 128,-1,71
 194 -46 194 -46 189 -29 c 128,-1,72
 184 -12 184 -12 179 4 c 128,-1,73
 174 20 174 20 168 33 c 1,74,75
 186 31 186 31 204 31 c 128,-1,76
 222 31 222 31 230 31.5 c 128,-1,77
 238 32 238 32 240.5 35 c 128,-1,78
 243 38 243 38 243 47 c 2,79,-1
 243 239 l 1,80,-1
 175 239 l 1,81,82
 169 149 169 149 156.5 61.5 c 128,-1,83
 144 -26 144 -26 121 -94 c 1,84,85
 112 -87 112 -87 98 -79 c 2,86,-1
 70 -61 l 2,87,88
 55 -53 55 -53 40 -46.5 c 128,-1,89
 25 -40 25 -40 13 -36 c 1,90,91
 30 17 30 17 40.5 81 c 128,-1,92
 51 145 51 145 55.5 211.5 c 128,-1,93
 60 278 60 278 61 343 c 128,-1,94
 62 408 62 408 62 464 c 2,95,-1
 62 841 l 1,96,-1
 364 841 l 1,97,-1
 364 422 l 1,98,99
 383 433 383 433 400 446 c 128,-1,100
 417 459 417 459 432 473 c 1,101,-1
 375 473 l 1,102,-1
 375 585 l 1,103,-1
 520 585 l 1,104,105
 532 604 532 604 542 628 c 1,106,-1
 397 628 l 1,107,-1
 397 736 l 1,108,-1
 442 736 l 1,109,110
 437 760 437 760 428 788.5 c 128,-1,111
 419 817 419 817 408 841 c 1,112,-1
 518 871 l 1,113,114
 533 844 533 844 545 811 c 128,-1,115
 557 778 557 778 561 754 c 1,116,-1
 503 736 l 1,117,-1
 580 736 l 1,118,119
 588 769 588 769 593.5 803.5 c 128,-1,120
 599 838 599 838 604 876 c 1,121,-1
 734 862 l 1,122,123
 729 829 729 829 723.5 797.5 c 128,-1,124
 718 766 718 766 711 736 c 1,125,-1
 802 736 l 1,126,-1
 766 746 l 1,127,128
 777 773 777 773 788.5 807.5 c 128,-1,129
 800 842 800 842 805 869 c 1,130,-1
 939 835 l 1,131,132
 925 808 925 808 912.5 782.5 c 128,-1,133
 900 757 900 757 889 736 c 1,134,-1
 970 736 l 1,135,-1
 970 628 l 1,136,-1
 678 628 l 1,137,-1
 662 585 l 1,138,-1
 993 585 l 1,139,-1
 993 473 l 1,140,-1
 922 473 l 1,4,5
181 707 m 1,141,-1
 181 610 l 1,142,-1
 243 610 l 1,143,-1
 243 707 l 1,144,-1
 181 707 l 1,141,-1
243 376 m 1,145,-1
 243 476 l 1,146,-1
 181 476 l 1,147,-1
 181 422 l 1,148,-1
 180 376 l 1,149,-1
 243 376 l 1,145,-1
800 425 m 1,150,151
 792 436 792 436 784 449 c 2,152,-1
 768 473 l 1,153,-1
 601 473 l 1,154,155
 583 446 583 446 564 425 c 1,156,-1
 800 425 l 1,150,151
EndSplineSet
EndChar

StartChar: cid33629
Encoding: 33268 33268 82
Width: 1024
Flags: W
HStem: 211 133<54 199 348 488> 553 137<718 786 934.082 987> 691 134<31 128 277.274 506>
VStem: 199 149<132 211 344 425> 786 151<428.694 553>
LayerCount: 2
Fore
SplineSet
937 553 m 1,0,1
 922 440 922 440 895 346 c 128,-1,2
 868 252 868 252 825 174 c 1,3,4
 862 129 862 129 908 93.5 c 128,-1,5
 954 58 954 58 1011 34 c 1,6,7
 999 23 999 23 985 7.5 c 128,-1,8
 971 -8 971 -8 957 -26 c 128,-1,9
 943 -44 943 -44 931.5 -61.5 c 128,-1,10
 920 -79 920 -79 911 -94 c 1,11,12
 858 -67 858 -67 814 -32.5 c 128,-1,13
 770 2 770 2 734 44 c 1,14,15
 656 -42 656 -42 543 -99 c 1,16,17
 535 -79 535 -79 517.5 -49 c 128,-1,18
 500 -19 500 -19 481 6 c 1,19,-1
 366 -10 l 1,20,-1
 41 -54 l 1,21,-1
 20 97 l 1,22,-1
 199 116 l 1,23,-1
 199 211 l 1,24,-1
 54 211 l 1,25,-1
 54 344 l 1,26,-1
 199 344 l 1,27,-1
 199 425 l 1,28,-1
 348 425 l 1,29,-1
 348 344 l 1,30,-1
 488 344 l 1,31,-1
 488 211 l 1,32,-1
 348 211 l 1,33,-1
 348 132 l 1,34,35
 386 137 386 137 424 141 c 128,-1,36
 462 145 462 145 500 151 c 1,37,-1
 504 57 l 1,38,39
 590 104 590 104 647 175 c 1,40,41
 625 218 625 218 607.5 263.5 c 128,-1,42
 590 309 590 309 574 360 c 1,43,44
 557 333 557 333 538 311 c 1,45,46
 530 322 530 322 516 338 c 128,-1,47
 502 354 502 354 486.5 370 c 128,-1,48
 471 386 471 386 455 401.5 c 128,-1,49
 439 417 439 417 427 426 c 1,50,51
 432 431 432 431 435.5 436 c 128,-1,52
 439 441 439 441 444 446 c 2,53,-1
 398 423 l 1,54,55
 396 430 396 430 392.5 437.5 c 128,-1,56
 389 445 389 445 386 454 c 1,57,-1
 243 442 l 2,58,59
 188 437 188 437 154.5 433 c 128,-1,60
 121 429 121 429 104 425 c 128,-1,61
 87 421 87 421 75 416 c 1,62,-1
 67 443 l 1,63,-1
 54 479 l 1,64,-1
 41 516 l 2,65,66
 34 533 34 533 28 548 c 1,67,68
 54 557 54 557 77 593 c 0,69,70
 84 604 84 604 98.5 630 c 128,-1,71
 113 656 113 656 128 691 c 1,72,-1
 31 691 l 1,73,-1
 31 825 l 1,74,-1
 506 825 l 1,75,-1
 506 691 l 1,76,-1
 288 691 l 1,77,78
 273 659 273 659 254.5 628.5 c 128,-1,79
 236 598 236 598 217 569 c 1,80,-1
 327 575 l 1,81,-1
 297 634 l 1,82,-1
 409 685 l 1,83,84
 429 649 429 649 453 605.5 c 128,-1,85
 477 562 477 562 497 524 c 1,86,87
 537 598 537 598 564.5 688.5 c 128,-1,88
 592 779 592 779 607 879 c 1,89,-1
 756 853 l 1,90,91
 748 811 748 811 738.5 770.5 c 128,-1,92
 729 730 729 730 718 690 c 1,93,-1
 987 690 l 1,94,-1
 987 553 l 1,95,-1
 937 553 l 1,0,1
668 541 m 1,96,97
 680 483 680 483 696 429.5 c 128,-1,98
 712 376 712 376 733 327 c 1,99,100
 752 377 752 377 765 432.5 c 128,-1,101
 778 488 778 488 786 553 c 1,102,-1
 673 553 l 1,103,-1
 668 541 l 1,96,97
EndSplineSet
EndChar

StartChar: cid34401
Encoding: 33618 33618 83
Width: 1024
Flags: W
HStem: -85 124<810.611 866.39> -83 350<431 581 699.876 807> 294 125<318 904> 472 127<61 165 318 446 594.5 966> 636 240<258 406 618 767> 691 128<51 258 406 618 767 974>
VStem: 197 151<112.238 272> 258 148<640 691 819 876> 431 150<-83 267> 618 149<636 691 819 876> 664 143<44.1606 268>
LayerCount: 2
Fore
SplineSet
857 39 m 2,0,1
 863 39 863 39 866.5 42 c 128,-1,2
 870 45 870 45 873.5 55.5 c 128,-1,3
 877 66 877 66 878.5 83 c 128,-1,4
 880 100 880 100 881 130 c 1,5,6
 891 122 891 122 906 114 c 128,-1,7
 921 106 921 106 937.5 99 c 128,-1,8
 954 92 954 92 971 86.5 c 128,-1,9
 988 81 988 81 1002 78 c 1,10,11
 997 30 997 30 988 -1.5 c 128,-1,12
 979 -33 979 -33 963.5 -51.5 c 128,-1,13
 948 -70 948 -70 926 -77.5 c 128,-1,14
 904 -85 904 -85 873 -85 c 2,15,-1
 799 -85 l 2,16,17
 757 -85 757 -85 731 -77 c 128,-1,18
 705 -69 705 -69 690 -50.5 c 128,-1,19
 675 -32 675 -32 669.5 -2 c 128,-1,20
 664 28 664 28 664 71 c 2,21,-1
 664 268 l 1,22,-1
 807 268 l 1,23,-1
 807 72 l 2,24,25
 807 49 807 49 810.5 44 c 128,-1,26
 814 39 814 39 825 39 c 2,27,-1
 857 39 l 2,0,1
431 267 m 1,28,-1
 581 267 l 1,29,-1
 581 -83 l 1,30,-1
 431 -83 l 1,31,-1
 431 267 l 1,28,-1
197 272 m 1,32,-1
 348 272 l 1,33,-1
 348 191 l 2,34,35
 348 158 348 158 340 119 c 128,-1,36
 332 80 332 80 308 39.5 c 128,-1,37
 284 -1 284 -1 239.5 -38 c 128,-1,38
 195 -75 195 -75 122 -101 c 1,39,40
 114 -91 114 -91 101 -76.5 c 128,-1,41
 88 -62 88 -62 73 -48 c 128,-1,42
 58 -34 58 -34 43 -21 c 128,-1,43
 28 -8 28 -8 15 1 c 1,44,45
 74 20 74 20 110 45.5 c 128,-1,46
 146 71 146 71 165.5 98 c 128,-1,47
 185 125 185 125 191 150.5 c 128,-1,48
 197 176 197 176 197 197 c 2,49,-1
 197 272 l 1,32,-1
318 472 m 1,50,-1
 318 419 l 1,51,-1
 904 419 l 1,52,-1
 904 294 l 1,53,-1
 165 294 l 1,54,-1
 165 472 l 1,55,-1
 61 472 l 1,56,-1
 61 599 l 1,57,-1
 446 599 l 1,58,-1
 425 655 l 1,59,-1
 565 688 l 1,60,61
 575 668 575 668 585 644.5 c 128,-1,62
 595 621 595 621 603 599 c 1,63,-1
 966 599 l 1,64,-1
 966 472 l 1,65,-1
 318 472 l 1,50,-1
258 691 m 1,66,-1
 51 691 l 1,67,-1
 51 819 l 1,68,-1
 258 819 l 1,69,-1
 258 876 l 1,70,-1
 406 876 l 1,71,-1
 406 819 l 1,72,-1
 618 819 l 1,73,-1
 618 876 l 1,74,-1
 767 876 l 1,75,-1
 767 819 l 1,76,-1
 974 819 l 1,77,-1
 974 691 l 1,78,-1
 767 691 l 1,79,-1
 767 636 l 1,80,-1
 618 636 l 1,81,-1
 618 691 l 1,82,-1
 406 691 l 1,83,-1
 406 640 l 1,84,-1
 258 640 l 1,85,-1
 258 691 l 1,66,-1
EndSplineSet
EndChar

StartChar: uni8863
Encoding: 34915 34915 84
Width: 1024
Flags: W
HStem: 582 142<54 360 643 972>
VStem: 239 152<119.5 287>
LayerCount: 2
Fore
SplineSet
982 439 m 1,0,1
 933 393 933 393 876.5 348 c 128,-1,2
 820 303 820 303 768 266 c 1,3,4
 811 209 811 209 870.5 159.5 c 128,-1,5
 930 110 930 110 1014 65 c 1,6,7
 984 41 984 41 954 3.5 c 128,-1,8
 924 -34 924 -34 909 -69 c 1,9,10
 811 -7 811 -7 743 60 c 128,-1,11
 675 127 675 127 629 199.5 c 128,-1,12
 583 272 583 272 554 352 c 128,-1,13
 525 432 525 432 507 520 c 1,14,15
 480 489 480 489 451.5 459.5 c 128,-1,16
 423 430 423 430 391 402 c 1,17,-1
 391 119 l 1,18,-1
 593 175 l 1,19,20
 595 159 595 159 599 140 c 128,-1,21
 603 121 603 121 608 102 c 2,22,-1
 617 67 l 2,23,24
 621 50 621 50 626 37 c 1,25,26
 513 3 513 3 443.5 -19 c 128,-1,27
 374 -41 374 -41 332.5 -56 c 128,-1,28
 291 -71 291 -71 270.5 -80 c 128,-1,29
 250 -89 250 -89 237 -98 c 1,30,31
 232 -87 232 -87 222.5 -71.5 c 128,-1,32
 213 -56 213 -56 201.5 -41 c 128,-1,33
 190 -26 190 -26 179 -12 c 128,-1,34
 168 2 168 2 159 11 c 1,35,36
 170 19 170 19 184 32 c 128,-1,37
 198 45 198 45 210 62 c 128,-1,38
 222 79 222 79 230.5 99 c 128,-1,39
 239 119 239 119 239 141 c 2,40,-1
 239 287 l 1,41,42
 207 267 207 267 173.5 248.5 c 128,-1,43
 140 230 140 230 106 214 c 1,44,-1
 89 246 l 2,45,46
 79 263 79 263 67 281 c 128,-1,47
 55 299 55 299 44 315 c 2,48,-1
 23 344 l 1,49,50
 121 384 121 384 208.5 447 c 128,-1,51
 296 510 296 510 360 582 c 1,52,-1
 54 582 l 1,53,-1
 54 724 l 1,54,-1
 447 724 l 1,55,56
 439 752 439 752 427.5 784 c 128,-1,57
 416 816 416 816 404 844 c 1,58,-1
 559 888 l 1,59,60
 576 854 576 854 593.5 813 c 128,-1,61
 611 772 611 772 620 742 c 1,62,-1
 559 724 l 1,63,-1
 972 724 l 1,64,-1
 972 582 l 1,65,-1
 643 582 l 1,66,67
 653 530 653 530 666.5 481.5 c 128,-1,68
 680 433 680 433 699 388 c 1,69,70
 742 422 742 422 783 459 c 128,-1,71
 824 496 824 496 855 531 c 1,72,-1
 982 439 l 1,0,1
EndSplineSet
EndChar

StartChar: cid37259
Encoding: 35059 35059 85
Width: 1024
Flags: W
HStem: 26 119<96.0178 150.288> 225 116<60 337 621 790 837 959> 373 97<356 458 575 655> 505 98<356 655> 534 220<57 184 845 969> 629 247<434 585> 629 125<305 434 585 695.188>
VStem: 57 139<534 629> 434 151<754 876> 824 145<534 629>
LayerCount: 2
Fore
SplineSet
922 164 m 1,0,1
 898 145 898 145 873 125 c 128,-1,2
 848 105 848 105 823 88 c 1,3,4
 905 58 905 58 1009 45 c 1,5,6
 998 34 998 34 985 18 c 128,-1,7
 972 2 972 2 959.5 -15.5 c 128,-1,8
 947 -33 947 -33 937 -51 c 128,-1,9
 927 -69 927 -69 920 -83 c 1,10,11
 770 -54 770 -54 669 10.5 c 128,-1,12
 568 75 568 75 501 180 c 1,13,14
 462 152 462 152 418 131 c 1,15,-1
 418 58 l 1,16,-1
 578 78 l 1,17,18
 576 52 576 52 577 20.5 c 128,-1,19
 578 -11 578 -11 581 -32 c 1,20,-1
 424 -55 l 2,21,22
 364 -64 364 -64 328.5 -71.5 c 128,-1,23
 293 -79 293 -79 275.5 -84 c 128,-1,24
 258 -89 258 -89 247 -94 c 1,25,26
 245 -84 245 -84 239.5 -69.5 c 128,-1,27
 234 -55 234 -55 227.5 -41.5 c 128,-1,28
 221 -28 221 -28 214 -14.5 c 128,-1,29
 207 -1 207 -1 200 8 c 1,30,31
 210 11 210 11 223 17 c 128,-1,32
 236 23 236 23 247.5 30.5 c 128,-1,33
 259 38 259 38 268.5 48.5 c 128,-1,34
 278 59 278 59 281 74 c 1,35,36
 236 60 236 60 191 47.5 c 128,-1,37
 146 35 146 35 100 26 c 1,38,-1
 85 53 l 2,39,40
 75 69 75 69 63 87 c 2,41,-1
 41 120 l 2,42,43
 30 135 30 135 20 145 c 1,44,45
 107 156 107 156 189 176 c 128,-1,46
 271 196 271 196 337 225 c 1,47,-1
 60 225 l 1,48,-1
 60 341 l 1,49,-1
 437 341 l 1,50,-1
 425 364 l 1,51,-1
 458 373 l 1,52,-1
 219 373 l 1,53,-1
 219 603 l 1,54,-1
 803 603 l 1,55,-1
 803 373 l 1,56,-1
 575 373 l 1,57,-1
 586 357 l 2,58,59
 590 349 590 349 594 341 c 1,60,-1
 959 341 l 1,61,-1
 959 225 l 1,62,-1
 837 225 l 1,63,-1
 922 164 l 1,0,1
356 470 m 1,64,-1
 655 470 l 1,65,-1
 655 505 l 1,66,-1
 356 505 l 1,67,-1
 356 470 l 1,64,-1
621 225 m 1,68,69
 655 182 655 182 706 147 c 1,70,71
 729 165 729 165 750 185.5 c 128,-1,72
 771 206 771 206 790 225 c 1,73,-1
 621 225 l 1,68,69
196 534 m 1,74,-1
 57 534 l 1,75,-1
 57 754 l 1,76,-1
 184 754 l 1,77,78
 175 771 175 771 165 788 c 128,-1,79
 155 805 155 805 143 819 c 1,80,-1
 276 870 l 1,81,82
 295 847 295 847 313.5 819.5 c 128,-1,83
 332 792 332 792 341 769 c 1,84,-1
 305 754 l 1,85,-1
 434 754 l 1,86,-1
 434 876 l 1,87,-1
 585 876 l 1,88,-1
 585 754 l 1,89,-1
 683 754 l 1,90,91
 698 781 698 781 713 811.5 c 128,-1,92
 728 842 728 842 737 868 c 1,93,-1
 897 824 l 1,94,95
 869 785 869 785 845 754 c 1,96,-1
 969 754 l 1,97,-1
 969 534 l 1,98,-1
 824 534 l 1,99,-1
 824 629 l 1,100,-1
 196 629 l 1,101,-1
 196 534 l 1,74,-1
EndSplineSet
EndChar

StartChar: cid38638
Encoding: 35753 35753 86
Width: 1024
Flags: W
HStem: -69 147<358 566 720 1001> 420 142<35 169 720 941>
VStem: 169 139<204 420> 566 154<78 418 561 864>
LayerCount: 2
Fore
SplineSet
1001 78 m 1,0,-1
 1001 -69 l 1,1,-1
 337 -69 l 1,2,-1
 337 59 l 1,3,4
 294 22 294 22 266 -2 c 2,5,-1
 220 -44 l 2,6,7
 202 -60 202 -60 192.5 -70.5 c 128,-1,8
 183 -81 183 -81 177 -90 c 1,9,10
 171 -81 171 -81 158.5 -68.5 c 128,-1,11
 146 -56 146 -56 133 -44.5 c 128,-1,12
 120 -33 120 -33 106 -22.5 c 128,-1,13
 92 -12 92 -12 83 -6 c 1,14,15
 95 5 95 5 110 22.5 c 128,-1,16
 125 40 125 40 138 62 c 128,-1,17
 151 84 151 84 160 109.5 c 128,-1,18
 169 135 169 135 169 163 c 2,19,-1
 169 420 l 1,20,-1
 35 420 l 1,21,-1
 35 562 l 1,22,-1
 308 562 l 1,23,-1
 308 204 l 1,24,-1
 393 274 l 1,25,26
 396 259 396 259 402 241 c 128,-1,27
 408 223 408 223 414 205.5 c 128,-1,28
 420 188 420 188 426.5 172.5 c 128,-1,29
 433 157 433 157 438 146 c 1,30,-1
 358 78 l 1,31,-1
 566 78 l 1,32,-1
 566 864 l 1,33,-1
 720 864 l 1,34,-1
 720 561 l 1,35,-1
 941 561 l 1,36,-1
 941 418 l 1,37,-1
 720 418 l 1,38,-1
 720 78 l 1,39,-1
 1001 78 l 1,0,-1
261 611 m 1,40,41
 248 626 248 626 228.5 647 c 128,-1,42
 209 668 209 668 187 690 c 128,-1,43
 165 712 165 712 142.5 733.5 c 128,-1,44
 120 755 120 755 101 773 c 1,45,-1
 189 869 l 1,46,-1
 276 794 l 2,47,48
 299 774 299 774 319.5 754.5 c 128,-1,49
 340 735 340 735 354 720 c 1,50,-1
 261 611 l 1,40,41
EndSplineSet
EndChar

StartChar: cid38728
Encoding: 35843 35843 87
Width: 1024
Flags: W
HStem: -97 132<755.292 828.844> 76 101<629 695> 239 101<629 695> 389 103<524 608 722 813> 421 142<31 139> 542 102<541 608 722 795> 715 129<503 830>
VStem: 139 145<212 421> 375 128<177.094 715> 523 106<31 76 177 239> 608 114<492 542 644 701> 695 107<177 239> 830 131<35.6749 715>
LayerCount: 2
Fore
SplineSet
961 51 m 2,0,1
 961 5 961 5 951.5 -24.5 c 128,-1,2
 942 -54 942 -54 914 -71.5 c 128,-1,3
 886 -89 886 -89 848.5 -93 c 128,-1,4
 811 -97 811 -97 759 -97 c 1,5,6
 757 -84 757 -84 753 -66 c 128,-1,7
 749 -48 749 -48 743 -29.5 c 128,-1,8
 737 -11 737 -11 730.5 6.5 c 128,-1,9
 724 24 724 24 717 37 c 1,10,11
 746 35 746 35 773.5 34.5 c 128,-1,12
 801 34 801 34 812 35 c 0,13,14
 830 35 830 35 830 54 c 2,15,-1
 830 715 l 1,16,-1
 503 715 l 1,17,-1
 503 436 l 2,18,19
 503 375 503 375 499 303.5 c 128,-1,20
 495 232 495 232 483 160 c 128,-1,21
 471 88 471 88 449 21.5 c 128,-1,22
 427 -45 427 -45 391 -97 c 1,23,24
 383 -88 383 -88 369.5 -76.5 c 128,-1,25
 356 -65 356 -65 341.5 -53.5 c 128,-1,26
 327 -42 327 -42 312 -32 c 128,-1,27
 297 -22 297 -22 287 -15 c 1,28,29
 316 27 316 27 333 81 c 1,30,-1
 255 10 l 2,31,32
 224 -19 224 -19 205 -37 c 128,-1,33
 186 -55 186 -55 176.5 -66 c 128,-1,34
 167 -77 167 -77 161 -85 c 1,35,36
 155 -75 155 -75 143.5 -61.5 c 128,-1,37
 132 -48 132 -48 119 -35 c 128,-1,38
 106 -22 106 -22 93.5 -10 c 128,-1,39
 81 2 81 2 72 9 c 1,40,41
 82 19 82 19 94 34 c 128,-1,42
 106 49 106 49 116 68 c 128,-1,43
 126 87 126 87 132.5 110 c 128,-1,44
 139 133 139 133 139 159 c 2,45,-1
 139 421 l 1,46,-1
 31 421 l 1,47,-1
 31 563 l 1,48,-1
 284 563 l 1,49,-1
 284 212 l 1,50,-1
 327 251 l 1,51,52
 338 216 338 216 357 175 c 1,53,54
 368 242 368 242 371.5 309 c 128,-1,55
 375 376 375 376 375 436 c 2,56,-1
 375 844 l 1,57,-1
 961 844 l 1,58,-1
 961 51 l 2,0,1
608 492 m 1,59,-1
 608 542 l 1,60,-1
 541 542 l 1,61,-1
 541 644 l 1,62,-1
 608 644 l 1,63,-1
 608 701 l 1,64,-1
 722 701 l 1,65,-1
 722 644 l 1,66,-1
 795 644 l 1,67,-1
 795 542 l 1,68,-1
 722 542 l 1,69,-1
 722 492 l 1,70,-1
 813 492 l 1,71,-1
 813 389 l 1,72,-1
 524 389 l 1,73,-1
 524 492 l 1,74,-1
 608 492 l 1,59,-1
629 76 m 1,75,-1
 629 31 l 1,76,-1
 523 31 l 1,77,-1
 523 340 l 1,78,-1
 802 340 l 1,79,-1
 802 76 l 1,80,-1
 629 76 l 1,75,-1
629 239 m 1,81,-1
 629 177 l 1,82,-1
 695 177 l 1,83,-1
 695 239 l 1,84,-1
 629 239 l 1,81,-1
231 605 m 1,85,86
 219 623 219 623 200 645 c 128,-1,87
 181 667 181 667 159 689.5 c 128,-1,88
 137 712 137 712 113 734.5 c 128,-1,89
 89 757 89 757 68 775 c 1,90,-1
 162 865 l 1,91,-1
 208 828 l 2,92,93
 233 808 233 808 256 787 c 128,-1,94
 279 766 279 766 299 745.5 c 128,-1,95
 319 725 319 725 333 708 c 1,96,-1
 231 605 l 1,85,86
EndSplineSet
EndChar

StartChar: cid40612
Encoding: 36947 36947 88
Width: 1024
Flags: W
HStem: -87 126<413.153 638.099 642.189 643.44 647.158 963.215> 90 103<523 765> 231 93<523 765> 362 92<523 765> 370 137<43 153> 493 102<523 550.813 686 765> 642 119<321 441 539 555 829 980>
VStem: 153 142<104.149 370> 384 139<193 231 324 362 454 493> 765 146<193 231 324 362 454 493>
LayerCount: 2
Fore
SplineSet
295 116 m 1,0,1
 310 108 310 108 327.5 98.5 c 128,-1,2
 345 89 345 89 369 78 c 0,3,4
 422 54 422 54 493 46 c 128,-1,5
 564 38 564 38 646 38 c 0,6,7
 683 38 683 38 729 39 c 128,-1,8
 775 40 775 40 823 43.5 c 128,-1,9
 871 47 871 47 918.5 51.5 c 128,-1,10
 966 56 966 56 1002 62 c 1,11,12
 996 48 996 48 990 29.5 c 128,-1,13
 984 11 984 11 978.5 -8.5 c 128,-1,14
 973 -28 973 -28 969 -47 c 128,-1,15
 965 -66 965 -66 964 -80 c 1,16,17
 939 -82 939 -82 900 -83 c 2,18,-1
 816 -87 l 2,19,20
 771 -89 771 -89 725 -90 c 128,-1,21
 679 -91 679 -91 641 -91 c 0,22,23
 548 -91 548 -91 478 -80.5 c 128,-1,24
 408 -70 408 -70 348 -42 c 0,25,26
 309 -25 309 -25 282.5 -8 c 128,-1,27
 256 9 256 9 236 9 c 0,28,29
 223 9 223 9 206 -1.5 c 128,-1,30
 189 -12 189 -12 172.5 -29 c 128,-1,31
 156 -46 156 -46 138 -68 c 2,32,-1
 104 -110 l 1,33,-1
 16 16 l 1,34,35
 49 46 49 46 84.5 70.5 c 128,-1,36
 120 95 120 95 153 111 c 1,37,-1
 153 370 l 1,38,-1
 43 370 l 1,39,-1
 43 507 l 1,40,-1
 295 507 l 1,41,-1
 295 116 l 1,0,1
174 587 m 1,42,43
 165 605 165 605 149 627 c 128,-1,44
 133 649 133 649 113.5 673 c 128,-1,45
 94 697 94 697 74 721 c 2,46,-1
 35 765 l 1,47,-1
 148 839 l 1,48,49
 167 821 167 821 188.5 798.5 c 128,-1,50
 210 776 210 776 230 754 c 128,-1,51
 250 732 250 732 267.5 710 c 128,-1,52
 285 688 285 688 296 670 c 1,53,-1
 174 587 l 1,42,43
546 595 m 1,54,55
 548 606 548 606 551 618 c 2,56,-1
 555 642 l 1,57,-1
 321 642 l 1,58,-1
 321 761 l 1,59,-1
 441 761 l 1,60,61
 432 779 432 779 421.5 798 c 128,-1,62
 411 817 411 817 399 835 c 1,63,-1
 525 886 l 1,64,65
 542 862 542 862 561 833 c 128,-1,66
 580 804 580 804 590 782 c 1,67,-1
 539 761 l 1,68,-1
 682 761 l 1,69,70
 698 788 698 788 714.5 819 c 128,-1,71
 731 850 731 850 741 877 c 1,72,-1
 884 838 l 1,73,-1
 856 798 l 2,74,75
 843 779 843 779 829 761 c 1,76,-1
 980 761 l 1,77,-1
 980 642 l 1,78,-1
 711 642 l 1,79,-1
 686 595 l 1,80,-1
 911 595 l 1,81,-1
 911 90 l 1,82,-1
 384 90 l 1,83,-1
 384 595 l 1,84,-1
 546 595 l 1,54,55
765 231 m 1,85,-1
 523 231 l 1,86,-1
 523 193 l 1,87,-1
 765 193 l 1,88,-1
 765 231 l 1,85,-1
765 362 m 1,89,-1
 523 362 l 1,90,-1
 523 324 l 1,91,-1
 765 324 l 1,92,-1
 765 362 l 1,89,-1
765 493 m 1,93,-1
 523 493 l 1,94,-1
 523 454 l 1,95,-1
 765 454 l 1,96,-1
 765 493 l 1,93,-1
EndSplineSet
EndChar

StartChar: cid41342
Encoding: 37325 37325 89
Width: 1024
Flags: W
HStem: -70 116<43 432 582 984> 80 110<119 432 582 916> 221 95<298 432 582 726> 344 86<298 432 582 726> 458 95<298 432 582 726> 579 114<49 432 582 976> 716 113<153.137 429.206>
VStem: 432 150<46 80 190 221 316 344 430 458 553 579 693 723>
LayerCount: 2
Fore
SplineSet
984 46 m 1,0,-1
 984 -70 l 1,1,-1
 43 -70 l 1,2,-1
 43 46 l 1,3,-1
 432 46 l 1,4,-1
 432 80 l 1,5,-1
 119 80 l 1,6,-1
 119 190 l 1,7,-1
 432 190 l 1,8,-1
 432 221 l 1,9,-1
 153 221 l 1,10,-1
 153 553 l 1,11,-1
 432 553 l 1,12,-1
 432 579 l 1,13,-1
 49 579 l 1,14,-1
 49 693 l 1,15,-1
 432 693 l 1,16,-1
 432 723 l 1,17,18
 361 720 361 720 291.5 718 c 128,-1,19
 222 716 222 716 156 716 c 1,20,21
 154 742 154 742 144.5 774.5 c 128,-1,22
 135 807 135 807 126 829 c 1,23,24
 216 830 216 830 310 834.5 c 128,-1,25
 404 839 404 839 495 845 c 128,-1,26
 586 851 586 851 669 859 c 128,-1,27
 752 867 752 867 819 878 c 1,28,-1
 885 763 l 1,29,30
 817 753 817 753 740.5 744.5 c 128,-1,31
 664 736 664 736 582 731 c 1,32,-1
 582 693 l 1,33,-1
 976 693 l 1,34,-1
 976 579 l 1,35,-1
 582 579 l 1,36,-1
 582 553 l 1,37,-1
 879 553 l 1,38,-1
 879 221 l 1,39,-1
 582 221 l 1,40,-1
 582 190 l 1,41,-1
 916 190 l 1,42,-1
 916 80 l 1,43,-1
 582 80 l 1,44,-1
 582 46 l 1,45,-1
 984 46 l 1,0,-1
726 344 m 1,46,-1
 582 344 l 1,47,-1
 582 316 l 1,48,-1
 726 316 l 1,49,-1
 726 344 l 1,46,-1
582 458 m 1,50,-1
 582 430 l 1,51,-1
 726 430 l 1,52,-1
 726 458 l 1,53,-1
 582 458 l 1,50,-1
298 430 m 1,54,-1
 432 430 l 1,55,-1
 432 458 l 1,56,-1
 298 458 l 1,57,-1
 298 430 l 1,54,-1
432 316 m 1,58,-1
 432 344 l 1,59,-1
 298 344 l 1,60,-1
 298 316 l 1,61,-1
 432 316 l 1,58,-1
EndSplineSet
EndChar

StartChar: uni91D1
Encoding: 37329 37329 90
Width: 1024
Flags: W
HStem: -79 135<66 251 312 430 591 688 763 961> 227 133<118 236 311 430 591 708 777 902> 449 136<392 430 591 650>
VStem: 430 161<56 227 360 449>
LayerCount: 2
Fore
SplineSet
591 449 m 1,0,-1
 591 360 l 1,1,-1
 902 360 l 1,2,-1
 902 227 l 1,3,-1
 777 227 l 1,4,-1
 858 199 l 1,5,6
 833 160 833 160 808.5 123 c 128,-1,7
 784 86 784 86 763 56 c 1,8,-1
 961 56 l 1,9,-1
 961 -79 l 1,10,-1
 66 -79 l 1,11,-1
 66 56 l 1,12,-1
 251 56 l 1,13,14
 238 89 238 89 217.5 129 c 128,-1,15
 197 169 197 169 174 202 c 1,16,-1
 236 227 l 1,17,-1
 118 227 l 1,18,-1
 118 360 l 1,19,-1
 430 360 l 1,20,-1
 430 449 l 1,21,-1
 229 449 l 1,22,-1
 229 496 l 1,23,24
 172 470 172 470 115 451 c 1,25,26
 100 484 100 484 72 522 c 128,-1,27
 44 560 44 560 15 589 c 1,28,29
 88 608 88 608 157.5 636 c 128,-1,30
 227 664 227 664 289 700.5 c 128,-1,31
 351 737 351 737 402.5 783.5 c 128,-1,32
 454 830 454 830 490 888 c 1,33,-1
 632 825 l 1,34,-1
 603 783 l 1,35,36
 640 752 640 752 687.5 723 c 128,-1,37
 735 694 735 694 789 669 c 128,-1,38
 843 644 843 644 900 623 c 128,-1,39
 957 602 957 602 1015 588 c 1,40,41
 1003 576 1003 576 988 559.5 c 128,-1,42
 973 543 973 543 959 525 c 128,-1,43
 945 507 945 507 933 489.5 c 128,-1,44
 921 472 921 472 912 458 c 1,45,46
 880 469 880 469 849 481.5 c 128,-1,47
 818 494 818 494 787 508 c 1,48,-1
 787 449 l 1,49,-1
 591 449 l 1,0,-1
311 227 m 1,50,51
 335 193 335 193 356 156 c 128,-1,52
 377 119 377 119 387 89 c 1,53,-1
 312 56 l 1,54,-1
 430 56 l 1,55,-1
 430 227 l 1,56,-1
 311 227 l 1,50,51
591 227 m 1,57,-1
 591 56 l 1,58,-1
 688 56 l 1,59,-1
 633 79 l 1,60,61
 652 109 652 109 672.5 149.5 c 128,-1,62
 693 190 693 190 708 227 c 1,63,-1
 591 227 l 1,57,-1
650 585 m 1,64,65
 614 609 614 609 580.5 633 c 128,-1,66
 547 657 547 657 516 684 c 1,67,68
 487 656 487 656 456 631.5 c 128,-1,69
 425 607 425 607 392 585 c 1,70,-1
 650 585 l 1,64,65
EndSplineSet
EndChar

StartChar: cid43132
Encoding: 38382 38382 91
Width: 1024
Flags: W
HStem: -92 143<698.068 805.326> 159 132<440 563> 425 132<440 563> 691 137<349 811>
VStem: 66 147<-95 620> 307 133<105 159 291 425> 563 145<291 425> 811 148<55.6432 691>
LayerCount: 2
Fore
SplineSet
959 73 m 2,0,1
 959 15 959 15 946 -17 c 128,-1,2
 933 -49 933 -49 899 -66.5 c 128,-1,3
 865 -84 865 -84 817.5 -88.5 c 128,-1,4
 770 -93 770 -93 702 -92 c 1,5,6
 700 -77 700 -77 695.5 -58 c 128,-1,7
 691 -39 691 -39 685 -19 c 128,-1,8
 679 1 679 1 672 19.5 c 128,-1,9
 665 38 665 38 657 52 c 1,10,11
 674 51 674 51 695 51 c 2,12,-1
 786 50 l 2,13,14
 800 51 800 51 805.5 55.5 c 128,-1,15
 811 60 811 60 811 75 c 2,16,-1
 811 691 l 1,17,-1
 349 691 l 1,18,-1
 349 828 l 1,19,-1
 959 828 l 1,20,-1
 959 73 l 2,0,1
440 159 m 1,21,-1
 440 105 l 1,22,-1
 307 105 l 1,23,-1
 307 557 l 1,24,-1
 708 557 l 1,25,-1
 708 159 l 1,26,-1
 440 159 l 1,21,-1
440 425 m 1,27,-1
 440 291 l 1,28,-1
 563 291 l 1,29,-1
 563 425 l 1,30,-1
 440 425 l 1,27,-1
178 872 m 1,31,32
 196 853 196 853 219 830 c 2,33,-1
 263 783 l 1,34,-1
 305 738 l 2,35,36
 324 715 324 715 338 698 c 1,37,-1
 223 616 l 1,38,39
 211 634 211 634 192.5 657.5 c 128,-1,40
 174 681 174 681 154 706 c 2,41,-1
 71 801 l 1,42,-1
 178 872 l 1,31,32
66 620 m 1,43,-1
 213 620 l 1,44,-1
 213 -95 l 1,45,-1
 66 -95 l 1,46,-1
 66 620 l 1,43,-1
EndSplineSet
EndChar

StartChar: cid43134
Encoding: 38384 38384 92
Width: 1024
Flags: W
HStem: -100 143<681.958 808.295> 68 118<230 450 592 784> 289 117<295 450 592 742> 499 117<260 450 592 772> 701 138<377 815>
VStem: 66 141<-95 642> 450 142<186 289 406 499> 815 143<48.6742 701>
LayerCount: 2
Fore
SplineSet
958 67 m 2,0,1
 958 9 958 9 945.5 -23.5 c 128,-1,2
 933 -56 933 -56 897 -73.5 c 128,-1,3
 861 -91 861 -91 810.5 -95.5 c 128,-1,4
 760 -100 760 -100 686 -100 c 1,5,6
 684 -85 684 -85 679 -65.5 c 128,-1,7
 674 -46 674 -46 667 -26 c 128,-1,8
 660 -6 660 -6 652 13 c 128,-1,9
 644 32 644 32 637 46 c 1,10,11
 659 44 659 44 682.5 43 c 128,-1,12
 706 42 706 42 727 42 c 2,13,-1
 787 43 l 2,14,15
 802 43 802 43 808.5 48.5 c 128,-1,16
 815 54 815 54 815 69 c 2,17,-1
 815 701 l 1,18,-1
 377 701 l 1,19,-1
 377 839 l 1,20,-1
 958 839 l 1,21,-1
 958 67 l 2,0,1
784 68 m 1,22,-1
 230 68 l 1,23,-1
 230 186 l 1,24,-1
 450 186 l 1,25,-1
 450 289 l 1,26,-1
 295 289 l 1,27,-1
 295 406 l 1,28,-1
 450 406 l 1,29,-1
 450 499 l 1,30,-1
 260 499 l 1,31,-1
 260 616 l 1,32,-1
 772 616 l 1,33,-1
 772 499 l 1,34,-1
 592 499 l 1,35,-1
 592 406 l 1,36,-1
 742 406 l 1,37,-1
 742 289 l 1,38,-1
 592 289 l 1,39,-1
 592 186 l 1,40,-1
 784 186 l 1,41,-1
 784 68 l 1,22,-1
66 642 m 1,42,-1
 207 642 l 1,43,-1
 207 -95 l 1,44,-1
 66 -95 l 1,45,-1
 66 642 l 1,42,-1
241 615 m 1,46,47
 232 635 232 635 215.5 660 c 128,-1,48
 199 685 199 685 179 711 c 128,-1,49
 159 737 159 737 137 762.5 c 128,-1,50
 115 788 115 788 93 810 c 1,51,-1
 204 882 l 1,52,53
 226 862 226 862 248.5 838 c 128,-1,54
 271 814 271 814 292 789.5 c 128,-1,55
 313 765 313 765 331 741 c 128,-1,56
 349 717 349 717 360 696 c 1,57,-1
 241 615 l 1,46,47
EndSplineSet
EndChar

StartChar: cid43209
Encoding: 38451 38451 93
Width: 1024
Flags: W
HStem: -19 138<601 807> 339 136<601 807> 678 138<601 807> 705 132<203 278>
VStem: 67 136<-93 705> 295 137<272.117 425.058> 458 143<-87 -19 119 339 475 678> 807 150<-78 -19 119 339 475 678>
LayerCount: 2
Fore
SplineSet
957 816 m 1,0,-1
 957 -78 l 1,1,-1
 807 -78 l 1,2,-1
 807 -19 l 1,3,-1
 601 -19 l 1,4,-1
 601 -87 l 1,5,-1
 458 -87 l 1,6,-1
 458 816 l 1,7,-1
 957 816 l 1,0,-1
601 678 m 1,8,-1
 601 475 l 1,9,-1
 807 475 l 1,10,-1
 807 678 l 1,11,-1
 601 678 l 1,8,-1
807 119 m 1,12,-1
 807 339 l 1,13,-1
 601 339 l 1,14,-1
 601 119 l 1,15,-1
 807 119 l 1,12,-1
450 783 m 1,16,17
 427 716 427 716 402 645.5 c 128,-1,18
 377 575 377 575 353 518 c 1,19,20
 378 488 378 488 394 460 c 128,-1,21
 410 432 410 432 418 406 c 128,-1,22
 426 380 426 380 429 356 c 128,-1,23
 432 332 432 332 432 310 c 0,24,25
 432 254 432 254 419.5 218.5 c 128,-1,26
 407 183 407 183 378 163 c 0,27,28
 347 141 347 141 311 137 c 0,29,30
 297 135 297 135 278 134.5 c 128,-1,31
 259 134 259 134 239 135 c 1,32,33
 238 163 238 163 229 201 c 128,-1,34
 220 239 220 239 205 267 c 1,35,36
 217 265 217 265 227 265 c 2,37,-1
 247 265 l 2,38,39
 265 265 265 265 278 273 c 0,40,41
 295 284 295 284 295 328 c 0,42,43
 295 361 295 361 280 406.5 c 128,-1,44
 265 452 265 452 219 502 c 1,45,46
 233 545 233 545 248.5 599.5 c 128,-1,47
 264 654 264 654 278 705 c 1,48,-1
 203 705 l 1,49,-1
 203 -93 l 1,50,-1
 67 -93 l 1,51,-1
 67 837 l 1,52,-1
 325 837 l 1,53,-1
 346 842 l 1,54,-1
 450 783 l 1,16,17
EndSplineSet
EndChar

StartChar: uni96E8
Encoding: 38632 38632 94
Width: 1024
Flags: W
HStem: -93 127<704.094 794.327> 461 138<228 435 582 800> 673 146<45 435 582 981>
VStem: 86 142<-96 156 189 352 376 461> 435 147<-83 117 147 160 196 322 355 356 372 461 599 673> 800 146<38.1267 129 151 325 357 461>
LayerCount: 2
Fore
SplineSet
582 673 m 1,0,-1
 582 599 l 1,1,-1
 946 599 l 1,2,-1
 946 51 l 2,3,4
 946 2 946 2 933.5 -26 c 128,-1,5
 921 -54 921 -54 888 -70 c 128,-1,6
 855 -86 855 -86 811.5 -89.5 c 128,-1,7
 768 -93 768 -93 710 -93 c 1,8,9
 707 -80 707 -80 701.5 -62.5 c 128,-1,10
 696 -45 696 -45 690 -27.5 c 128,-1,11
 684 -10 684 -10 676.5 6.5 c 128,-1,12
 669 23 669 23 662 35 c 1,13,14
 677 34 677 34 695 34 c 2,15,-1
 777 33 l 2,16,17
 789 34 789 34 794.5 38 c 128,-1,18
 800 42 800 42 800 53 c 2,19,-1
 800 129 l 1,20,-1
 722 47 l 1,21,22
 711 58 711 58 694.5 72 c 128,-1,23
 678 86 678 86 659 101 c 128,-1,24
 640 116 640 116 621 131 c 2,25,-1
 582 160 l 1,26,-1
 582 -83 l 1,27,-1
 435 -83 l 1,28,-1
 435 117 l 1,29,-1
 360 41 l 1,30,31
 338 65 338 65 301 96 c 2,32,-1
 228 156 l 1,33,-1
 228 -96 l 1,34,-1
 86 -96 l 1,35,-1
 86 599 l 1,36,-1
 435 599 l 1,37,-1
 435 673 l 1,38,-1
 45 673 l 1,39,-1
 45 819 l 1,40,-1
 981 819 l 1,41,-1
 981 673 l 1,42,-1
 582 673 l 1,0,-1
228 461 m 1,43,-1
 228 376 l 1,44,-1
 299 444 l 1,45,46
 314 435 314 435 332 424 c 2,47,-1
 403 378 l 1,48,-1
 435 355 l 1,49,-1
 435 461 l 1,50,-1
 228 461 l 1,43,-1
296 252 m 1,51,52
 311 241 311 241 330 227 c 2,53,-1
 367 201 l 1,54,-1
 435 147 l 1,55,-1
 435 322 l 1,56,-1
 366 250 l 1,57,58
 343 270 343 270 303.5 299 c 128,-1,59
 264 328 264 328 228 352 c 1,60,-1
 228 189 l 1,61,-1
 296 252 l 1,51,52
646 258 m 1,62,63
 662 247 662 247 683 233 c 2,64,-1
 765 177 l 2,65,66
 784 163 784 163 800 151 c 1,67,-1
 800 325 l 1,68,-1
 731 250 l 1,69,70
 719 260 719 260 701.5 273.5 c 128,-1,71
 684 287 684 287 664 301 c 2,72,-1
 582 356 l 1,73,-1
 582 196 l 1,74,-1
 646 258 l 1,62,63
582 461 m 1,75,-1
 582 372 l 1,76,-1
 655 446 l 1,77,-1
 728 402 l 2,78,79
 769 377 769 377 800 357 c 1,80,-1
 800 461 l 1,81,-1
 582 461 l 1,75,-1
EndSplineSet
EndChar

StartChar: uni9E1F
Encoding: 40479 40479 95
Width: 1024
Flags: W
HStem: -91 128<670.8 781.75> 89 127<42 743> 276 130<298 820> 423 127<643.277 706.297> 671 130<298 402.15 558 723>
VStem: 153 145<406 671>
LayerCount: 2
Fore
SplineSet
520 443 m 1,0,1
 505 456 505 456 482 472 c 128,-1,2
 459 488 459 488 432.5 504.5 c 128,-1,3
 406 521 406 521 378 536.5 c 128,-1,4
 350 552 350 552 326 564 c 1,5,-1
 406 654 l 1,6,-1
 458 630 l 2,7,8
 486 617 486 617 513 602 c 128,-1,9
 540 587 540 587 564 572 c 128,-1,10
 588 557 588 557 605 544 c 1,11,-1
 520 443 l 1,0,1
971 406 m 1,12,13
 970 395 970 395 970 384 c 2,14,-1
 969 350 l 2,15,16
 964 257 964 257 958.5 190 c 128,-1,17
 953 123 953 123 946 77 c 128,-1,18
 939 31 939 31 930 2.5 c 128,-1,19
 921 -26 921 -26 908 -40 c 0,20,21
 888 -64 888 -64 865.5 -73.5 c 128,-1,22
 843 -83 843 -83 813 -87 c 0,23,24
 788 -91 788 -91 751.5 -92 c 128,-1,25
 715 -93 715 -93 673 -91 c 1,26,27
 672 -77 672 -77 668.5 -59.5 c 128,-1,28
 665 -42 665 -42 659.5 -24.5 c 128,-1,29
 654 -7 654 -7 646.5 10 c 128,-1,30
 639 27 639 27 631 40 c 1,31,32
 666 37 666 37 696 37 c 2,33,-1
 744 36 l 2,34,35
 756 36 756 36 765 38.5 c 128,-1,36
 774 41 774 41 782 49 c 0,37,38
 794 62 794 62 803.5 115 c 128,-1,39
 813 168 813 168 820 276 c 1,40,-1
 153 276 l 1,41,-1
 153 801 l 1,42,-1
 397 801 l 1,43,44
 402 821 402 821 405.5 841 c 128,-1,45
 409 861 409 861 411 879 c 1,46,-1
 591 868 l 1,47,-1
 558 801 l 1,48,-1
 865 801 l 1,49,50
 864 792 864 792 864 782 c 2,51,-1
 863 752 l 2,52,53
 861 687 861 687 858 639.5 c 128,-1,54
 855 592 855 592 851 558 c 128,-1,55
 847 524 847 524 841 502.5 c 128,-1,56
 835 481 835 481 825 470 c 0,57,58
 810 450 810 450 792.5 441.5 c 128,-1,59
 775 433 775 433 754 429 c 0,60,61
 736 425 736 425 707 424 c 128,-1,62
 678 423 678 423 645 423 c 1,63,64
 643 455 643 455 633.5 491 c 128,-1,65
 624 527 624 527 609 554 c 1,66,67
 631 552 631 552 649 551 c 128,-1,68
 667 550 667 550 677 550 c 128,-1,69
 687 550 687 550 693.5 552 c 128,-1,70
 700 554 700 554 706.5 561.5 c 128,-1,71
 713 569 713 569 716.5 593.5 c 128,-1,72
 720 618 720 618 723 671 c 1,73,-1
 298 671 l 1,74,-1
 298 406 l 1,75,-1
 971 406 l 1,12,13
743 89 m 1,76,-1
 42 89 l 1,77,-1
 42 216 l 1,78,-1
 743 216 l 1,79,-1
 743 89 l 1,76,-1
EndSplineSet
EndChar

StartChar: uni9EC4
Encoding: 40644 40644 96
Width: 1024
Flags: W
HStem: 93 101<289 301 377 436 591 631 739 743> 233 94<289 436 591 743> 366 100<289 436 591 743> 503 373<283 434 593 748> 503 134<49 283 434 436 591 593 748 981> 679 130<120 283 434 593 748 908>
VStem: 145 144<194 233 327 366> 283 151<637 679 809 876> 436 155<194 233 327 366 466 503> 593 155<637 679 809 876> 743 151<194 233 327 366>
LayerCount: 2
Fore
SplineSet
591 503 m 1,0,-1
 591 466 l 1,1,-1
 894 466 l 1,2,-1
 894 93 l 1,3,-1
 739 93 l 1,4,5
 805 69 805 69 867 45.5 c 128,-1,6
 929 22 929 22 972 4 c 1,7,-1
 867 -95 l 1,8,9
 841 -83 841 -83 807.5 -67.5 c 128,-1,10
 774 -52 774 -52 736 -36 c 2,11,-1
 656 -2 l 2,12,13
 615 14 615 14 574 29 c 1,14,-1
 631 93 l 1,15,-1
 377 93 l 1,16,-1
 468 28 l 1,17,18
 437 10 437 10 397.5 -9.5 c 128,-1,19
 358 -29 358 -29 315 -45.5 c 128,-1,20
 272 -62 272 -62 228.5 -76.5 c 128,-1,21
 185 -91 185 -91 145 -100 c 1,22,23
 136 -89 136 -89 123.5 -75 c 128,-1,24
 111 -61 111 -61 97 -47.5 c 128,-1,25
 83 -34 83 -34 68.5 -20.5 c 128,-1,26
 54 -7 54 -7 42 3 c 1,27,28
 75 10 75 10 109.5 20.5 c 128,-1,29
 144 31 144 31 178 42.5 c 128,-1,30
 212 54 212 54 243 67 c 128,-1,31
 274 80 274 80 301 93 c 1,32,-1
 145 93 l 1,33,-1
 145 466 l 1,34,-1
 436 466 l 1,35,-1
 436 503 l 1,36,-1
 49 503 l 1,37,-1
 49 637 l 1,38,-1
 283 637 l 1,39,-1
 283 679 l 1,40,-1
 120 679 l 1,41,-1
 120 809 l 1,42,-1
 283 809 l 1,43,-1
 283 876 l 1,44,-1
 434 876 l 1,45,-1
 434 809 l 1,46,-1
 593 809 l 1,47,-1
 593 876 l 1,48,-1
 748 876 l 1,49,-1
 748 809 l 1,50,-1
 908 809 l 1,51,-1
 908 679 l 1,52,-1
 748 679 l 1,53,-1
 748 637 l 1,54,-1
 981 637 l 1,55,-1
 981 503 l 1,56,-1
 591 503 l 1,0,-1
289 327 m 1,57,-1
 436 327 l 1,58,-1
 436 366 l 1,59,-1
 289 366 l 1,60,-1
 289 327 l 1,57,-1
289 194 m 1,61,-1
 436 194 l 1,62,-1
 436 233 l 1,63,-1
 289 233 l 1,64,-1
 289 194 l 1,61,-1
743 233 m 1,65,-1
 591 233 l 1,66,-1
 591 194 l 1,67,-1
 743 194 l 1,68,-1
 743 233 l 1,65,-1
591 366 m 1,69,-1
 591 327 l 1,70,-1
 743 327 l 1,71,-1
 743 366 l 1,72,-1
 591 366 l 1,69,-1
434 637 m 1,73,-1
 593 637 l 1,74,-1
 593 679 l 1,75,-1
 434 679 l 1,76,-1
 434 637 l 1,73,-1
EndSplineSet
EndChar

StartChar: uni9F99
Encoding: 40857 40857 97
Width: 1024
Flags: W
HStem: -79 136<687.769 854.219> 518 138<44 301 473 524 676 742 778 980>
VStem: 301 155<415.112 518> 332 155<657.626 870> 524 152<281 518>
LayerCount: 2
Fore
SplineSet
819 57 m 2,0,1
 832 57 832 57 841 62 c 128,-1,2
 850 67 850 67 855 79.5 c 128,-1,3
 860 92 860 92 863 115 c 128,-1,4
 866 138 866 138 868 175 c 1,5,6
 880 166 880 166 896.5 157 c 128,-1,7
 913 148 913 148 931.5 140.5 c 128,-1,8
 950 133 950 133 968.5 127 c 128,-1,9
 987 121 987 121 1002 118 c 1,10,11
 996 62 996 62 985 24.5 c 128,-1,12
 974 -13 974 -13 954.5 -36 c 128,-1,13
 935 -59 935 -59 905.5 -69 c 128,-1,14
 876 -79 876 -79 834 -79 c 2,15,-1
 697 -79 l 2,16,17
 632 -79 632 -79 596 -64.5 c 128,-1,18
 560 -50 560 -50 543 -14 c 1,19,20
 515 -32 515 -32 487 -49 c 128,-1,21
 459 -66 459 -66 429 -81 c 1,22,23
 413 -54 413 -54 384 -20.5 c 128,-1,24
 355 13 355 13 328 38 c 1,25,26
 380 62 380 62 429 89.5 c 128,-1,27
 478 117 478 117 524 150 c 1,28,-1
 524 518 l 1,29,-1
 456 518 l 1,30,31
 440 416 440 416 414 327 c 128,-1,32
 388 238 388 238 349.5 162 c 128,-1,33
 311 86 311 86 258.5 23 c 128,-1,34
 206 -40 206 -40 135 -90 c 1,35,36
 128 -78 128 -78 114 -61 c 128,-1,37
 100 -44 100 -44 84 -25.5 c 128,-1,38
 68 -7 68 -7 51 10 c 128,-1,39
 34 27 34 27 20 38 c 1,40,41
 81 76 81 76 127.5 125 c 128,-1,42
 174 174 174 174 208 234 c 128,-1,43
 242 294 242 294 264.5 365 c 128,-1,44
 287 436 287 436 301 518 c 1,45,-1
 44 518 l 1,46,-1
 44 656 l 1,47,-1
 318 656 l 1,48,49
 323 708 323 708 326.5 763 c 128,-1,50
 330 818 330 818 332 877 c 1,51,-1
 487 870 l 1,52,53
 485 814 485 814 481.5 761 c 128,-1,54
 478 708 478 708 473 656 c 1,55,-1
 742 656 l 1,56,57
 727 671 727 671 706.5 689 c 128,-1,58
 686 707 686 707 665 724 c 2,59,-1
 622 759 l 2,60,61
 599 776 599 776 580 791 c 1,62,-1
 679 870 l 1,63,-1
 727 838 l 2,64,65
 753 820 753 820 778 800 c 2,66,-1
 826 763 l 2,67,68
 849 745 849 745 864 729 c 1,69,-1
 778 656 l 1,70,-1
 980 656 l 1,71,-1
 980 518 l 1,72,-1
 676 518 l 1,73,-1
 676 281 l 1,74,75
 720 327 720 327 757.5 379 c 128,-1,76
 795 431 795 431 824 489 c 1,77,-1
 964 431 l 1,78,79
 906 328 906 328 834 242 c 128,-1,80
 762 156 762 156 677 84 c 1,81,82
 679 67 679 67 687.5 62 c 128,-1,83
 696 57 696 57 720 57 c 2,84,-1
 819 57 l 2,0,1
EndSplineSet
EndChar
